Velvelyne-Light.ufo
<glyph name="exclam" format="2">
  <advance width="372"/>
  <unicode hex="0021"/>
  <note>
exclam
</note>
  <outline>
    <contour>
      <point x="189" y="1322" type="move"/>
      <point x="189" y="380" type="line"/>
    </contour>
    <component base="dotaccentcomb" xOffset="42" yOffset="-1178"/>
  </outline>
</glyph>
<glyph name="quotedbl" format="2">
  <advance width="581"/>
  <unicode hex="0022"/>
  <note>
quotedbl
</note>
  <outline>
    <contour identifier="ID0x14b8f64f0">
      <point x="45" y="914" type="move"/>
      <point x="163" y="995"/>
      <point x="226" y="1092"/>
      <point x="226" y="1190" type="curve" smooth="yes"/>
      <point x="226" y="1273"/>
      <point x="182" y="1361"/>
      <point x="114" y="1415" type="curve"/>
    </contour>
    <contour>
      <point x="355" y="914" type="move"/>
      <point x="473" y="995"/>
      <point x="536" y="1092"/>
      <point x="536" y="1190" type="curve" smooth="yes"/>
      <point x="536" y="1273"/>
      <point x="492" y="1361"/>
      <point x="424" y="1415" type="curve"/>
    </contour>
  </outline>
</glyph>
<glyph name="numbersign" format="2">
  <advance width="1039"/>
  <unicode hex="0023"/>
  <note>
numbersign
</note>
  <outline>
    <contour>
      <point x="452" y="1341" type="move"/>
      <point x="420" y="993" type="line" smooth="yes"/>
      <point x="409" y="876"/>
      <point x="374" y="867"/>
      <point x="255" y="867" type="curve" smooth="yes"/>
      <point x="161" y="867" type="line"/>
    </contour>
    <contour>
      <point x="934" y="959" type="move"/>
      <point x="851" y="959" type="line" smooth="yes"/>
      <point x="720" y="959"/>
      <point x="699" y="947"/>
      <point x="688" y="834" type="curve" smooth="yes"/>
      <point x="664" y="577" type="line" smooth="yes"/>
      <point x="653" y="459"/>
      <point x="648" y="449"/>
      <point x="534" y="450" type="curve" smooth="yes"/>
      <point x="409" y="451" type="line" smooth="yes"/>
      <point x="296" y="452"/>
      <point x="273" y="436"/>
      <point x="262" y="324" type="curve" smooth="yes"/>
      <point x="233" y="16" type="line"/>
    </contour>
    <contour>
      <point x="789" y="1341" type="move"/>
      <point x="771" y="1082" type="line" smooth="yes"/>
      <point x="761" y="944"/>
      <point x="735" y="929"/>
      <point x="603" y="929" type="curve" smooth="yes"/>
      <point x="529" y="929" type="line" smooth="yes"/>
      <point x="392" y="929"/>
      <point x="378" y="909"/>
      <point x="368" y="802" type="curve" smooth="yes"/>
      <point x="344" y="545" type="line" smooth="yes"/>
      <point x="333" y="432"/>
      <point x="319" y="419"/>
      <point x="179" y="419" type="curve" smooth="yes"/>
      <point x="105" y="419" type="line"/>
    </contour>
    <contour>
      <point x="874" y="490" type="move"/>
      <point x="769" y="490" type="line" smooth="yes"/>
      <point x="652" y="490"/>
      <point x="615" y="481"/>
      <point x="605" y="363" type="curve" smooth="yes"/>
      <point x="577" y="16" type="line"/>
    </contour>
  </outline>
</glyph>
<glyph name="dollar" format="2">
  <advance width="975"/>
  <unicode hex="0024"/>
  <note>
dollar
</note>
  <outline>
    <contour>
      <point x="811" y="1041" type="move"/>
      <point x="779" y="1146"/>
      <point x="653" y="1253"/>
      <point x="497" y="1253" type="curve" smooth="yes"/>
      <point x="302" y="1253"/>
      <point x="173" y="1152"/>
      <point x="173" y="974" type="curve" smooth="yes"/>
      <point x="173" y="825"/>
      <point x="275" y="715"/>
      <point x="378" y="715" type="curve" smooth="yes"/>
      <point x="444" y="715"/>
      <point x="499" y="759"/>
      <point x="499" y="927" type="curve" smooth="yes"/>
      <point x="499" y="1394" type="line"/>
    </contour>
    <contour>
      <point x="494" y="-214" type="move"/>
      <point x="494" y="403" type="line" smooth="yes"/>
      <point x="494" y="560"/>
      <point x="535" y="611"/>
      <point x="623" y="611" type="curve" smooth="yes"/>
      <point x="738" y="610"/>
      <point x="850" y="511"/>
      <point x="850" y="354" type="curve" smooth="yes"/>
      <point x="850" y="134"/>
      <point x="670" y="29"/>
      <point x="496" y="29" type="curve" smooth="yes"/>
      <point x="312" y="29"/>
      <point x="168" y="134"/>
      <point x="125" y="266" type="curve" smooth="yes"/>
    </contour>
    <contour>
      <point x="431" y="726" type="move"/>
      <point x="530" y="590" type="line"/>
    </contour>
  </outline>
</glyph>
<glyph name="percent" format="2">
  <advance width="1429"/>
  <unicode hex="0025"/>
  <note>
percent
</note>
  <outline>
    <contour>
      <point x="350" y="26" type="move"/>
      <point x="1058" y="1339" type="line"/>
    </contour>
    <contour>
      <point x="1111" y="801" type="curve" smooth="yes"/>
      <point x="1270" y="801"/>
      <point x="1295" y="621"/>
      <point x="1299" y="584" type="curve" smooth="yes"/>
      <point x="1303" y="547"/>
      <point x="1296" y="517"/>
      <point x="1288" y="492" type="curve" smooth="yes"/>
      <point x="1278" y="461"/>
      <point x="1265" y="436"/>
      <point x="1265" y="410" type="curve" smooth="yes"/>
      <point x="1265" y="386"/>
      <point x="1277" y="367"/>
      <point x="1288" y="342" type="curve" smooth="yes"/>
      <point x="1298" y="320"/>
      <point x="1304" y="294"/>
      <point x="1304" y="258" type="curve" smooth="yes"/>
      <point x="1304" y="222"/>
      <point x="1272" y="36"/>
      <point x="1111" y="36" type="curve" smooth="yes"/>
      <point x="950" y="36"/>
      <point x="918" y="222"/>
      <point x="918" y="258" type="curve" smooth="yes"/>
      <point x="918" y="294"/>
      <point x="924" y="320"/>
      <point x="934" y="342" type="curve" smooth="yes"/>
      <point x="945" y="367"/>
      <point x="957" y="386"/>
      <point x="957" y="410" type="curve" smooth="yes"/>
      <point x="957" y="436"/>
      <point x="944" y="461"/>
      <point x="934" y="492" type="curve" smooth="yes"/>
      <point x="926" y="517"/>
      <point x="919" y="547"/>
      <point x="923" y="584" type="curve" smooth="yes"/>
      <point x="927" y="621"/>
      <point x="952" y="801"/>
    </contour>
    <contour>
      <point x="318" y="1334" type="curve" smooth="yes"/>
      <point x="477" y="1334"/>
      <point x="502" y="1154"/>
      <point x="506" y="1117" type="curve" smooth="yes"/>
      <point x="510" y="1080"/>
      <point x="503" y="1050"/>
      <point x="495" y="1025" type="curve" smooth="yes"/>
      <point x="485" y="994"/>
      <point x="472" y="969"/>
      <point x="472" y="943" type="curve" smooth="yes"/>
      <point x="472" y="919"/>
      <point x="484" y="900"/>
      <point x="495" y="875" type="curve" smooth="yes"/>
      <point x="505" y="853"/>
      <point x="511" y="827"/>
      <point x="511" y="791" type="curve" smooth="yes"/>
      <point x="511" y="755"/>
      <point x="479" y="569"/>
      <point x="318" y="569" type="curve" smooth="yes"/>
      <point x="157" y="569"/>
      <point x="125" y="755"/>
      <point x="125" y="791" type="curve" smooth="yes"/>
      <point x="125" y="827"/>
      <point x="131" y="853"/>
      <point x="141" y="875" type="curve" smooth="yes"/>
      <point x="152" y="900"/>
      <point x="164" y="919"/>
      <point x="164" y="943" type="curve" smooth="yes"/>
      <point x="164" y="969"/>
      <point x="151" y="994"/>
      <point x="141" y="1025" type="curve" smooth="yes"/>
      <point x="133" y="1050"/>
      <point x="126" y="1080"/>
      <point x="130" y="1117" type="curve" smooth="yes"/>
      <point x="134" y="1154"/>
      <point x="159" y="1334"/>
    </contour>
  </outline>
</glyph>
<glyph name="parenleft" format="2">
  <advance width="432"/>
  <unicode hex="0028"/>
  <note>
parenleft
</note>
  <outline>
    <contour>
      <point x="390" y="1417" type="move"/>
      <point x="209" y="1106"/>
      <point x="143" y="857"/>
      <point x="127" y="558" type="curve" smooth="yes"/>
      <point x="106" y="153"/>
      <point x="259" y="-146"/>
      <point x="397" y="-383" type="curve" smooth="yes"/>
    </contour>
  </outline>
</glyph>
<glyph name="parenright" format="2">
  <advance width="559"/>
  <unicode hex="0029"/>
  <note>
parenright
</note>
  <outline>
    <contour>
      <point x="42" y="1417" type="move"/>
      <point x="223" y="1106"/>
      <point x="289" y="857"/>
      <point x="305" y="558" type="curve" smooth="yes"/>
      <point x="326" y="153"/>
      <point x="173" y="-146"/>
      <point x="35" y="-383" type="curve" smooth="yes"/>
    </contour>
  </outline>
</glyph>
<glyph name="asterisk" format="2">
  <advance width="653"/>
  <unicode hex="002A"/>
  <note>
asterisk
</note>
  <outline>
    <contour>
      <point x="46" y="1142" type="move"/>
      <point x="80" y="1091"/>
      <point x="122" y="1072"/>
      <point x="163" y="1062" type="curve" smooth="yes"/>
      <point x="225" y="1047"/>
      <point x="282" y="1054"/>
      <point x="288" y="997" type="curve" smooth="yes"/>
      <point x="293" y="949"/>
      <point x="249" y="926"/>
      <point x="204" y="891" type="curve" smooth="yes"/>
      <point x="160" y="856"/>
      <point x="117" y="809"/>
      <point x="121" y="715" type="curve" smooth="yes"/>
    </contour>
    <contour>
      <point x="568" y="992" type="move"/>
      <point x="519" y="1016"/>
      <point x="474" y="1015"/>
      <point x="434" y="1008" type="curve" smooth="yes"/>
      <point x="363" y="995"/>
      <point x="311" y="960"/>
      <point x="290" y="1007" type="curve" smooth="yes"/>
      <point x="265" y="1061"/>
      <point x="307" y="1112"/>
      <point x="330" y="1176" type="curve" smooth="yes"/>
      <point x="345" y="1218"/>
      <point x="352" y="1266"/>
      <point x="326" y="1324" type="curve" smooth="yes"/>
    </contour>
    <contour>
      <point x="298" y="992" type="move"/>
      <point x="303" y="922"/>
      <point x="333" y="890"/>
      <point x="366" y="861" type="curve" smooth="yes"/>
      <point x="405" y="826"/>
      <point x="448" y="796"/>
      <point x="455" y="707" type="curve"/>
    </contour>
  </outline>
</glyph>
<glyph name="hyphen" format="2">
  <advance width="600"/>
  <unicode hex="002D"/>
  <note>
hyphen
</note>
  <outline>
    <contour>
      <point x="145" y="515" type="move"/>
      <point x="455" y="515" type="line"/>
    </contour>
  </outline>
</glyph>
<glyph name="zero" format="2">
  <advance width="939"/>
  <unicode hex="0030"/>
  <note>
zero
</note>
  <outline>
    <contour>
      <point x="461" y="1308" type="curve" smooth="yes"/>
      <point x="573" y="1308"/>
      <point x="794" y="1283"/>
      <point x="794" y="701" type="curve" smooth="yes"/>
      <point x="794" y="90"/>
      <point x="596" y="33"/>
      <point x="475" y="33" type="curve" smooth="yes"/>
      <point x="354" y="33"/>
      <point x="145" y="90"/>
      <point x="145" y="704" type="curve" smooth="yes"/>
      <point x="145" y="1283"/>
      <point x="373" y="1308"/>
    </contour>
  </outline>
</glyph>
<glyph name="three" format="2">
  <advance width="950"/>
  <unicode hex="0033"/>
  <note>
three
</note>
  <outline>
    <contour>
      <point x="183" y="1091" type="move"/>
      <point x="198" y="1201"/>
      <point x="302" y="1318"/>
      <point x="450" y="1318" type="curve" smooth="yes"/>
      <point x="620" y="1318"/>
      <point x="729" y="1201"/>
      <point x="729" y="1051" type="curve" smooth="yes"/>
      <point x="729" y="938"/>
      <point x="674" y="893"/>
      <point x="613" y="863" type="curve" smooth="yes"/>
      <point x="536" y="825"/>
      <point x="449" y="811"/>
      <point x="449" y="716" type="curve" smooth="yes"/>
      <point x="449" y="622"/>
      <point x="529" y="591"/>
      <point x="611" y="551" type="curve" smooth="yes"/>
      <point x="696" y="510"/>
      <point x="783" y="462"/>
      <point x="785" y="327" type="curve" smooth="yes"/>
      <point x="788" y="143"/>
      <point x="666" y="29"/>
      <point x="490" y="28" type="curve" smooth="yes"/>
      <point x="306" y="27"/>
      <point x="195" y="132"/>
      <point x="160" y="273" type="curve"/>
    </contour>
    <contour>
      <point x="440" y="716" type="move"/>
      <point x="379" y="716" type="line"/>
    </contour>
  </outline>
</glyph>
<glyph name="five" format="2">
  <advance width="895"/>
  <unicode hex="0035"/>
  <note>
five
</note>
  <outline>
    <contour>
      <point x="150" y="293" type="move"/>
      <point x="156" y="139"/>
      <point x="264" y="31"/>
      <point x="447" y="31" type="curve" smooth="yes"/>
      <point x="652" y="31"/>
      <point x="760" y="201"/>
      <point x="760" y="443" type="curve" smooth="yes"/>
      <point x="760" y="686"/>
      <point x="599" y="846"/>
      <point x="387" y="771" type="curve" smooth="yes"/>
      <point x="316" y="746" type="line" smooth="yes"/>
      <point x="194" y="703"/>
      <point x="149" y="754"/>
      <point x="158" y="872" type="curve" smooth="yes"/>
      <point x="183" y="1202" type="line" smooth="yes"/>
      <point x="190" y="1291"/>
      <point x="240" y="1306"/>
      <point x="316" y="1304" type="curve" smooth="yes"/>
      <point x="697" y="1296" type="line"/>
    </contour>
  </outline>
</glyph>
<glyph name="eight" format="2">
  <advance width="958"/>
  <unicode hex="0038"/>
  <note>
eight
</note>
  <outline>
    <contour>
      <point x="479" y="1327" type="curve" smooth="yes"/>
      <point x="716" y="1327"/>
      <point x="776" y="1150"/>
      <point x="776" y="1042" type="curve" smooth="yes"/>
      <point x="776" y="934"/>
      <point x="722" y="876"/>
      <point x="667" y="833" type="curve" smooth="yes"/>
      <point x="610" y="789"/>
      <point x="554" y="759"/>
      <point x="554" y="708" type="curve" smooth="yes"/>
      <point x="554" y="663"/>
      <point x="608" y="641"/>
      <point x="668" y="605" type="curve" smooth="yes"/>
      <point x="741" y="561"/>
      <point x="823" y="496"/>
      <point x="823" y="344" type="curve" smooth="yes"/>
      <point x="823" y="182"/>
      <point x="707" y="27"/>
      <point x="476" y="27" type="curve" smooth="yes"/>
      <point x="259" y="27"/>
      <point x="135" y="168"/>
      <point x="135" y="345" type="curve" smooth="yes"/>
      <point x="135" y="497"/>
      <point x="217" y="562"/>
      <point x="290" y="606" type="curve" smooth="yes"/>
      <point x="350" y="642"/>
      <point x="404" y="664"/>
      <point x="404" y="709" type="curve" smooth="yes"/>
      <point x="404" y="760"/>
      <point x="348" y="790"/>
      <point x="291" y="834" type="curve" smooth="yes"/>
      <point x="236" y="877"/>
      <point x="182" y="935"/>
      <point x="182" y="1043" type="curve" smooth="yes"/>
      <point x="182" y="1151"/>
      <point x="242" y="1327"/>
    </contour>
    <contour>
      <point x="396" y="709" type="move"/>
      <point x="567" y="712" type="line"/>
    </contour>
  </outline>
</glyph>
<glyph name="less" format="2">
  <advance width="951"/>
  <unicode hex="003C"/>
  <note>
less
</note>
  <outline>
    <contour>
      <point x="826" y="1051" type="move"/>
      <point x="192" y="720" type="line" smooth="yes"/>
      <point x="101" y="672"/>
      <point x="103" y="590"/>
      <point x="195" y="542" type="curve" smooth="yes"/>
      <point x="822" y="214" type="line"/>
    </contour>
  </outline>
</glyph>
<glyph name="equal" format="2">
  <advance width="930"/>
  <unicode hex="003D"/>
  <note>
equal
</note>
  <guideline x="543" y="317" angle="0"/>
  <guideline x="555" y="780" angle="0"/>
  <outline>
    <contour>
      <point x="125" y="805" type="move"/>
      <point x="805" y="805" type="line"/>
    </contour>
    <contour>
      <point x="125" y="342" type="move"/>
      <point x="805" y="342" type="line"/>
    </contour>
  </outline>
</glyph>
<glyph name="greater" format="2">
  <advance width="951"/>
  <unicode hex="003E"/>
  <note>
greater
</note>
  <outline>
    <contour>
      <point x="129" y="214" type="move"/>
      <point x="756" y="542" type="line" smooth="yes"/>
      <point x="848" y="590"/>
      <point x="850" y="672"/>
      <point x="759" y="720" type="curve" smooth="yes"/>
      <point x="125" y="1051" type="line"/>
    </contour>
  </outline>
</glyph>
<glyph name="at" format="2">
  <advance width="1610"/>
  <unicode hex="0040"/>
  <note>
at
</note>
  <outline>
    <contour>
      <point x="1150" y="1011" type="move"/>
      <point x="1147" y="927"/>
      <point x="1108" y="892"/>
      <point x="1108" y="833" type="curve" smooth="yes"/>
      <point x="1108" y="769"/>
      <point x="1139" y="691"/>
      <point x="1134" y="619" type="curve" smooth="yes"/>
      <point x="1127" y="523"/>
      <point x="1071" y="454"/>
      <point x="1056" y="395" type="curve" smooth="yes"/>
      <point x="1031" y="291"/>
      <point x="1045" y="146"/>
      <point x="1159" y="146" type="curve" smooth="yes"/>
      <point x="1360" y="146"/>
      <point x="1463" y="437"/>
      <point x="1465" y="723" type="curve" smooth="yes"/>
      <point x="1468" y="1086"/>
      <point x="1275" y="1390"/>
      <point x="920" y="1388" type="curve" smooth="yes"/>
      <point x="445" y="1385"/>
      <point x="153" y="940"/>
      <point x="145" y="506" type="curve" smooth="yes"/>
      <point x="137" y="123"/>
      <point x="359" y="-236"/>
      <point x="764" y="-236" type="curve" smooth="yes"/>
      <point x="956" y="-236"/>
      <point x="1134" y="-145"/>
      <point x="1210" y="-99" type="curve"/>
    </contour>
    <contour>
      <point x="1103" y="839" type="move"/>
      <point x="1060" y="854"/>
      <point x="1036" y="880"/>
      <point x="1013" y="908" type="curve" smooth="yes"/>
      <point x="983" y="945"/>
      <point x="957" y="986"/>
      <point x="898" y="1008" type="curve" smooth="yes"/>
      <point x="661" y="1095"/>
      <point x="486" y="757"/>
      <point x="486" y="487" type="curve" smooth="yes"/>
      <point x="486" y="338"/>
      <point x="531" y="161"/>
      <point x="700" y="162" type="curve" smooth="yes"/>
      <point x="792" y="163"/>
      <point x="847" y="222"/>
      <point x="903" y="288" type="curve" smooth="yes"/>
      <point x="941" y="333"/>
      <point x="995" y="387"/>
      <point x="1050" y="395" type="curve" smooth="yes"/>
    </contour>
  </outline>
</glyph>
<glyph name="A" format="2">
  <advance width="1168"/>
  <unicode hex="0041"/>
  <note>
A
</note>
  <anchor x="584" y="0" name="bottom"/>
  <anchor x="1062" y="6" name="ogonek"/>
  <anchor x="584" y="1296" name="top"/>
  <outline>
    <contour>
      <point x="1033" y="20" type="move"/>
      <point x="954" y="284" type="line" smooth="yes"/>
      <point x="934" y="350"/>
      <point x="901" y="380"/>
      <point x="872" y="405" type="curve" smooth="yes"/>
      <point x="845" y="429"/>
      <point x="819" y="449"/>
      <point x="807" y="489" type="curve" smooth="yes"/>
      <point x="795" y="529"/>
      <point x="801" y="576"/>
      <point x="804" y="629" type="curve" smooth="yes"/>
      <point x="807" y="681"/>
      <point x="807" y="739"/>
      <point x="786" y="805" type="curve" smooth="yes"/>
      <point x="668" y="1168" type="line" smooth="yes"/>
      <point x="641" y="1252"/>
      <point x="618" y="1288"/>
      <point x="584" y="1288" type="curve" smooth="yes"/>
      <point x="552" y="1288"/>
      <point x="531" y="1259"/>
      <point x="504" y="1180" type="curve" smooth="yes"/>
      <point x="367" y="776" type="line" smooth="yes"/>
      <point x="339" y="694"/>
      <point x="344" y="639"/>
      <point x="351" y="593" type="curve" smooth="yes"/>
      <point x="356" y="552"/>
      <point x="364" y="518"/>
      <point x="352" y="480" type="curve" smooth="yes"/>
      <point x="343" y="449"/>
      <point x="320" y="426"/>
      <point x="294" y="403" type="curve" smooth="yes"/>
      <point x="262" y="374"/>
      <point x="224" y="343"/>
      <point x="208" y="285" type="curve" smooth="yes"/>
      <point x="135" y="20" type="line"/>
    </contour>
    <contour>
      <point x="368" y="481" type="move"/>
      <point x="800" y="481" type="line"/>
    </contour>
  </outline>
</glyph>
<glyph name="B" format="2">
  <advance width="1082"/>
  <unicode hex="0042"/>
  <note>
B
</note>
  <anchor x="541" y="0" name="bottom"/>
  <anchor x="271" y="328" name="center"/>
  <anchor x="541" y="1292" name="top"/>
  <outline>
    <contour>
      <point x="286" y="1275" type="curve" smooth="yes"/>
      <point x="587" y="1275" type="line" smooth="yes"/>
      <point x="748" y="1275"/>
      <point x="870" y="1198"/>
      <point x="870" y="1021" type="curve" smooth="yes"/>
      <point x="870" y="914"/>
      <point x="803" y="857"/>
      <point x="735" y="814" type="curve" smooth="yes"/>
      <point x="666" y="770"/>
      <point x="597" y="741"/>
      <point x="597" y="691" type="curve" smooth="yes"/>
      <point x="597" y="647"/>
      <point x="664" y="624"/>
      <point x="737" y="588" type="curve" smooth="yes"/>
      <point x="827" y="545"/>
      <point x="927" y="481"/>
      <point x="927" y="331" type="curve" smooth="yes"/>
      <point x="927" y="149"/>
      <point x="794" y="25"/>
      <point x="592" y="25" type="curve" smooth="yes"/>
      <point x="282" y="25" type="line" smooth="yes"/>
      <point x="229" y="25"/>
      <point x="205" y="50"/>
      <point x="205" y="109" type="curve" smooth="yes"/>
      <point x="205" y="452" type="line" smooth="yes"/>
      <point x="205" y="513"/>
      <point x="230" y="551"/>
      <point x="256" y="584" type="curve" smooth="yes"/>
      <point x="280" y="617"/>
      <point x="305" y="645"/>
      <point x="305" y="686" type="curve" smooth="yes"/>
      <point x="305" y="728"/>
      <point x="276" y="756"/>
      <point x="249" y="790" type="curve" smooth="yes"/>
      <point x="226" y="820"/>
      <point x="205" y="855"/>
      <point x="205" y="907" type="curve" smooth="yes"/>
      <point x="205" y="1197" type="line" smooth="yes"/>
      <point x="205" y="1251"/>
      <point x="230" y="1275"/>
    </contour>
    <contour>
      <point x="318" y="688" type="move"/>
      <point x="584" y="688" type="line"/>
    </contour>
  </outline>
</glyph>
<glyph name="E" format="2">
  <advance width="1101"/>
  <unicode hex="0045"/>
  <note>
E
</note>
  <anchor x="550" y="0" name="bottom"/>
  <anchor x="991" y="10" name="ogonek"/>
  <anchor x="592" y="1279" name="top"/>
  <anchor x="19" y="1292" name="topleft"/>
  <outline>
    <contour>
      <point x="920" y="1275" type="move"/>
      <point x="282" y="1275" type="line" smooth="yes"/>
      <point x="229" y="1275"/>
      <point x="205" y="1251"/>
      <point x="205" y="1196" type="curve" smooth="yes"/>
      <point x="205" y="936" type="line" smooth="yes"/>
      <point x="205" y="862"/>
      <point x="230" y="814"/>
      <point x="256" y="777" type="curve" smooth="yes"/>
      <point x="285" y="736"/>
      <point x="315" y="708"/>
      <point x="315" y="671" type="curve" smooth="yes"/>
      <point x="315" y="636"/>
      <point x="285" y="612"/>
      <point x="256" y="576" type="curve" smooth="yes"/>
      <point x="230" y="543"/>
      <point x="205" y="501"/>
      <point x="205" y="432" type="curve" smooth="yes"/>
      <point x="205" y="119" type="line" smooth="yes"/>
      <point x="205" y="57"/>
      <point x="228" y="25"/>
      <point x="285" y="25" type="curve" smooth="yes"/>
      <point x="960" y="25" type="line"/>
    </contour>
    <contour>
      <point x="315" y="671" type="move"/>
      <point x="851" y="671" type="line"/>
    </contour>
  </outline>
</glyph>
<glyph name="F" format="2">
  <advance width="1015"/>
  <unicode hex="0046"/>
  <note>
F
</note>
  <anchor x="502" y="0" name="bottom"/>
  <anchor x="502" y="1292" name="top"/>
  <outline>
    <contour>
      <point x="920" y="1275" type="move"/>
      <point x="282" y="1275" type="line" smooth="yes"/>
      <point x="229" y="1275"/>
      <point x="205" y="1252"/>
      <point x="205" y="1198" type="curve" smooth="yes"/>
      <point x="205" y="959" type="line" smooth="yes"/>
      <point x="205" y="887"/>
      <point x="225" y="839"/>
      <point x="247" y="801" type="curve" smooth="yes"/>
      <point x="278" y="749"/>
      <point x="315" y="720"/>
      <point x="315" y="680" type="curve" smooth="yes"/>
      <point x="315" y="645"/>
      <point x="282" y="620"/>
      <point x="252" y="578" type="curve" smooth="yes"/>
      <point x="227" y="544"/>
      <point x="205" y="499"/>
      <point x="205" y="426" type="curve" smooth="yes"/>
      <point x="206" y="17" type="line" smooth="yes"/>
    </contour>
    <contour>
      <point x="322" y="680" type="move"/>
      <point x="821" y="680" type="line"/>
    </contour>
  </outline>
</glyph>
<glyph name="G" format="2">
  <advance width="1273"/>
  <unicode hex="0047"/>
  <note>
G
</note>
  <anchor x="672" y="0" name="bottom"/>
  <anchor x="662" y="1303" name="top"/>
  <outline>
    <contour>
      <point x="1028" y="1040" type="move"/>
      <point x="987" y="1182"/>
      <point x="858" y="1300"/>
      <point x="663" y="1300" type="curve" smooth="yes"/>
      <point x="405" y="1300"/>
      <point x="165" y="1074"/>
      <point x="165" y="666" type="curve" smooth="yes"/>
      <point x="165" y="219"/>
      <point x="438" y="16"/>
      <point x="680" y="16" type="curve" smooth="yes"/>
      <point x="887" y="16"/>
      <point x="1108" y="110"/>
      <point x="1108" y="348" type="curve" smooth="yes"/>
      <point x="1108" y="461" type="line" smooth="yes"/>
      <point x="1108" y="547"/>
      <point x="1069" y="592"/>
      <point x="1004" y="592" type="curve" smooth="yes"/>
      <point x="911" y="592"/>
      <point x="778" y="565"/>
      <point x="663" y="544" type="curve"/>
    </contour>
  </outline>
</glyph>
<glyph name="I" format="2">
  <advance width="490"/>
  <unicode hex="0049"/>
  <note>
I
</note>
  <anchor x="245" y="0" name="bottom"/>
  <anchor x="274" y="10" name="ogonek"/>
  <anchor x="245" y="1298" name="top"/>
  <anchor x="20" y="1292" name="topleft"/>
  <outline>
    <contour>
      <point x="245" y="1275" type="move"/>
      <point x="245" y="25" type="line"/>
    </contour>
  </outline>
</glyph>
<glyph name="K" format="2">
  <advance width="1082"/>
  <unicode hex="004B"/>
  <note>
K
</note>
  <anchor x="551" y="0" name="bottom"/>
  <anchor x="551" y="1292" name="top"/>
  <outline>
    <contour>
      <point x="205" y="1274" type="move"/>
      <point x="205" y="967" type="line" smooth="yes"/>
      <point x="205" y="902"/>
      <point x="222" y="857"/>
      <point x="243" y="822" type="curve" smooth="yes"/>
      <point x="275" y="769"/>
      <point x="315" y="739"/>
      <point x="315" y="698" type="curve" smooth="yes"/>
      <point x="315" y="661"/>
      <point x="289" y="637"/>
      <point x="262" y="605" type="curve" smooth="yes"/>
      <point x="234" y="571"/>
      <point x="205" y="529"/>
      <point x="205" y="453" type="curve" smooth="yes"/>
      <point x="205" y="20" type="line"/>
    </contour>
    <contour>
      <point x="845" y="1274" type="move"/>
      <point x="646" y="1021" type="line" smooth="yes"/>
      <point x="601" y="964"/>
      <point x="589" y="910"/>
      <point x="580" y="862" type="curve" smooth="yes"/>
      <point x="571" y="809"/>
      <point x="566" y="762"/>
      <point x="528" y="724" type="curve" smooth="yes"/>
      <point x="499" y="695"/>
      <point x="463" y="693"/>
      <point x="423" y="688" type="curve" smooth="yes"/>
      <point x="373" y="683"/>
      <point x="313" y="675"/>
      <point x="264" y="608" type="curve"/>
    </contour>
    <contour>
      <point x="535" y="697" type="move"/>
      <point x="957" y="20" type="line"/>
    </contour>
  </outline>
</glyph>
<glyph name="L" format="2">
  <advance width="897"/>
  <unicode hex="004C"/>
  <note>
L
</note>
  <anchor x="559" y="0" name="bottom"/>
  <anchor x="449" y="646" name="center"/>
  <anchor x="319" y="1277" name="top"/>
  <anchor x="607" y="1292" name="topright"/>
  <outline>
    <contour>
      <point x="245" y="1275" type="move"/>
      <point x="245" y="113" type="line" smooth="yes"/>
      <point x="245" y="50"/>
      <point x="267" y="25"/>
      <point x="322" y="25" type="curve" smooth="yes"/>
      <point x="812" y="25" type="line"/>
    </contour>
  </outline>
</glyph>
<glyph name="N" format="2">
  <advance width="1219"/>
  <unicode hex="004E"/>
  <note>
N
</note>
  <anchor x="608" y="0" name="bottom"/>
  <anchor x="608" y="1292" name="top"/>
  <outline>
    <contour>
      <point x="205" y="25" type="move"/>
      <point x="205" y="1044" type="line" smooth="yes"/>
      <point x="205" y="1168"/>
      <point x="303" y="1196"/>
      <point x="374" y="1076" type="curve" smooth="yes"/>
      <point x="860" y="253" type="line" smooth="yes"/>
      <point x="917" y="157"/>
      <point x="1003" y="149"/>
      <point x="1003" y="301" type="curve" smooth="yes"/>
      <point x="1003" y="1275" type="line"/>
    </contour>
    <contour>
      <point x="220" y="1298" type="move"/>
      <point x="259" y="1168" type="line"/>
    </contour>
    <contour>
      <point x="959" y="182" type="move"/>
      <point x="1014" y="4" type="line"/>
    </contour>
  </outline>
</glyph>
<glyph name="P" format="2">
  <advance width="1065"/>
  <unicode hex="0050"/>
  <note>
P
</note>
  <anchor x="533" y="0" name="bottom"/>
  <anchor x="533" y="1292" name="top"/>
  <outline>
    <contour>
      <point x="205" y="25" type="move"/>
      <point x="205" y="374" type="line" smooth="yes"/>
      <point x="205" y="431"/>
      <point x="238" y="469"/>
      <point x="268" y="503" type="curve" smooth="yes"/>
      <point x="291" y="530"/>
      <point x="312" y="554"/>
      <point x="312" y="583" type="curve" smooth="yes"/>
      <point x="312" y="619"/>
      <point x="278" y="653"/>
      <point x="249" y="693" type="curve" smooth="yes"/>
      <point x="226" y="725"/>
      <point x="205" y="763"/>
      <point x="205" y="809" type="curve" smooth="yes"/>
      <point x="205" y="1182" type="line" smooth="yes"/>
      <point x="205" y="1246"/>
      <point x="228" y="1275"/>
      <point x="301" y="1275" type="curve" smooth="yes"/>
      <point x="586" y="1275" type="line" smooth="yes"/>
      <point x="762" y="1275"/>
      <point x="930" y="1201"/>
      <point x="930" y="945" type="curve" smooth="yes"/>
      <point x="930" y="693"/>
      <point x="781" y="585"/>
      <point x="570" y="585" type="curve" smooth="yes"/>
      <point x="326" y="585" type="line"/>
    </contour>
  </outline>
</glyph>
<glyph name="R" format="2">
  <advance width="1175"/>
  <unicode hex="0052"/>
  <note>
R
</note>
  <anchor x="587" y="0" name="bottom"/>
  <anchor x="587" y="1278" name="top"/>
  <outline>
    <contour>
      <point x="205" y="24" type="move"/>
      <point x="205" y="385" type="line" smooth="yes"/>
      <point x="205" y="459"/>
      <point x="235" y="502"/>
      <point x="263" y="535" type="curve" smooth="yes"/>
      <point x="290" y="566"/>
      <point x="315" y="588"/>
      <point x="315" y="620" type="curve" smooth="yes"/>
      <point x="315" y="660"/>
      <point x="278" y="692"/>
      <point x="247" y="741" type="curve" smooth="yes"/>
      <point x="225" y="775"/>
      <point x="205" y="819"/>
      <point x="205" y="879" type="curve" smooth="yes"/>
      <point x="205" y="1198" type="line" smooth="yes"/>
      <point x="205" y="1252"/>
      <point x="229" y="1275"/>
      <point x="282" y="1275" type="curve" smooth="yes"/>
      <point x="640" y="1275" type="line" smooth="yes"/>
      <point x="829" y="1275"/>
      <point x="991" y="1205"/>
      <point x="991" y="961" type="curve" smooth="yes"/>
      <point x="991" y="779"/>
      <point x="915" y="752"/>
      <point x="864" y="691" type="curve" smooth="yes"/>
      <point x="848" y="673"/>
      <point x="836" y="649"/>
      <point x="823" y="629" type="curve" smooth="yes"/>
      <point x="807" y="600"/>
      <point x="790" y="576"/>
      <point x="765" y="570" type="curve" smooth="yes"/>
      <point x="739" y="564"/>
      <point x="708" y="580"/>
      <point x="671" y="597" type="curve" smooth="yes"/>
      <point x="639" y="611"/>
      <point x="602" y="625"/>
      <point x="559" y="625" type="curve" smooth="yes"/>
      <point x="336" y="625" type="line"/>
    </contour>
    <contour>
      <point x="770" y="566" type="move"/>
      <point x="773" y="480"/>
      <point x="802" y="399"/>
      <point x="841" y="324" type="curve" smooth="yes"/>
      <point x="996" y="25" type="line"/>
    </contour>
  </outline>
</glyph>
<glyph name="S" format="2">
  <advance width="1073"/>
  <unicode hex="0053"/>
  <note>
S
</note>
  <anchor x="547" y="0" name="bottom"/>
  <anchor x="545" y="1302" name="top"/>
  <outline>
    <contour>
      <point x="887" y="1075" type="move"/>
      <point x="841" y="1196"/>
      <point x="753" y="1298"/>
      <point x="538" y="1298" type="curve" smooth="yes"/>
      <point x="364" y="1298"/>
      <point x="205" y="1201"/>
      <point x="205" y="1022" type="curve" smooth="yes"/>
      <point x="205" y="803"/>
      <point x="386" y="743"/>
      <point x="567" y="683" type="curve" smooth="yes"/>
      <point x="747" y="622"/>
      <point x="928" y="559"/>
      <point x="928" y="344" type="curve" smooth="yes"/>
      <point x="928" y="119"/>
      <point x="763" y="0"/>
      <point x="547" y="0" type="curve" smooth="yes"/>
      <point x="366" y="0"/>
      <point x="195" y="104"/>
      <point x="145" y="236" type="curve" smooth="yes"/>
    </contour>
  </outline>
</glyph>
<glyph name="U" format="2">
  <advance width="1199"/>
  <unicode hex="0055"/>
  <note>
U
</note>
  <anchor x="600" y="0" name="bottom"/>
  <anchor x="660" y="-13" name="ogonek"/>
  <anchor x="600" y="1292" name="top"/>
  <anchor x="1179" y="1292" name="topright"/>
  <outline>
    <contour>
      <point x="205" y="1275" type="move"/>
      <point x="205" y="509" type="line" smooth="yes"/>
      <point x="205" y="207"/>
      <point x="335" y="0"/>
      <point x="593" y="0" type="curve" smooth="yes"/>
      <point x="857" y="0"/>
      <point x="994" y="207"/>
      <point x="994" y="509" type="curve" smooth="yes"/>
      <point x="994" y="1275" type="line"/>
    </contour>
  </outline>
</glyph>
<glyph name="X" format="2">
  <advance width="1027"/>
  <unicode hex="0058"/>
  <note>
X
</note>
  <anchor x="514" y="0" name="bottom"/>
  <anchor x="514" y="1292" name="top"/>
  <outline>
    <contour>
      <point x="165" y="1275" type="move"/>
      <point x="430" y="848" type="line" smooth="yes"/>
      <point x="486" y="758"/>
      <point x="548" y="755"/>
      <point x="604" y="849" type="curve" smooth="yes"/>
      <point x="857" y="1275" type="line"/>
    </contour>
    <contour>
      <point x="522" y="761" type="move"/>
      <point x="522" y="653"/>
      <point x="584" y="574"/>
      <point x="626" y="501" type="curve" smooth="yes"/>
      <point x="902" y="25" type="line"/>
    </contour>
    <contour>
      <point x="560" y="599" type="move"/>
      <point x="471" y="609"/>
      <point x="397" y="523"/>
      <point x="357" y="450" type="curve" smooth="yes"/>
      <point x="125" y="25" type="line"/>
    </contour>
  </outline>
</glyph>
<glyph name="bracketleft" format="2">
  <advance width="467"/>
  <unicode hex="005B"/>
  <note>
bracketleft
</note>
  <outline>
    <contour>
      <point x="351" y="1394" type="move"/>
      <point x="249" y="1394" type="line" smooth="yes"/>
      <point x="163" y="1394"/>
      <point x="147" y="1368"/>
      <point x="147" y="1283" type="curve" smooth="yes"/>
      <point x="143" y="-266" type="line" smooth="yes"/>
      <point x="143" y="-350"/>
      <point x="164" y="-373"/>
      <point x="239" y="-373" type="curve" smooth="yes"/>
      <point x="346" y="-373" type="line"/>
    </contour>
  </outline>
</glyph>
<glyph name="backslash" format="2">
  <advance width="467"/>
  <unicode hex="005C"/>
  <note>
backslash
</note>
  <outline>
    <contour>
      <point x="331" y="19" type="move"/>
      <point x="229" y="480"/>
      <point x="35" y="1363"/>
      <point x="27" y="1402" type="curve"/>
    </contour>
  </outline>
</glyph>
<glyph name="underscore" format="2">
  <advance width="1054"/>
  <unicode hex="005F"/>
  <note>
underscore
</note>
  <outline>
    <contour>
      <point x="95" y="-365" type="move"/>
      <point x="949" y="-365" type="line"/>
    </contour>
  </outline>
</glyph>
<glyph name="a" format="2">
  <advance width="956"/>
  <unicode hex="0061"/>
  <note>
a
</note>
  <anchor x="478" y="0" name="bottom"/>
  <anchor x="880" y="13" name="ogonek"/>
  <anchor x="478" y="1008" name="top"/>
  <outline>
    <contour>
      <point x="198" y="824" type="move"/>
      <point x="237" y="943"/>
      <point x="328" y="1002"/>
      <point x="446" y="1002" type="curve" smooth="yes"/>
      <point x="613" y="1002"/>
      <point x="699" y="875"/>
      <point x="699" y="733" type="curve" smooth="yes"/>
      <point x="699" y="705"/>
      <point x="693" y="682"/>
      <point x="687" y="662" type="curve" smooth="yes"/>
      <point x="677" y="631"/>
      <point x="664" y="606"/>
      <point x="664" y="580" type="curve" smooth="yes"/>
      <point x="664" y="556"/>
      <point x="676" y="537"/>
      <point x="687" y="512" type="curve" smooth="yes"/>
      <point x="697" y="490"/>
      <point x="706" y="464"/>
      <point x="706" y="428" type="curve" smooth="yes"/>
      <point x="706" y="393"/>
      <point x="694" y="366"/>
      <point x="683" y="340" type="curve" smooth="yes"/>
      <point x="673" y="317"/>
      <point x="659" y="294"/>
      <point x="663" y="262" type="curve" smooth="yes"/>
      <point x="667" y="227"/>
      <point x="709" y="186"/>
      <point x="722" y="156" type="curve" smooth="yes"/>
      <point x="736" y="123"/>
      <point x="732" y="84"/>
      <point x="760" y="52" type="curve" smooth="yes"/>
      <point x="778" y="32"/>
      <point x="805" y="20"/>
      <point x="851" y="27" type="curve"/>
    </contour>
    <contour>
      <point x="661" y="573" type="move"/>
      <point x="482" y="573" type="line" smooth="yes"/>
      <point x="359" y="573"/>
      <point x="264" y="547"/>
      <point x="204" y="490" type="curve" smooth="yes"/>
      <point x="152" y="441"/>
      <point x="125" y="369"/>
      <point x="125" y="270" type="curve" smooth="yes"/>
      <point x="125" y="194"/>
      <point x="143" y="126"/>
      <point x="182" y="79" type="curve" smooth="yes"/>
      <point x="215" y="37"/>
      <point x="264" y="12"/>
      <point x="330" y="12" type="curve" smooth="yes"/>
      <point x="436" y="12"/>
      <point x="483" y="79"/>
      <point x="529" y="145" type="curve" smooth="yes"/>
      <point x="565" y="196"/>
      <point x="601" y="247"/>
      <point x="664" y="266" type="curve" smooth="yes"/>
    </contour>
  </outline>
</glyph>
<glyph name="c" format="2">
  <advance width="827"/>
  <unicode hex="0063"/>
  <note>
c
</note>
  <anchor x="414" y="0" name="bottom"/>
  <anchor x="415" y="997" name="top"/>
  <outline>
    <contour>
      <point x="675" y="782" type="move"/>
      <point x="660" y="907"/>
      <point x="579" y="990"/>
      <point x="437" y="990" type="curve" smooth="yes"/>
      <point x="290" y="990"/>
      <point x="155" y="861"/>
      <point x="155" y="529" type="curve" smooth="yes"/>
      <point x="155" y="197"/>
      <point x="263" y="31"/>
      <point x="449" y="31" type="curve" smooth="yes"/>
      <point x="629" y="31"/>
      <point x="690" y="168"/>
      <point x="702" y="247" type="curve" smooth="yes"/>
    </contour>
  </outline>
</glyph>
<glyph name="e" format="2">
  <advance width="884"/>
  <unicode hex="0065"/>
  <note>
e
</note>
  <anchor x="442" y="0" name="bottom"/>
  <anchor x="500" y="2" name="ogonek"/>
  <anchor x="442" y="1005" name="top"/>
  <outline>
    <contour>
      <point x="212" y="547" type="move"/>
      <point x="600" y="547" type="line" smooth="yes"/>
      <point x="699" y="547"/>
      <point x="759" y="584"/>
      <point x="759" y="697" type="curve" smooth="yes"/>
      <point x="759" y="855"/>
      <point x="641" y="1003"/>
      <point x="467" y="1003" type="curve" smooth="yes"/>
      <point x="279" y="1003"/>
      <point x="182" y="860"/>
      <point x="161" y="746" type="curve" smooth="yes"/>
      <point x="144" y="653"/>
      <point x="204" y="603"/>
      <point x="204" y="544" type="curve" smooth="yes"/>
      <point x="204" y="495"/>
      <point x="155" y="450"/>
      <point x="155" y="361" type="curve" smooth="yes"/>
      <point x="155" y="205"/>
      <point x="249" y="17"/>
      <point x="463" y="17" type="curve" smooth="yes"/>
      <point x="620" y="17"/>
      <point x="702" y="154"/>
      <point x="730" y="233" type="curve" smooth="yes"/>
    </contour>
  </outline>
</glyph>
<glyph name="k" format="2">
  <advance width="845"/>
  <unicode hex="006B"/>
  <note>
k
</note>
  <anchor x="428" y="0" name="bottom"/>
  <anchor x="428" y="1371" name="top"/>
  <outline>
    <contour identifier="ID0x7fc43bba4f10">
      <point x="205" y="24" type="move"/>
      <point x="205" y="248" type="line" smooth="yes"/>
      <point x="205" y="356"/>
      <point x="268" y="413"/>
      <point x="268" y="475" type="curve" smooth="yes"/>
      <point x="268" y="539"/>
      <point x="205" y="594"/>
      <point x="205" y="711" type="curve" smooth="yes"/>
      <point x="205" y="1346" type="line"/>
    </contour>
    <contour>
      <point x="277" y="476" type="move"/>
      <point x="322" y="504"/>
      <point x="393" y="482"/>
      <point x="432" y="518" type="curve" smooth="yes"/>
      <point x="479" y="561"/>
      <point x="440" y="650"/>
      <point x="509" y="741" type="curve" smooth="yes"/>
      <point x="714" y="1009" type="line"/>
    </contour>
    <contour>
      <point x="433" y="508" type="move"/>
      <point x="491" y="479"/>
      <point x="545" y="378"/>
      <point x="604" y="271" type="curve" smooth="yes"/>
      <point x="740" y="24" type="line"/>
    </contour>
  </outline>
</glyph>
<glyph name="n" format="2">
  <advance width="926"/>
  <unicode hex="006E"/>
  <note>
n
</note>
  <anchor x="463" y="0" name="bottom"/>
  <anchor x="463" y="1005" name="top"/>
  <outline>
    <contour identifier="ID0x7fc43b852950">
      <point x="741" y="25" type="move"/>
      <point x="741" y="599" type="line" smooth="yes"/>
      <point x="741" y="834"/>
      <point x="719" y="994"/>
      <point x="531" y="994" type="curve" smooth="yes"/>
      <point x="392" y="994"/>
      <point x="344" y="881"/>
      <point x="244" y="810" type="curve" smooth="yes"/>
    </contour>
    <component base="_fut2" xOffset="47" identifier="BC4ED777"/>
  </outline>
</glyph>
<glyph name="p" format="2">
  <advance width="922"/>
  <unicode hex="0070"/>
  <note>
p
</note>
  <anchor x="461" y="0" name="bottom"/>
  <anchor x="461" y="1005" name="top"/>
  <outline>
    <component base="_fut" xScale="-1" yScale="-1" xOffset="872" yOffset="1032" identifier="B18D409E"/>
    <contour>
      <point x="242" y="780" type="move"/>
      <point x="295" y="780"/>
      <point x="330" y="847"/>
      <point x="380" y="907" type="curve" smooth="yes"/>
      <point x="419" y="954"/>
      <point x="468" y="997"/>
      <point x="542" y="997" type="curve" smooth="yes"/>
      <point x="612" y="997"/>
      <point x="660" y="961"/>
      <point x="694" y="906" type="curve" smooth="yes"/>
      <point x="755" y="805"/>
      <point x="767" y="640"/>
      <point x="767" y="513" type="curve" smooth="yes"/>
      <point x="767" y="331"/>
      <point x="737" y="194"/>
      <point x="691" y="117" type="curve" smooth="yes"/>
      <point x="648" y="46"/>
      <point x="591" y="15"/>
      <point x="532" y="15" type="curve" smooth="yes"/>
      <point x="459" y="15"/>
      <point x="419" y="60"/>
      <point x="380" y="106" type="curve" smooth="yes"/>
      <point x="341" y="152"/>
      <point x="304" y="212"/>
      <point x="237" y="212" type="curve" smooth="yes"/>
    </contour>
  </outline>
</glyph>
<glyph name="r" format="2">
  <advance width="614"/>
  <unicode hex="0072"/>
  <note>
r
</note>
  <anchor x="230" y="0" name="bottom"/>
  <anchor x="298" y="1015" name="top"/>
  <outline>
    <component base="_fut2" xOffset="47" yOffset="-3" identifier="CCE9FE64"/>
    <contour>
      <point x="534" y="931" type="move"/>
      <point x="499" y="952"/>
      <point x="455" y="965"/>
      <point x="420" y="948" type="curve" smooth="yes"/>
      <point x="375" y="926"/>
      <point x="341" y="845"/>
      <point x="309" y="819" type="curve" smooth="yes"/>
      <point x="290" y="804"/>
      <point x="273" y="798"/>
      <point x="251" y="803" type="curve" smooth="yes"/>
    </contour>
  </outline>
</glyph>
<glyph name="w" format="2">
  <advance width="1295"/>
  <unicode hex="0077"/>
  <note>
w
</note>
  <anchor x="648" y="0" name="bottom"/>
  <anchor x="648" y="1005" name="top"/>
  <outline>
    <contour>
      <point x="130" y="985" type="move"/>
      <point x="309" y="90" type="line" smooth="yes"/>
      <point x="320" y="35"/>
      <point x="345" y="8"/>
      <point x="371" y="8" type="curve" smooth="yes"/>
      <point x="396" y="8"/>
      <point x="422" y="36"/>
      <point x="434" y="94" type="curve" smooth="yes"/>
      <point x="591" y="879" type="line" smooth="yes"/>
      <point x="600" y="925"/>
      <point x="620" y="952"/>
      <point x="649" y="952" type="curve" smooth="yes"/>
      <point x="679" y="952"/>
      <point x="696" y="925"/>
      <point x="705" y="879" type="curve" smooth="yes"/>
      <point x="854" y="90" type="line" smooth="yes"/>
      <point x="864" y="35"/>
      <point x="889" y="8"/>
      <point x="915" y="8" type="curve" smooth="yes"/>
      <point x="941" y="8"/>
      <point x="967" y="36"/>
      <point x="979" y="94" type="curve" smooth="yes"/>
      <point x="1165" y="983" type="line"/>
    </contour>
  </outline>
</glyph>
<glyph name="z" format="2">
  <advance width="852"/>
  <unicode hex="007A"/>
  <note>
z
</note>
  <anchor x="426" y="0" name="bottom"/>
  <anchor x="426" y="503" name="center"/>
  <anchor x="402" y="987" name="top"/>
  <outline>
    <contour>
      <point x="157" y="975" type="move"/>
      <point x="574" y="975" type="line" smooth="yes"/>
      <point x="632" y="975"/>
      <point x="665" y="941"/>
      <point x="665" y="894" type="curve" smooth="yes"/>
      <point x="665" y="865"/>
      <point x="653" y="833"/>
      <point x="628" y="800" type="curve" smooth="yes"/>
      <point x="177" y="211" type="line" smooth="yes"/>
      <point x="143" y="166"/>
      <point x="125" y="123"/>
      <point x="125" y="90" type="curve" smooth="yes"/>
      <point x="125" y="51"/>
      <point x="151" y="25"/>
      <point x="203" y="25" type="curve" smooth="yes"/>
      <point x="712" y="25" type="line"/>
    </contour>
  </outline>
</glyph>
<glyph name="exclamdown" format="2">
  <advance width="372"/>
  <unicode hex="00A1"/>
  <note>
exclamdown
</note>
  <outline>
    <contour>
      <point x="189" y="746" type="move"/>
      <point x="189" y="-192" type="line"/>
    </contour>
    <component base="dotaccentcomb" yScale="-1" xOffset="42" yOffset="2228"/>
  </outline>
</glyph>
<glyph name="sterling" format="2">
  <advance width="974"/>
  <unicode hex="00A3"/>
  <note>
sterling
</note>
  <outline>
    <contour>
      <point x="777" y="1205" type="move"/>
      <point x="741" y="1257"/>
      <point x="664" y="1321"/>
      <point x="541" y="1321" type="curve" smooth="yes"/>
      <point x="389" y="1321"/>
      <point x="312" y="1187"/>
      <point x="306" y="1002" type="curve" smooth="yes"/>
      <point x="301" y="845"/>
      <point x="287" y="707"/>
      <point x="336" y="672" type="curve" smooth="yes"/>
      <point x="361" y="654"/>
      <point x="396" y="648"/>
      <point x="434" y="647" type="curve" smooth="yes"/>
      <point x="506" y="646"/>
      <point x="590" y="664"/>
      <point x="641" y="665" type="curve"/>
    </contour>
    <contour>
      <point x="125" y="640" type="move"/>
      <point x="166" y="638"/>
      <point x="208" y="655"/>
      <point x="245" y="668" type="curve" smooth="yes"/>
      <point x="282" y="681"/>
      <point x="315" y="691"/>
      <point x="335" y="672" type="curve" smooth="yes"/>
      <point x="360" y="648"/>
      <point x="346" y="533"/>
      <point x="313" y="413" type="curve" smooth="yes"/>
      <point x="288" y="321"/>
      <point x="249" y="228"/>
      <point x="216" y="170" type="curve" smooth="yes"/>
      <point x="173" y="94"/>
      <point x="197" y="50"/>
      <point x="282" y="50" type="curve" smooth="yes"/>
      <point x="523" y="50" type="line" smooth="yes"/>
      <point x="692" y="50"/>
      <point x="804" y="113"/>
      <point x="849" y="226" type="curve"/>
    </contour>
  </outline>
</glyph>
<glyph name="yen" format="2">
  <advance width="966"/>
  <unicode hex="00A5"/>
  <note>
yen
</note>
  <outline>
    <contour>
      <point x="125" y="1309" type="move"/>
      <point x="404" y="772" type="line" smooth="yes"/>
      <point x="467" y="651"/>
      <point x="505" y="650"/>
      <point x="566" y="772" type="curve" smooth="yes"/>
      <point x="841" y="1322" type="line"/>
    </contour>
    <contour>
      <point x="483" y="661" type="move"/>
      <point x="483" y="44" type="line"/>
    </contour>
    <contour>
      <point x="157" y="536" type="move"/>
      <point x="281" y="537" type="line" smooth="yes"/>
      <point x="388" y="538"/>
      <point x="451" y="665"/>
      <point x="486" y="665" type="curve" smooth="yes"/>
      <point x="515" y="665"/>
      <point x="577" y="536"/>
      <point x="709" y="537" type="curve" smooth="yes"/>
      <point x="814" y="538" type="line"/>
    </contour>
    <contour>
      <point x="153" y="348" type="move"/>
      <point x="814" y="348" type="line"/>
    </contour>
  </outline>
</glyph>
<glyph name="brokenbar" format="2">
  <advance width="250"/>
  <unicode hex="00A6"/>
  <note>
brokenbar
</note>
  <outline>
    <contour>
      <point x="125" y="247" type="move"/>
      <point x="125" y="-342" type="line"/>
    </contour>
    <contour>
      <point x="125" y="1346" type="move"/>
      <point x="125" y="753" type="line" smooth="yes"/>
    </contour>
  </outline>
</glyph>
<glyph name="ordfeminine" format="2">
  <advance width="739"/>
  <unicode hex="00AA"/>
  <note>
ordfeminine
</note>
  <anchor x="364" y="804" name="bottom"/>
  <anchor x="602" y="811" name="ogonek"/>
  <anchor x="364" y="1397" name="top"/>
  <outline>
    <contour identifier="ID0x126c3bda0">
      <point x="199" y="1290" type="move"/>
      <point x="222" y="1360"/>
      <point x="276" y="1396"/>
      <point x="345" y="1396" type="curve" smooth="yes"/>
      <point x="444" y="1396"/>
      <point x="495" y="1321"/>
      <point x="495" y="1237" type="curve" smooth="yes"/>
      <point x="495" y="1220"/>
      <point x="491" y="1206"/>
      <point x="487" y="1195" type="curve" smooth="yes"/>
      <point x="481" y="1176"/>
      <point x="473" y="1162"/>
      <point x="473" y="1147" type="curve" smooth="yes"/>
      <point x="473" y="1133"/>
      <point x="481" y="1121"/>
      <point x="487" y="1106" type="curve" smooth="yes"/>
      <point x="494" y="1093"/>
      <point x="499" y="1078"/>
      <point x="499" y="1056" type="curve" smooth="yes"/>
      <point x="499" y="1036"/>
      <point x="491" y="1020"/>
      <point x="485" y="1004" type="curve" smooth="yes"/>
      <point x="480" y="992"/>
      <point x="471" y="978"/>
      <point x="473" y="959" type="curve" smooth="yes"/>
      <point x="476" y="938"/>
      <point x="500" y="913"/>
      <point x="507" y="895" type="curve" smooth="yes"/>
      <point x="516" y="876"/>
      <point x="514" y="853"/>
      <point x="530" y="834" type="curve" smooth="yes"/>
      <point x="541" y="822"/>
      <point x="557" y="815"/>
      <point x="584" y="819" type="curve"/>
    </contour>
    <contour>
      <point x="472" y="1143" type="move"/>
      <point x="366" y="1143" type="line" smooth="yes"/>
      <point x="294" y="1143"/>
      <point x="238" y="1126"/>
      <point x="203" y="1093" type="curve" smooth="yes"/>
      <point x="172" y="1064"/>
      <point x="155" y="1022"/>
      <point x="155" y="964" type="curve" smooth="yes"/>
      <point x="155" y="919"/>
      <point x="167" y="878"/>
      <point x="190" y="850" type="curve" smooth="yes"/>
      <point x="209" y="825"/>
      <point x="238" y="810"/>
      <point x="276" y="810" type="curve" smooth="yes"/>
      <point x="340" y="810"/>
      <point x="366" y="850"/>
      <point x="394" y="889" type="curve" smooth="yes"/>
      <point x="416" y="920"/>
      <point x="436" y="950"/>
      <point x="473" y="961" type="curve" smooth="yes"/>
    </contour>
  </outline>
</glyph>
<glyph name="registered" format="2">
  <advance width="1258"/>
  <unicode hex="00AE"/>
  <note>
registered
</note>
  <outline>
    <contour>
      <point x="629" y="1354" type="curve" smooth="yes"/>
      <point x="1045" y="1354"/>
      <point x="1110" y="1042"/>
      <point x="1120" y="978" type="curve" smooth="yes"/>
      <point x="1131" y="914"/>
      <point x="1113" y="842"/>
      <point x="1092" y="799" type="curve" smooth="yes"/>
      <point x="1066" y="745"/>
      <point x="1032" y="702"/>
      <point x="1032" y="657" type="curve" smooth="yes"/>
      <point x="1032" y="615"/>
      <point x="1063" y="582"/>
      <point x="1092" y="539" type="curve" smooth="yes"/>
      <point x="1118" y="501"/>
      <point x="1133" y="466"/>
      <point x="1133" y="404" type="curve" smooth="yes"/>
      <point x="1133" y="341"/>
      <point x="1050" y="29"/>
      <point x="629" y="29" type="curve" smooth="yes"/>
      <point x="208" y="29"/>
      <point x="125" y="341"/>
      <point x="125" y="404" type="curve" smooth="yes"/>
      <point x="125" y="466"/>
      <point x="140" y="501"/>
      <point x="166" y="539" type="curve" smooth="yes"/>
      <point x="195" y="582"/>
      <point x="226" y="615"/>
      <point x="226" y="657" type="curve" smooth="yes"/>
      <point x="226" y="702"/>
      <point x="192" y="745"/>
      <point x="166" y="799" type="curve" smooth="yes"/>
      <point x="145" y="842"/>
      <point x="127" y="914"/>
      <point x="138" y="978" type="curve" smooth="yes"/>
      <point x="148" y="1042"/>
      <point x="213" y="1354"/>
    </contour>
    <contour>
      <point x="445" y="387" type="move"/>
      <point x="445" y="570" type="line" smooth="yes"/>
      <point x="445" y="632"/>
      <point x="501" y="649"/>
      <point x="500" y="690" type="curve" smooth="yes"/>
      <point x="499" y="728"/>
      <point x="445" y="761"/>
      <point x="445" y="824" type="curve" smooth="yes"/>
      <point x="444" y="989" type="line" smooth="yes"/>
      <point x="444" y="1017"/>
      <point x="456" y="1029"/>
      <point x="483" y="1029" type="curve" smooth="yes"/>
      <point x="664" y="1028" type="line" smooth="yes"/>
      <point x="760" y="1027"/>
      <point x="840" y="992"/>
      <point x="842" y="861" type="curve" smooth="yes"/>
      <point x="843" y="773"/>
      <point x="803" y="759"/>
      <point x="777" y="728" type="curve" smooth="yes"/>
      <point x="767" y="716"/>
      <point x="753" y="670"/>
      <point x="727" y="665" type="curve" smooth="yes"/>
      <point x="699" y="660"/>
      <point x="664" y="693"/>
      <point x="609" y="693" type="curve" smooth="yes"/>
      <point x="510" y="693" type="line"/>
    </contour>
    <contour>
      <point x="730" y="663" type="move"/>
      <point x="732" y="618"/>
      <point x="745" y="577"/>
      <point x="765" y="538" type="curve" smooth="yes"/>
      <point x="844" y="388" type="line"/>
    </contour>
  </outline>
</glyph>
<glyph name="degree" format="2">
  <advance width="694"/>
  <unicode hex="00B0"/>
  <note>
degree
</note>
  <outline>
    <contour>
      <point x="553" y="1219" type="curve" smooth="yes"/>
      <point x="573" y="1195"/>
      <point x="569" y="1168"/>
      <point x="569" y="1136" type="curve" smooth="yes"/>
      <point x="569" y="988"/>
      <point x="465" y="897"/>
      <point x="349" y="897" type="curve" smooth="yes"/>
      <point x="263" y="897"/>
      <point x="125" y="959"/>
      <point x="125" y="1136" type="curve" smooth="yes"/>
      <point x="125" y="1294"/>
      <point x="262" y="1345"/>
      <point x="349" y="1345" type="curve" smooth="yes"/>
      <point x="376" y="1345"/>
      <point x="421" y="1352"/>
      <point x="449" y="1323" type="curve" smooth="yes"/>
      <point x="472" y="1299"/>
      <point x="472" y="1270"/>
      <point x="489" y="1253" type="curve" smooth="yes"/>
      <point x="507" y="1235"/>
      <point x="535" y="1241"/>
    </contour>
  </outline>
</glyph>
<glyph name="paragraph" format="2">
  <advance width="945"/>
  <unicode hex="00B6"/>
  <note>
paragraph
</note>
  <outline>
    <contour>
      <point x="485" y="631" type="move"/>
      <point x="247" y="631"/>
      <point x="125" y="762"/>
      <point x="125" y="976" type="curve" smooth="yes"/>
      <point x="125" y="1227"/>
      <point x="324" y="1328"/>
      <point x="549" y="1331" type="curve" smooth="yes"/>
      <point x="724" y="1333" type="line" smooth="yes"/>
      <point x="797" y="1334"/>
      <point x="820" y="1304"/>
      <point x="820" y="1239" type="curve" smooth="yes"/>
      <point x="820" y="858" type="line" smooth="yes"/>
      <point x="820" y="811"/>
      <point x="799" y="773"/>
      <point x="776" y="741" type="curve" smooth="yes"/>
      <point x="747" y="700"/>
      <point x="713" y="666"/>
      <point x="713" y="629" type="curve" smooth="yes"/>
      <point x="713" y="600"/>
      <point x="734" y="575"/>
      <point x="757" y="548" type="curve" smooth="yes"/>
      <point x="787" y="514"/>
      <point x="820" y="475"/>
      <point x="820" y="402" type="curve" smooth="yes"/>
      <point x="820" y="-222" type="line"/>
    </contour>
    <contour>
      <point x="592" y="1332" type="move"/>
      <point x="592" y="868" type="line" smooth="yes"/>
      <point x="592" y="821"/>
      <point x="571" y="783"/>
      <point x="548" y="751" type="curve" smooth="yes"/>
      <point x="519" y="710"/>
      <point x="485" y="676"/>
      <point x="485" y="639" type="curve" smooth="yes"/>
      <point x="485" y="610"/>
      <point x="506" y="585"/>
      <point x="529" y="558" type="curve" smooth="yes"/>
      <point x="559" y="524"/>
      <point x="592" y="485"/>
      <point x="592" y="402" type="curve" smooth="yes"/>
      <point x="592" y="-222" type="line"/>
    </contour>
  </outline>
</glyph>
<glyph name="onesuperior" format="2">
  <advance width="605"/>
  <unicode hex="00B9"/>
  <note>
uni00B9
</note>
  <outline>
    <contour identifier="ID0x132545240">
      <point x="120" y="1092" type="move"/>
      <point x="203" y="1092"/>
      <point x="262" y="1166"/>
      <point x="282" y="1241" type="curve"/>
    </contour>
    <contour>
      <point x="133" y="601" type="move"/>
      <point x="485" y="601" type="line"/>
    </contour>
    <contour>
      <point x="316" y="1346" type="move"/>
      <point x="316" y="1321"/>
      <point x="308" y="1304"/>
      <point x="301" y="1290" type="curve" smooth="yes"/>
      <point x="293" y="1273"/>
      <point x="282" y="1258"/>
      <point x="282" y="1235" type="curve" smooth="yes"/>
      <point x="282" y="1214"/>
      <point x="291" y="1199"/>
      <point x="299" y="1178" type="curve" smooth="yes"/>
      <point x="307" y="1156"/>
      <point x="316" y="1125"/>
      <point x="316" y="1067" type="curve" smooth="yes"/>
      <point x="316" y="608" type="line"/>
    </contour>
  </outline>
</glyph>
<glyph name="ordmasculine" format="2">
  <advance width="700"/>
  <unicode hex="00BA"/>
  <note>
ordmasculine
</note>
  <anchor x="350" y="793" name="bottom"/>
  <anchor x="350" y="1102" name="center"/>
  <anchor x="582" y="799" name="ogonek"/>
  <anchor x="350" y="1413" name="top"/>
  <anchor x="628" y="1413" name="topright"/>
  <outline>
    <contour identifier="ID0x126c3d890">
      <point x="353" y="800" type="curve" smooth="yes"/>
      <point x="484" y="800"/>
      <point x="545" y="917"/>
      <point x="545" y="1104" type="curve" smooth="yes"/>
      <point x="545" y="1310"/>
      <point x="481" y="1406"/>
      <point x="353" y="1406" type="curve" smooth="yes"/>
      <point x="222" y="1406"/>
      <point x="155" y="1308"/>
      <point x="155" y="1104" type="curve" smooth="yes"/>
      <point x="155" y="926"/>
      <point x="210" y="800"/>
    </contour>
  </outline>
</glyph>
<glyph name="questiondown" format="2">
  <advance width="836"/>
  <unicode hex="00BF"/>
  <note>
questiondown
</note>
  <outline>
    <component base="dotaccentcomb" xScale="-1" yScale="-1" xOffset="581" yOffset="2226"/>
    <contour>
      <point x="441" y="700" type="move"/>
      <point x="451" y="522"/>
      <point x="347" y="426"/>
      <point x="259" y="315" type="curve" smooth="yes"/>
      <point x="188" y="229"/>
      <point x="125" y="133"/>
      <point x="125" y="-19" type="curve" smooth="yes"/>
      <point x="125" y="-188"/>
      <point x="259" y="-287"/>
      <point x="412" y="-287" type="curve" smooth="yes"/>
      <point x="597" y="-287"/>
      <point x="746" y="-117"/>
      <point x="702" y="67" type="curve" smooth="yes"/>
    </contour>
  </outline>
</glyph>
<glyph name="AE" format="2">
  <advance width="1766"/>
  <unicode hex="00C6"/>
  <note>
AE
</note>
  <anchor x="883" y="0" name="bottom"/>
  <anchor x="1213" y="1279" name="top"/>
  <outline>
    <contour>
      <point x="135" y="28" type="move"/>
      <point x="248" y="342" type="line" smooth="yes"/>
      <point x="277" y="423"/>
      <point x="358" y="430"/>
      <point x="375" y="475" type="curve" smooth="yes"/>
      <point x="389" y="513"/>
      <point x="346" y="604"/>
      <point x="380" y="685" type="curve" smooth="yes"/>
      <point x="579" y="1153" type="line" smooth="yes"/>
      <point x="618" y="1245"/>
      <point x="660" y="1275"/>
      <point x="733" y="1275" type="curve" smooth="yes"/>
      <point x="944" y="1275" type="line"/>
    </contour>
    <contour>
      <point x="791" y="475" type="move"/>
      <point x="375" y="475" type="line"/>
    </contour>
    <contour identifier="ID0x15668c500">
      <point x="1585" y="1275" type="move"/>
      <point x="947" y="1275" type="line" smooth="yes"/>
      <point x="894" y="1275"/>
      <point x="870" y="1275"/>
      <point x="870" y="1198" type="curve" smooth="yes"/>
      <point x="870" y="959" type="line" smooth="yes"/>
      <point x="870" y="885"/>
      <point x="895" y="837"/>
      <point x="921" y="800" type="curve" smooth="yes"/>
      <point x="950" y="759"/>
      <point x="980" y="731"/>
      <point x="980" y="694" type="curve" smooth="yes"/>
      <point x="980" y="652"/>
      <point x="940" y="616"/>
      <point x="898" y="583" type="curve" smooth="yes"/>
      <point x="850" y="545"/>
      <point x="800" y="508"/>
      <point x="800" y="465" type="curve" smooth="yes"/>
      <point x="800" y="438"/>
      <point x="821" y="415"/>
      <point x="841" y="385" type="curve" smooth="yes"/>
      <point x="856" y="361"/>
      <point x="870" y="331"/>
      <point x="870" y="290" type="curve" smooth="yes"/>
      <point x="870" y="119" type="line" smooth="yes"/>
      <point x="870" y="57"/>
      <point x="893" y="25"/>
      <point x="950" y="25" type="curve" smooth="yes"/>
      <point x="1625" y="25" type="line"/>
    </contour>
    <contour>
      <point x="984" y="694" type="move"/>
      <point x="1520" y="694" type="line"/>
    </contour>
  </outline>
</glyph>
<glyph name="Eth" format="2">
  <advance width="1360"/>
  <unicode hex="00D0"/>
  <note>
Eth
</note>
  <anchor x="680" y="0" name="bottom"/>
  <anchor x="680" y="1292" name="top"/>
  <outline>
    <component base="D" xOffset="155"/>
    <contour>
      <point x="195" y="689" type="move"/>
      <point x="641" y="690" type="line"/>
    </contour>
  </outline>
</glyph>
<glyph name="multiply" format="2">
  <advance width="981"/>
  <unicode hex="00D7"/>
  <note>
multiply
</note>
  <outline>
    <contour>
      <point x="89" y="1044" type="move"/>
      <point x="784" y="232" type="line"/>
    </contour>
    <contour>
      <point x="784" y="1044" type="move"/>
      <point x="89" y="232" type="line"/>
    </contour>
  </outline>
</glyph>
<glyph name="Oslash" format="2">
  <advance width="1307"/>
  <unicode hex="00D8"/>
  <note>
Oslash
</note>
  <anchor x="654" y="0" name="bottom"/>
  <anchor x="654" y="1292" name="top"/>
  <outline>
    <contour>
      <point x="1130" y="1359" type="move"/>
      <point x="1104" y="1298"/>
      <point x="1037" y="1190"/>
      <point x="949" y="1187" type="curve" smooth="yes"/>
      <point x="891" y="1186"/>
      <point x="846" y="1216"/>
      <point x="786" y="1244" type="curve" smooth="yes"/>
      <point x="733" y="1268"/>
      <point x="670" y="1289"/>
      <point x="577" y="1288" type="curve" smooth="yes"/>
      <point x="312" y="1281"/>
      <point x="98" y="1060"/>
      <point x="98" y="681" type="curve" smooth="yes"/>
      <point x="98" y="467"/>
      <point x="158" y="279"/>
      <point x="275" y="279" type="curve" smooth="yes"/>
      <point x="356" y="279"/>
      <point x="476" y="469"/>
      <point x="600" y="656" type="curve" smooth="yes"/>
      <point x="718" y="836"/>
      <point x="840" y="1014"/>
      <point x="931" y="1018" type="curve" smooth="yes"/>
      <point x="1014" y="1022"/>
      <point x="1085" y="870"/>
      <point x="1085" y="651" type="curve" smooth="yes"/>
      <point x="1085" y="318"/>
      <point x="879" y="4"/>
      <point x="602" y="-3" type="curve" smooth="yes"/>
      <point x="512" y="-4"/>
      <point x="453" y="21"/>
      <point x="406" y="47" type="curve" smooth="yes"/>
      <point x="347" y="82"/>
      <point x="306" y="116"/>
      <point x="245" y="116" type="curve" smooth="yes"/>
      <point x="148" y="116"/>
      <point x="97" y="6"/>
      <point x="62" y="-53" type="curve" smooth="yes"/>
    </contour>
    <contour>
      <point x="258" y="267" type="move"/>
      <point x="258" y="132" type="line"/>
    </contour>
    <contour>
      <point x="935" y="1035" type="move"/>
      <point x="935" y="1166" type="line"/>
    </contour>
  </outline>
</glyph>
<glyph name="Thorn" format="2">
  <advance width="1013"/>
  <unicode hex="00DE"/>
  <note>
Thorn
</note>
  <anchor x="507" y="0" name="bottom"/>
  <anchor x="507" y="1292" name="top"/>
  <outline>
    <contour>
      <point x="145" y="1322" type="move"/>
      <point x="145" y="1217" type="line" smooth="yes"/>
      <point x="145" y="1183"/>
      <point x="161" y="1157"/>
      <point x="177" y="1132" type="curve" smooth="yes"/>
      <point x="191" y="1108"/>
      <point x="205" y="1085"/>
      <point x="205" y="1054" type="curve" smooth="yes"/>
      <point x="205" y="1025"/>
      <point x="190" y="1006"/>
      <point x="176" y="985" type="curve" smooth="yes"/>
      <point x="161" y="962"/>
      <point x="145" y="935"/>
      <point x="145" y="890" type="curve" smooth="yes"/>
      <point x="145" y="546" type="line" smooth="yes"/>
      <point x="145" y="491"/>
      <point x="167" y="455"/>
      <point x="190" y="427" type="curve" smooth="yes"/>
      <point x="216" y="394"/>
      <point x="245" y="370"/>
      <point x="245" y="338" type="curve" smooth="yes"/>
      <point x="245" y="315"/>
      <point x="224" y="298"/>
      <point x="201" y="275" type="curve" smooth="yes"/>
      <point x="174" y="249"/>
      <point x="145" y="217"/>
      <point x="145" y="163" type="curve" smooth="yes"/>
      <point x="145" y="7" type="line"/>
    </contour>
    <contour>
      <point x="222" y="1053" type="move"/>
      <point x="554" y="1053" type="line" smooth="yes"/>
      <point x="738" y="1053"/>
      <point x="884" y="928"/>
      <point x="883" y="705" type="curve" smooth="yes"/>
      <point x="882" y="482"/>
      <point x="748" y="338"/>
      <point x="539" y="338" type="curve" smooth="yes"/>
      <point x="266" y="338" type="line"/>
    </contour>
  </outline>
</glyph>
<glyph name="germandbls" format="2">
  <advance width="993"/>
  <unicode hex="00DF"/>
  <note>
germandbls
</note>
  <anchor x="502" y="0" name="bottom"/>
  <anchor x="502" y="1371" name="top"/>
  <outline>
    <contour>
      <point x="205" y="23" type="move"/>
      <point x="205" y="1013" type="line" smooth="yes"/>
      <point x="205" y="1258"/>
      <point x="328" y="1362"/>
      <point x="510" y="1362" type="curve" smooth="yes"/>
      <point x="648" y="1362"/>
      <point x="772" y="1259"/>
      <point x="772" y="1087" type="curve" smooth="yes"/>
      <point x="772" y="1018"/>
      <point x="746" y="964"/>
      <point x="716" y="917" type="curve" smooth="yes"/>
      <point x="670" y="848"/>
      <point x="613" y="794"/>
      <point x="613" y="733" type="curve" smooth="yes"/>
      <point x="613" y="645"/>
      <point x="698" y="586"/>
      <point x="775" y="508" type="curve" smooth="yes"/>
      <point x="841" y="442"/>
      <point x="898" y="363"/>
      <point x="898" y="242" type="curve" smooth="yes"/>
      <point x="898" y="113"/>
      <point x="810" y="-4"/>
      <point x="664" y="-4" type="curve" smooth="yes"/>
      <point x="583" y="-4"/>
      <point x="522" y="15"/>
      <point x="473" y="47" type="curve"/>
    </contour>
  </outline>
</glyph>
<glyph name="eth" format="2">
  <advance width="934"/>
  <unicode hex="00F0"/>
  <note>
eth
</note>
  <anchor x="467" y="0" name="bottom"/>
  <anchor x="467" y="1371" name="top"/>
  <outline>
    <contour>
      <point x="157" y="1449" type="move"/>
      <point x="226" y="1427"/>
      <point x="313" y="1403"/>
      <point x="344" y="1373" type="curve" smooth="yes"/>
      <point x="356" y="1361"/>
      <point x="362" y="1348"/>
      <point x="366" y="1335" type="curve" smooth="yes"/>
      <point x="372" y="1317"/>
      <point x="375" y="1299"/>
      <point x="391" y="1288" type="curve" smooth="yes"/>
      <point x="405" y="1279"/>
      <point x="425" y="1282"/>
      <point x="447" y="1278" type="curve" smooth="yes"/>
      <point x="466" y="1274"/>
      <point x="485" y="1267"/>
      <point x="501" y="1245" type="curve" smooth="yes"/>
      <point x="561" y="1165"/>
      <point x="661" y="979"/>
      <point x="661" y="909" type="curve" smooth="yes"/>
      <point x="661" y="875"/>
      <point x="644" y="844"/>
      <point x="644" y="810" type="curve" smooth="yes"/>
      <point x="644" y="756"/>
      <point x="702" y="708"/>
      <point x="717" y="652" type="curve" smooth="yes"/>
      <point x="733" y="591"/>
      <point x="734" y="511"/>
      <point x="734" y="444" type="curve" smooth="yes"/>
      <point x="734" y="124"/>
      <point x="591" y="12"/>
      <point x="411" y="12" type="curve" smooth="yes"/>
      <point x="216" y="12"/>
      <point x="102" y="177"/>
      <point x="102" y="440" type="curve" smooth="yes"/>
      <point x="102" y="657"/>
      <point x="192" y="879"/>
      <point x="405" y="879" type="curve" smooth="yes"/>
      <point x="498" y="879"/>
      <point x="600" y="831"/>
      <point x="645" y="791" type="curve" smooth="yes"/>
    </contour>
    <contour>
      <point x="185" y="1175" type="move"/>
      <point x="380" y="1284" type="line"/>
    </contour>
    <contour>
      <point x="498" y="1278" type="move"/>
      <point x="693" y="1395" type="line"/>
    </contour>
  </outline>
</glyph>
<glyph name="divide" format="2">
  <advance width="1114"/>
  <unicode hex="00F7"/>
  <note>
divide
</note>
  <outline>
    <contour identifier="ID0x15ff17f80">
      <point x="560" y="1030" type="move"/>
      <point x="544" y="986" type="line"/>
    </contour>
    <contour>
      <point x="560" y="306" type="move"/>
      <point x="544" y="262" type="line"/>
    </contour>
    <contour>
      <point x="125" y="648" type="move"/>
      <point x="989" y="648" type="line"/>
    </contour>
  </outline>
</glyph>
<glyph name="oslash" format="2">
  <advance width="1026"/>
  <unicode hex="00F8"/>
  <note>
oslash
</note>
  <anchor x="513" y="1005" name="top"/>
  <outline>
    <contour>
      <point x="819" y="1066" type="move"/>
      <point x="801" y="1012"/>
      <point x="754" y="937"/>
      <point x="682" y="937" type="curve" smooth="yes"/>
      <point x="645" y="937"/>
      <point x="609" y="957"/>
      <point x="567" y="975" type="curve" smooth="yes"/>
      <point x="528" y="993"/>
      <point x="483" y="1010"/>
      <point x="427" y="1010" type="curve" smooth="yes"/>
      <point x="225" y="1010"/>
      <point x="123" y="864"/>
      <point x="123" y="553" type="curve" smooth="yes"/>
      <point x="123" y="391"/>
      <point x="130" y="248"/>
      <point x="213" y="248" type="curve" smooth="yes"/>
      <point x="271" y="248"/>
      <point x="358" y="398"/>
      <point x="447" y="543" type="curve" smooth="yes"/>
      <point x="530" y="678"/>
      <point x="614" y="808"/>
      <point x="678" y="808" type="curve" smooth="yes"/>
      <point x="737" y="808"/>
      <point x="766" y="696"/>
      <point x="766" y="553" type="curve" smooth="yes"/>
      <point x="766" y="265"/>
      <point x="655" y="37"/>
      <point x="445" y="37" type="curve" smooth="yes"/>
      <point x="394" y="37"/>
      <point x="349" y="58"/>
      <point x="309" y="79" type="curve" smooth="yes"/>
      <point x="267" y="102"/>
      <point x="229" y="125"/>
      <point x="192" y="125" type="curve" smooth="yes"/>
      <point x="123" y="125"/>
      <point x="87" y="42"/>
      <point x="62" y="-3" type="curve" smooth="yes"/>
    </contour>
    <contour>
      <point x="201" y="239" type="move"/>
      <point x="201" y="137" type="line"/>
    </contour>
    <contour>
      <point x="681" y="821" type="move"/>
      <point x="681" y="920" type="line"/>
    </contour>
  </outline>
</glyph>
<glyph name="thorn" format="2">
  <advance width="897"/>
  <unicode hex="00FE"/>
  <note>
thorn
</note>
  <anchor x="449" y="0" name="bottom"/>
  <anchor x="449" y="1371" name="top"/>
  <outline>
    <contour identifier="ID0x17f3406d0">
      <point x="139" y="1348" type="move"/>
      <point x="139" y="1042" type="line" smooth="yes"/>
      <point x="139" y="957"/>
      <point x="151" y="920"/>
      <point x="164" y="886" type="curve" smooth="yes"/>
      <point x="175" y="854"/>
      <point x="187" y="825"/>
      <point x="187" y="786" type="curve" smooth="yes"/>
      <point x="187" y="749"/>
      <point x="175" y="720"/>
      <point x="164" y="686" type="curve" smooth="yes"/>
      <point x="151" y="650"/>
      <point x="139" y="609"/>
      <point x="139" y="537" type="curve" smooth="yes"/>
      <point x="139" y="461" type="line" smooth="yes"/>
      <point x="139" y="404"/>
      <point x="147" y="373"/>
      <point x="157" y="347" type="curve" smooth="yes"/>
      <point x="174" y="304"/>
      <point x="196" y="276"/>
      <point x="196" y="232" type="curve" smooth="yes"/>
      <point x="196" y="204"/>
      <point x="184" y="178"/>
      <point x="172" y="149" type="curve" smooth="yes"/>
      <point x="156" y="114"/>
      <point x="139" y="74"/>
      <point x="139" y="8" type="curve" smooth="yes"/>
      <point x="139" y="-355" type="line"/>
    </contour>
    <component base="_panse" xOffset="26" yOffset="-6" identifier="7F971BCB"/>
  </outline>
</glyph>
<glyph name="hcircumflex" format="2">
  <advance width="957"/>
  <unicode hex="0125"/>
  <note>
hcircumflex
</note>
  <anchor x="519" y="1433" name="top"/>
  <outline>
    <component base="h"/>
    <contour identifier="ID0x139f34870">
      <point x="326" y="1194" type="move"/>
      <point x="387" y="1204"/>
      <point x="423" y="1238"/>
      <point x="447" y="1278" type="curve" smooth="yes"/>
      <point x="487" y="1340"/>
      <point x="497" y="1413"/>
      <point x="533" y="1413" type="curve" smooth="yes"/>
      <point x="568" y="1413"/>
      <point x="579" y="1343"/>
      <point x="617" y="1281" type="curve" smooth="yes"/>
      <point x="641" y="1240"/>
      <point x="678" y="1204"/>
      <point x="740" y="1194" type="curve"/>
    </contour>
  </outline>
</glyph>
<glyph name="Hbar" format="2">
  <advance width="1429"/>
  <unicode hex="0126"/>
  <note>
Hbar
</note>
  <outline>
    <contour>
      <point x="205" y="1063" type="move"/>
      <point x="1224" y="1063" type="line"/>
    </contour>
    <component base="H" xOffset="119"/>
  </outline>
</glyph>
<glyph name="kgreenlandic" format="2">
  <advance width="803"/>
  <unicode hex="0138"/>
  <note>
kgreenlandic
</note>
  <anchor x="402" y="0" name="bottom"/>
  <anchor x="402" y="1005" name="top"/>
  <outline>
    <contour identifier="ID0x17d34fa60">
      <point x="137" y="52" type="move"/>
      <point x="137" y="248" type="line" smooth="yes"/>
      <point x="137" y="356"/>
      <point x="200" y="413"/>
      <point x="200" y="475" type="curve" smooth="yes"/>
      <point x="200" y="539"/>
      <point x="137" y="594"/>
      <point x="137" y="711" type="curve" smooth="yes"/>
      <point x="137" y="1008" type="line"/>
    </contour>
    <contour>
      <point x="209" y="476" type="move"/>
      <point x="254" y="504"/>
      <point x="325" y="482"/>
      <point x="364" y="518" type="curve" smooth="yes"/>
      <point x="411" y="561"/>
      <point x="372" y="650"/>
      <point x="441" y="741" type="curve" smooth="yes"/>
      <point x="646" y="1009" type="line"/>
    </contour>
    <contour>
      <point x="365" y="508" type="move"/>
      <point x="423" y="479"/>
      <point x="476" y="378"/>
      <point x="536" y="271" type="curve" smooth="yes"/>
      <point x="667" y="38" type="line"/>
    </contour>
  </outline>
</glyph>
<glyph name="Lslash" format="2">
  <advance width="1027"/>
  <unicode hex="0141"/>
  <note>
Lslash
</note>
  <outline>
    <component base="L" xOffset="130"/>
    <contour>
      <point x="679" y="832" type="move"/>
      <point x="208" y="531" type="line"/>
    </contour>
  </outline>
</glyph>
<glyph name="lslash" format="2">
  <advance width="373"/>
  <unicode hex="0142"/>
  <note>
lslash
</note>
  <outline>
    <contour identifier="ID0x17d594a60">
      <point x="138" y="1375" type="move"/>
      <point x="138" y="855" type="line" smooth="yes"/>
      <point x="138" y="788"/>
      <point x="168" y="755"/>
      <point x="168" y="700" type="curve" smooth="yes"/>
      <point x="168" y="679"/>
      <point x="157" y="660"/>
      <point x="144" y="641" type="curve" smooth="yes"/>
      <point x="128" y="618"/>
      <point x="109" y="595"/>
      <point x="109" y="567" type="curve" smooth="yes"/>
      <point x="109" y="526"/>
      <point x="138" y="483"/>
      <point x="138" y="415" type="curve" smooth="yes"/>
      <point x="138" y="13" type="line"/>
    </contour>
    <contour>
      <point x="-14" y="526" type="move"/>
      <point x="100" y="564" type="line"/>
    </contour>
    <contour>
      <point x="177" y="697" type="move"/>
      <point x="293" y="739" type="line"/>
    </contour>
  </outline>
</glyph>
<glyph name="Eng" format="2">
  <advance width="1264"/>
  <unicode hex="014A"/>
  <note>
Eng
</note>
  <anchor x="632" y="-366" name="bottom"/>
  <anchor x="632" y="1292" name="top"/>
  <outline>
    <contour identifier="ID0x2e2555bb0">
      <point x="211" y="42" type="move"/>
      <point x="205" y="785" type="line" smooth="yes"/>
      <point x="204" y="875"/>
      <point x="219" y="925"/>
      <point x="233" y="961" type="curve" smooth="yes"/>
      <point x="246" y="995"/>
      <point x="258" y="1018"/>
      <point x="258" y="1053" type="curve" smooth="yes"/>
      <point x="258" y="1090"/>
      <point x="243" y="1114"/>
      <point x="229" y="1141" type="curve" smooth="yes"/>
      <point x="217" y="1165"/>
      <point x="205" y="1192"/>
      <point x="205" y="1232" type="curve" smooth="yes"/>
      <point x="205" y="1296" type="line"/>
    </contour>
    <contour>
      <point x="269" y="1062" type="move"/>
      <point x="410" y="1133"/>
      <point x="472" y="1309"/>
      <point x="678" y="1307" type="curve" smooth="yes"/>
      <point x="916" y="1305"/>
      <point x="1006" y="1122"/>
      <point x="1013" y="818" type="curve" smooth="yes"/>
      <point x="1017" y="610" type="line" smooth="yes"/>
      <point x="1023" y="315"/>
      <point x="1001" y="32"/>
      <point x="791" y="32" type="curve" smooth="yes"/>
      <point x="650" y="32"/>
      <point x="626" y="110"/>
      <point x="616" y="161" type="curve" smooth="yes"/>
    </contour>
  </outline>
</glyph>
<glyph name="eng" format="2">
  <advance width="934"/>
  <unicode hex="014B"/>
  <note>
eng
</note>
  <anchor x="467" y="-366" name="bottom"/>
  <anchor x="467" y="1005" name="top"/>
  <outline>
    <contour>
      <point x="148" y="23" type="move"/>
      <point x="148" y="974" type="line"/>
    </contour>
    <contour>
      <point x="156" y="786" type="move"/>
      <point x="210" y="809"/>
      <point x="251" y="848"/>
      <point x="290" y="886" type="curve" smooth="yes"/>
      <point x="346" y="940"/>
      <point x="397" y="991"/>
      <point x="476" y="991" type="curve" smooth="yes"/>
      <point x="633" y="991"/>
      <point x="696" y="880"/>
      <point x="696" y="663" type="curve" smooth="yes"/>
      <point x="696" y="75" type="line" smooth="yes"/>
      <point x="696" y="-137"/>
      <point x="720" y="-363"/>
      <point x="536" y="-363" type="curve"/>
    </contour>
  </outline>
</glyph>
<glyph name="OE" format="2">
  <advance width="1726"/>
  <unicode hex="0152"/>
  <note>
OE
</note>
  <anchor x="863" y="0" name="bottom"/>
  <anchor x="863" y="1292" name="top"/>
  <outline>
    <contour identifier="ID0x16fb648a0">
      <point x="1543" y="1262" type="move"/>
      <point x="905" y="1280" type="line" smooth="yes"/>
      <point x="852" y="1281"/>
      <point x="828" y="1256"/>
      <point x="828" y="1201" type="curve" smooth="yes"/>
      <point x="829" y="937" type="line" smooth="yes"/>
      <point x="829" y="863"/>
      <point x="854" y="815"/>
      <point x="880" y="778" type="curve" smooth="yes"/>
      <point x="909" y="737"/>
      <point x="939" y="709"/>
      <point x="939" y="672" type="curve" smooth="yes"/>
      <point x="939" y="637"/>
      <point x="909" y="613"/>
      <point x="880" y="577" type="curve" smooth="yes"/>
      <point x="854" y="544"/>
      <point x="829" y="502"/>
      <point x="829" y="433" type="curve" smooth="yes"/>
      <point x="830" y="119" type="line" smooth="yes"/>
      <point x="830" y="57"/>
      <point x="853" y="25"/>
      <point x="910" y="25" type="curve" smooth="yes"/>
      <point x="1585" y="29" type="line"/>
    </contour>
    <contour>
      <point x="943" y="672" type="move"/>
      <point x="1479" y="686" type="line"/>
    </contour>
    <contour identifier="ID0x17a0cab00">
      <point x="909" y="1280" type="move"/>
      <point x="650" y="1280" type="line" smooth="yes"/>
      <point x="341" y="1280"/>
      <point x="165" y="1050"/>
      <point x="165" y="651" type="curve" smooth="yes"/>
      <point x="165" y="262"/>
      <point x="366" y="25"/>
      <point x="650" y="25" type="curve" smooth="yes"/>
      <point x="1024" y="25" type="line"/>
    </contour>
  </outline>
</glyph>
<glyph name="oe" format="2">
  <advance width="1555"/>
  <unicode hex="0153"/>
  <note>
oe
</note>
  <anchor x="778" y="0" name="bottom"/>
  <anchor x="778" y="1005" name="top"/>
  <outline>
    <contour identifier="ID0x17de24400">
      <point x="872" y="546" type="move"/>
      <point x="1271" y="546" type="line" smooth="yes"/>
      <point x="1377" y="546"/>
      <point x="1438" y="587"/>
      <point x="1429" y="719" type="curve" smooth="yes"/>
      <point x="1420" y="851"/>
      <point x="1314" y="997"/>
      <point x="1138" y="997" type="curve" smooth="yes"/>
      <point x="1045" y="997"/>
      <point x="997" y="955"/>
      <point x="955" y="912" type="curve" smooth="yes"/>
      <point x="913" y="868"/>
      <point x="879" y="824"/>
      <point x="813" y="824" type="curve" smooth="yes"/>
      <point x="764" y="824"/>
      <point x="727" y="865"/>
      <point x="683" y="909" type="curve" smooth="yes"/>
      <point x="635" y="957"/>
      <point x="578" y="1007"/>
      <point x="488" y="1007" type="curve" smooth="yes"/>
      <point x="285" y="1007"/>
      <point x="144" y="776"/>
      <point x="156" y="475" type="curve" smooth="yes"/>
      <point x="168" y="174"/>
      <point x="284" y="36"/>
      <point x="468" y="31" type="curve" smooth="yes"/>
      <point x="563" y="28"/>
      <point x="620" y="70"/>
      <point x="664" y="114" type="curve" smooth="yes"/>
      <point x="713" y="164"/>
      <point x="745" y="218"/>
      <point x="795" y="218" type="curve" smooth="yes"/>
      <point x="847" y="218"/>
      <point x="883" y="171"/>
      <point x="929" y="124" type="curve" smooth="yes"/>
      <point x="977" y="75"/>
      <point x="1036" y="25"/>
      <point x="1134" y="25" type="curve" smooth="yes"/>
      <point x="1291" y="25"/>
      <point x="1373" y="161"/>
      <point x="1401" y="240" type="curve" smooth="yes"/>
    </contour>
    <contour>
      <point x="821" y="813" type="move"/>
      <point x="804" y="720"/>
      <point x="864" y="601"/>
      <point x="864" y="543" type="curve" smooth="yes"/>
      <point x="864" y="489"/>
      <point x="801" y="454"/>
      <point x="807" y="345" type="curve" smooth="yes"/>
      <point x="809" y="307"/>
      <point x="804" y="251"/>
      <point x="790" y="228" type="curve"/>
    </contour>
  </outline>
</glyph>
<glyph name="tbar" format="2">
  <advance width="566"/>
  <unicode hex="0167"/>
  <note>
tbar
</note>
  <outline>
    <component base="t" identifier="73BD042D"/>
    <contour identifier="ID0x2a0774700">
      <point x="142" y="546" type="move"/>
      <point x="423" y="546" type="line"/>
    </contour>
  </outline>
</glyph>
<glyph name="longs" format="2">
  <advance width="349"/>
  <unicode hex="017F"/>
  <note>
longs
</note>
  <anchor x="175" y="0" name="bottom"/>
  <anchor x="175" y="1371" name="top"/>
  <outline>
    <contour>
      <point x="324" y="1374" type="move"/>
      <point x="201" y="1374"/>
      <point x="145" y="1320"/>
      <point x="145" y="1062" type="curve" smooth="yes"/>
      <point x="145" y="21" type="line"/>
    </contour>
  </outline>
</glyph>
<glyph name="florin" format="2">
  <advance width="665"/>
  <unicode hex="0192"/>
  <note>
florin
</note>
  <outline>
    <contour identifier="ID0x17fd55c40">
      <point x="610" y="1320" type="move"/>
      <point x="455" y="1356"/>
      <point x="404" y="1262"/>
      <point x="368" y="1058" type="curve" smooth="yes"/>
      <point x="123" y="-349" type="line"/>
    </contour>
    <contour>
      <point x="202" y="917" type="move"/>
      <point x="512" y="917" type="line"/>
    </contour>
  </outline>
</glyph>
<glyph name="Aringacute" format="2">
  <advance width="1168"/>
  <unicode hex="01FA"/>
  <note>
Aringacute
</note>
  <anchor x="584" y="1638" name="top"/>
  <outline>
    <component base="A"/>
    <contour identifier="ID0x1709bd000">
      <point x="584" y="1474" type="curve" smooth="yes"/>
      <point x="674" y="1474"/>
      <point x="729" y="1434"/>
      <point x="729" y="1382" type="curve" smooth="yes"/>
      <point x="729" y="1326"/>
      <point x="674" y="1288"/>
      <point x="584" y="1288" type="curve" smooth="yes"/>
      <point x="502" y="1288"/>
      <point x="440" y="1326"/>
      <point x="440" y="1382" type="curve" smooth="yes"/>
      <point x="440" y="1434"/>
      <point x="503" y="1474"/>
    </contour>
    <contour identifier="ID0x1709bd120">
      <point x="343" y="1561" type="move"/>
      <point x="407" y="1492"/>
      <point x="537" y="1458"/>
      <point x="642" y="1482" type="curve" smooth="yes"/>
      <point x="746" y="1507"/>
      <point x="822" y="1587"/>
      <point x="825" y="1663" type="curve"/>
    </contour>
  </outline>
</glyph>
<glyph name="jdotless" format="2">
  <advance width="414"/>
  <unicode hex="0237"/>
  <anchor x="207" y="-366" name="bottom"/>
  <anchor x="207" y="1005" name="top"/>
  <outline>
    <contour>
      <point x="185" y="977" type="move"/>
      <point x="185" y="22" type="line" smooth="yes"/>
      <point x="185" y="-145"/>
      <point x="178" y="-338"/>
      <point x="25" y="-338" type="curve"/>
    </contour>
  </outline>
</glyph>
<glyph name="hungarumlaut" format="2">
  <advance width="559"/>
  <unicode hex="02DD"/>
  <note>
hungarumlaut
</note>
  <outline>
    <contour identifier="ID0x13a227580">
      <point x="253" y="1239" type="move"/>
      <point x="322" y="1210"/>
      <point x="417" y="1229"/>
      <point x="472" y="1283" type="curve" smooth="yes"/>
      <point x="526" y="1338"/>
      <point x="540" y="1424"/>
      <point x="510" y="1482" type="curve"/>
    </contour>
    <contour identifier="ID0x17811df10">
      <point x="-53" y="1239" type="move"/>
      <point x="16" y="1210"/>
      <point x="111" y="1229"/>
      <point x="166" y="1283" type="curve" smooth="yes"/>
      <point x="220" y="1338"/>
      <point x="234" y="1424"/>
      <point x="204" y="1482" type="curve"/>
    </contour>
  </outline>
</glyph>
<glyph name="gravecomb" format="2">
  <advance width="934"/>
  <unicode hex="0300"/>
  <anchor x="463" y="994" name="_top"/>
  <anchor x="460" y="1329" name="top"/>
  <outline>
    <contour identifier="ID0x7fc43dde69e0">
      <point x="224" y="1304" type="move"/>
      <point x="224" y="1206"/>
      <point x="265" y="1101"/>
      <point x="349" y="1041" type="curve" smooth="yes"/>
      <point x="425" y="987"/>
      <point x="547" y="974"/>
      <point x="695" y="1025" type="curve" smooth="yes"/>
    </contour>
  </outline>
</glyph>
<glyph name="circumflexcomb" format="2">
  <advance width="934"/>
  <unicode hex="0302"/>
  <anchor x="418" y="1005" name="_top"/>
  <anchor x="418" y="1397" name="top"/>
  <outline>
    <contour identifier="ID0x7fc43ef6d960">
      <point x="167" y="1106" type="move"/>
      <point x="241" y="1118"/>
      <point x="284" y="1160"/>
      <point x="314" y="1208" type="curve" smooth="yes"/>
      <point x="362" y="1283"/>
      <point x="374" y="1372"/>
      <point x="418" y="1372" type="curve" smooth="yes"/>
      <point x="461" y="1372"/>
      <point x="474" y="1287"/>
      <point x="519" y="1212" type="curve" smooth="yes"/>
      <point x="549" y="1163"/>
      <point x="593" y="1118"/>
      <point x="669" y="1106" type="curve"/>
    </contour>
  </outline>
</glyph>
<glyph name="tildecomb" format="2">
  <advance width="934"/>
  <unicode hex="0303"/>
  <anchor x="452" y="1005" name="_top"/>
  <anchor x="452" y="1369" name="top"/>
  <outline>
    <contour>
      <point x="182" y="1214" type="move"/>
      <point x="202" y="1266"/>
      <point x="241" y="1339"/>
      <point x="324" y="1330" type="curve" smooth="yes"/>
      <point x="371" y="1325"/>
      <point x="412" y="1300"/>
      <point x="452" y="1273" type="curve" smooth="yes"/>
      <point x="495" y="1245"/>
      <point x="537" y="1216"/>
      <point x="584" y="1212" type="curve" smooth="yes"/>
      <point x="662" y="1206"/>
      <point x="709" y="1277"/>
      <point x="721" y="1344" type="curve" smooth="yes"/>
    </contour>
  </outline>
</glyph>
<glyph name="brevecomb" format="2">
  <advance width="934"/>
  <unicode hex="0306"/>
  <anchor x="420" y="1005" name="_top"/>
  <anchor x="420" y="1244" name="top"/>
  <outline>
    <contour identifier="ID0x16881e130">
      <point x="126" y="1219" type="move"/>
      <point x="156" y="1116"/>
      <point x="262" y="1002"/>
      <point x="419" y="1002" type="curve" smooth="yes"/>
      <point x="573" y="1002"/>
      <point x="673" y="1105"/>
      <point x="715" y="1219" type="curve" smooth="yes"/>
    </contour>
  </outline>
</glyph>
<glyph name="dotaccentcomb" format="2">
  <advance width="373"/>
  <unicode hex="0307"/>
  <anchor x="129" y="1005" name="_top"/>
  <anchor x="144" y="1443" name="top"/>
  <outline>
    <contour>
      <point x="152" y="1245" type="move"/>
      <point x="136" y="1201" type="line"/>
    </contour>
  </outline>
</glyph>
<glyph name="ringcomb" format="2">
  <advance width="559"/>
  <unicode hex="030A"/>
  <anchor x="219" y="1076" name="_top"/>
  <anchor x="219" y="1553" name="top"/>
  <outline>
    <contour>
      <point x="222" y="1544" type="curve" smooth="yes"/>
      <point x="308" y="1544"/>
      <point x="363" y="1470"/>
      <point x="363" y="1382" type="curve" smooth="yes"/>
      <point x="363" y="1281"/>
      <point x="295" y="1220"/>
      <point x="213" y="1220" type="curve" smooth="yes"/>
      <point x="131" y="1220"/>
      <point x="74" y="1298"/>
      <point x="74" y="1386" type="curve" smooth="yes"/>
      <point x="74" y="1477"/>
      <point x="137" y="1544"/>
    </contour>
  </outline>
</glyph>
<glyph name="cedillacomb" format="2">
  <advance width="1212"/>
  <unicode hex="0327"/>
  <anchor x="655" y="1" name="_bottom"/>
  <anchor x="655" y="-403" name="bottom"/>
  <outline>
    <contour>
      <point x="708" y="17" type="move"/>
      <point x="687" y="-32"/>
      <point x="673" y="-88"/>
      <point x="707" y="-131" type="curve" smooth="yes"/>
      <point x="753" y="-188"/>
      <point x="835" y="-203"/>
      <point x="835" y="-287" type="curve" smooth="yes"/>
      <point x="835" y="-378"/>
      <point x="731" y="-422"/>
      <point x="641" y="-388" type="curve" smooth="yes"/>
    </contour>
  </outline>
</glyph>
<glyph name="Lambda" format="2">
  <advance width="1120"/>
  <unicode hex="039B"/>
  <note>
Lambda
</note>
  <outline>
    <contour>
      <point x="485.74" y="1301.89" type="curve" smooth="yes"/>
      <point x="485.73" y="1301.88" type="line" smooth="yes"/>
      <point x="473.09" y="1303.88"/>
      <point x="461.74" y="1303.2"/>
      <point x="451.68" y="1299.85" type="curve" smooth="yes"/>
      <point x="440.59" y="1296.59"/>
      <point x="428.73" y="1287.44"/>
      <point x="416.11" y="1272.41" type="curve" smooth="yes"/>
      <point x="402.56" y="1257.5"/>
      <point x="389.68" y="1231.76"/>
      <point x="377.49" y="1195.17" type="curve" smooth="yes"/>
      <point x="367.05" y="1164.36"/>
      <point x="354.85" y="1124.89"/>
      <point x="340.9" y="1076.76" type="curve" smooth="yes"/>
      <point x="327.55" y="1030.7"/>
      <point x="286.05" y="905.01"/>
      <point x="216.39" y="699.68" type="curve" smooth="yes"/>
      <point x="143.69" y="485.38"/>
      <point x="94.91" y="337.16"/>
      <point x="70.03" y="255.01" type="curve" smooth="yes"/>
      <point x="41.97" y="164.45"/>
      <point x="24.69" y="107.54"/>
      <point x="18.2" y="84.26" type="curve" smooth="yes"/>
      <point x="11.4" y="57.69"/>
      <point x="8.86" y="41.26"/>
      <point x="10.58" y="34.97" type="curve" smooth="yes"/>
      <point x="12.56" y="28.36"/>
      <point x="16.97" y="24.13"/>
      <point x="23.79" y="22.27" type="curve" smooth="yes"/>
      <point x="30.08" y="19.75"/>
      <point x="36.69" y="19.75"/>
      <point x="43.61" y="22.27" type="curve" smooth="yes"/>
      <point x="50.01" y="24.4"/>
      <point x="57.81" y="40.16"/>
      <point x="66.99" y="69.53" type="curve" smooth="yes"/>
      <point x="73.1" y="90.48"/>
      <point x="88.52" y="141.47"/>
      <point x="113.24" y="222.49" type="curve" smooth="yes"/>
      <point x="130.4" y="280.36"/>
      <point x="179.36" y="429.43"/>
      <point x="260.11" y="669.7" type="curve" smooth="yes"/>
      <point x="332.31" y="882.8"/>
      <point x="378.89" y="1024.92"/>
      <point x="399.86" y="1096.07" type="curve" smooth="yes"/>
      <point x="416.48" y="1154.53"/>
      <point x="428.84" y="1192.82"/>
      <point x="436.96" y="1210.92" type="curve" smooth="yes"/>
      <point x="445.21" y="1229.32"/>
      <point x="453.17" y="1241.18"/>
      <point x="460.84" y="1246.49" type="curve" smooth="yes"/>
      <point x="468.67" y="1251.91"/>
      <point x="473.75" y="1254.62"/>
      <point x="476.09" y="1254.62" type="curve" smooth="yes"/>
      <point x="478.27" y="1254.62"/>
      <point x="484.7" y="1250.22"/>
      <point x="495.4" y="1241.41" type="curve" smooth="yes"/>
      <point x="501.77" y="1236.06"/>
      <point x="507.4" y="1227.87"/>
      <point x="512.27" y="1216.86" type="curve" smooth="yes"/>
      <point x="517.15" y="1205.85"/>
      <point x="524.39" y="1184.9"/>
      <point x="534.02" y="1154" type="curve" smooth="yes"/>
      <point x="575.27" y="1025.48"/>
      <point x="623.72" y="876.07"/>
      <point x="679.36" y="705.78" type="curve" smooth="yes"/>
      <point x="765.75" y="441.38"/>
      <point x="823.34" y="265.72"/>
      <point x="852.14" y="178.79" type="curve" smooth="yes"/>
      <point x="872.35" y="117.92"/>
      <point x="886.55" y="76.93"/>
      <point x="894.76" y="55.82" type="curve" smooth="yes"/>
      <point x="902.97" y="34.71"/>
      <point x="909.09" y="23.53"/>
      <point x="913.13" y="22.27" type="curve" smooth="yes"/>
      <point x="918.49" y="20.13"/>
      <point x="925.09" y="20.13"/>
      <point x="932.95" y="22.27" type="curve" smooth="yes"/>
      <point x="939.49" y="24.05"/>
      <point x="943.73" y="28.8"/>
      <point x="945.66" y="36.5" type="curve" smooth="yes"/>
      <point x="947.91" y="43.8"/>
      <point x="926.22" y="116.98"/>
      <point x="880.61" y="256.04" type="curve" smooth="yes"/>
      <point x="777.75" y="570.17"/>
      <point x="719.31" y="748.88"/>
      <point x="705.28" y="792.18" type="curve" smooth="yes"/>
      <point x="636.37" y="1003.07"/>
      <point x="594.53" y="1132.15"/>
      <point x="579.76" y="1179.42" type="curve" smooth="yes"/>
      <point x="567.3" y="1219.28"/>
      <point x="556.29" y="1246.38"/>
      <point x="546.73" y="1260.73" type="curve" smooth="yes"/>
      <point x="537.29" y="1274.89"/>
      <point x="527.63" y="1285.05"/>
      <point x="517.76" y="1291.22" type="curve" smooth="yes"/>
      <point x="507.92" y="1297.12"/>
      <point x="497.25" y="1300.68"/>
    </contour>
  </outline>
</glyph>
<glyph name="Xi" format="2">
  <advance width="1092"/>
  <unicode hex="039E"/>
  <note>
Xi
</note>
  <outline>
    <contour>
      <point x="495.8" y="1319.57" type="curve" smooth="yes"/>
      <point x="329.53" y="1319.57"/>
      <point x="224.99" y="1319.11"/>
      <point x="182.19" y="1318.19" type="curve" smooth="yes"/>
      <point x="139.39" y="1317.27"/>
      <point x="116.2" y="1315.02"/>
      <point x="112.62" y="1311.44" type="curve" smooth="yes"/>
      <point x="107.2" y="1306.62"/>
      <point x="104.49" y="1300.86"/>
      <point x="104.49" y="1294.16" type="curve" smooth="yes"/>
      <point x="104.49" y="1287.46"/>
      <point x="107.2" y="1281.7"/>
      <point x="112.62" y="1276.88" type="curve" smooth="yes"/>
      <point x="116.2" y="1273.3"/>
      <point x="139.39" y="1271.05"/>
      <point x="182.19" y="1270.13" type="curve" smooth="yes"/>
      <point x="224.99" y="1269.21"/>
      <point x="329.53" y="1268.75"/>
      <point x="495.8" y="1268.75" type="curve" smooth="yes"/>
      <point x="662.07" y="1268.75"/>
      <point x="766.61" y="1269.21"/>
      <point x="809.41" y="1270.13" type="curve" smooth="yes"/>
      <point x="852.21" y="1271.05"/>
      <point x="875.4" y="1273.3"/>
      <point x="878.98" y="1276.88" type="curve" smooth="yes"/>
      <point x="884.4" y="1281.7"/>
      <point x="887.11" y="1287.46"/>
      <point x="887.11" y="1294.16" type="curve" smooth="yes"/>
      <point x="887.11" y="1300.86"/>
      <point x="884.4" y="1306.62"/>
      <point x="878.98" y="1311.44" type="curve" smooth="yes"/>
      <point x="875.4" y="1315.02"/>
      <point x="852.21" y="1317.27"/>
      <point x="809.41" y="1318.19" type="curve" smooth="yes"/>
      <point x="766.61" y="1319.11"/>
      <point x="662.07" y="1319.57"/>
    </contour>
    <contour>
      <point x="495.8" y="714.82" type="curve" smooth="yes"/>
      <point x="372.97" y="714.82"/>
      <point x="295.39" y="714.36"/>
      <point x="263.05" y="713.43" type="curve" smooth="yes"/>
      <point x="230.71" y="712.5"/>
      <point x="212.75" y="710.26"/>
      <point x="209.18" y="706.69" type="curve" smooth="yes"/>
      <point x="203.76" y="701.87"/>
      <point x="201.05" y="696.11"/>
      <point x="201.05" y="689.41" type="curve" smooth="yes"/>
      <point x="201.05" y="682.71"/>
      <point x="203.76" y="676.95"/>
      <point x="209.18" y="672.13" type="curve" smooth="yes"/>
      <point x="212.75" y="668.56"/>
      <point x="230.71" y="666.31"/>
      <point x="263.05" y="665.39" type="curve" smooth="yes"/>
      <point x="295.39" y="664.46"/>
      <point x="372.98" y="664"/>
      <point x="495.8" y="664" type="curve" smooth="yes"/>
      <point x="618.62" y="664"/>
      <point x="696.2" y="664.46"/>
      <point x="728.55" y="665.39" type="curve" smooth="yes"/>
      <point x="760.89" y="666.32"/>
      <point x="778.85" y="668.56"/>
      <point x="782.42" y="672.13" type="curve" smooth="yes"/>
      <point x="787.84" y="676.95"/>
      <point x="790.55" y="682.71"/>
      <point x="790.55" y="689.41" type="curve" smooth="yes"/>
      <point x="790.55" y="696.11"/>
      <point x="787.84" y="701.87"/>
      <point x="782.42" y="706.69" type="curve" smooth="yes"/>
      <point x="778.85" y="710.26"/>
      <point x="760.9" y="712.51"/>
      <point x="728.55" y="713.43" type="curve" smooth="yes"/>
      <point x="696.21" y="714.36"/>
      <point x="618.62" y="714.82"/>
    </contour>
    <contour>
      <point x="495.81" y="74.5" type="curve" smooth="yes"/>
      <point x="315.74" y="74.5"/>
      <point x="202.68" y="74.04"/>
      <point x="156.61" y="73.12" type="curve" smooth="yes"/>
      <point x="110.54" y="72.2"/>
      <point x="85.72" y="69.95"/>
      <point x="82.14" y="66.37" type="curve" smooth="yes"/>
      <point x="76.72" y="61.55"/>
      <point x="74.01" y="55.79"/>
      <point x="74.01" y="49.09" type="curve" smooth="yes"/>
      <point x="74.01" y="42.39"/>
      <point x="76.72" y="36.63"/>
      <point x="82.14" y="31.81" type="curve" smooth="yes"/>
      <point x="85.72" y="28.23"/>
      <point x="110.54" y="25.98"/>
      <point x="156.61" y="25.06" type="curve" smooth="yes"/>
      <point x="202.68" y="24.14"/>
      <point x="315.74" y="23.68"/>
      <point x="495.81" y="23.68" type="curve" smooth="yes"/>
      <point x="675.87" y="23.68"/>
      <point x="788.94" y="24.14"/>
      <point x="835.01" y="25.06" type="curve" smooth="yes"/>
      <point x="881.08" y="25.98"/>
      <point x="905.9" y="28.23"/>
      <point x="909.48" y="31.81" type="curve" smooth="yes"/>
      <point x="914.9" y="36.63"/>
      <point x="917.61" y="42.39"/>
      <point x="917.61" y="49.09" type="curve" smooth="yes"/>
      <point x="917.61" y="55.79"/>
      <point x="914.9" y="61.55"/>
      <point x="909.48" y="66.37" type="curve" smooth="yes"/>
      <point x="905.9" y="69.95"/>
      <point x="881.07" y="72.2"/>
      <point x="835" y="73.12" type="curve" smooth="yes"/>
      <point x="788.93" y="74.04"/>
      <point x="675.87" y="74.5"/>
    </contour>
  </outline>
</glyph>
<glyph name="Pi" format="2">
  <advance width="1212"/>
  <unicode hex="03A0"/>
  <note>
Pi
</note>
  <outline>
    <contour>
      <point x="562.87" y="1318.55" type="curve" smooth="yes"/>
      <point x="562.85" y="1318.55" type="line" smooth="yes"/>
      <point x="330.14" y="1319.17"/>
      <point x="208" y="1318.32"/>
      <point x="196.45" y="1316.01" type="curve" smooth="yes"/>
      <point x="185.31" y="1313.66"/>
      <point x="175.32" y="1309.77"/>
      <point x="166.47" y="1304.32" type="curve" smooth="yes"/>
      <point x="158.25" y="1298.63"/>
      <point x="151.47" y="1290.16"/>
      <point x="146.14" y="1278.91" type="curve" smooth="yes"/>
      <point x="142.56" y="1271.23"/>
      <point x="140.3" y="1232.67"/>
      <point x="139.39" y="1163.24" type="curve" smooth="yes"/>
      <point x="138.47" y="1093.81"/>
      <point x="138.01" y="923.5"/>
      <point x="138.01" y="652.31" type="curve" smooth="yes"/>
      <point x="138.01" y="380.51"/>
      <point x="138.47" y="210.46"/>
      <point x="139.39" y="142.17" type="curve" smooth="yes"/>
      <point x="140.31" y="73.88"/>
      <point x="142.56" y="37.94"/>
      <point x="146.15" y="34.36" type="curve" smooth="yes"/>
      <point x="150.97" y="28.94"/>
      <point x="156.73" y="26.23"/>
      <point x="163.43" y="26.23" type="curve" smooth="yes"/>
      <point x="170.13" y="26.23"/>
      <point x="175.89" y="28.94"/>
      <point x="180.71" y="34.36" type="curve" smooth="yes"/>
      <point x="184.3" y="37.95"/>
      <point x="186.55" y="73.65"/>
      <point x="187.46" y="141.48" type="curve" smooth="yes"/>
      <point x="188.38" y="209.3"/>
      <point x="188.84" y="378.23"/>
      <point x="188.84" y="648.25" type="curve" smooth="yes"/>
      <point x="188.84" y="913.33"/>
      <point x="189.28" y="1081.04"/>
      <point x="190.17" y="1151.39" type="curve" smooth="yes"/>
      <point x="191.05" y="1221.74"/>
      <point x="193.15" y="1258.32"/>
      <point x="196.47" y="1261.12" type="curve" smooth="yes"/>
      <point x="201.35" y="1265.19"/>
      <point x="319.93" y="1267.22"/>
      <point x="552.2" y="1267.22" type="curve" smooth="yes"/>
      <point x="784.39" y="1267.22"/>
      <point x="902.96" y="1265.19"/>
      <point x="907.93" y="1261.12" type="curve" smooth="yes"/>
      <point x="911.23" y="1258.32"/>
      <point x="913.33" y="1221.26"/>
      <point x="914.22" y="1149.91" type="curve" smooth="yes"/>
      <point x="915.11" y="1078.57"/>
      <point x="915.55" y="911.35"/>
      <point x="915.55" y="648.24" type="curve" smooth="yes"/>
      <point x="915.55" y="378.2"/>
      <point x="916.01" y="209.28"/>
      <point x="916.93" y="141.46" type="curve" smooth="yes"/>
      <point x="917.85" y="73.64"/>
      <point x="920.1" y="37.94"/>
      <point x="923.68" y="34.35" type="curve" smooth="yes"/>
      <point x="928.5" y="28.93"/>
      <point x="934.26" y="26.22"/>
      <point x="940.96" y="26.22" type="curve" smooth="yes"/>
      <point x="947.66" y="26.22"/>
      <point x="953.42" y="28.93"/>
      <point x="958.24" y="34.35" type="curve" smooth="yes"/>
      <point x="961.83" y="37.94"/>
      <point x="964.08" y="73.9"/>
      <point x="964.99" y="142.24" type="curve" smooth="yes"/>
      <point x="965.91" y="210.58"/>
      <point x="966.37" y="380.77"/>
      <point x="966.37" y="652.82" type="curve" smooth="yes"/>
      <point x="966.37" y="943.68"/>
      <point x="965.93" y="1119.06"/>
      <point x="965.05" y="1178.96" type="curve" smooth="yes"/>
      <point x="964.17" y="1238.87"/>
      <point x="961.56" y="1273.03"/>
      <point x="957.22" y="1281.45" type="curve" smooth="yes"/>
      <point x="950.67" y="1292.76"/>
      <point x="941.36" y="1301.74"/>
      <point x="929.27" y="1308.38" type="curve" smooth="yes"/>
      <point x="920.64" y="1312.95"/>
      <point x="898.65" y="1315.72"/>
      <point x="863.28" y="1316.7" type="curve" smooth="yes"/>
      <point x="827.91" y="1317.68"/>
      <point x="727.77" y="1318.29"/>
    </contour>
  </outline>
</glyph>
<glyph name="Sigma" format="2">
  <advance width="1012"/>
  <unicode hex="03A3"/>
  <note>
Sigma
</note>
  <outline>
    <contour>
      <point x="226.52" y="1322.86" type="curve" smooth="yes"/>
      <point x="226.54" y="1322.85" type="line" smooth="yes"/>
      <point x="206.93" y="1324.69"/>
      <point x="189.14" y="1324.01"/>
      <point x="173.18" y="1320.82" type="curve" smooth="yes"/>
      <point x="158.5" y="1318.56"/>
      <point x="146.98" y="1315.34"/>
      <point x="138.62" y="1311.16" type="curve" smooth="yes"/>
      <point x="131.05" y="1306.34"/>
      <point x="124.78" y="1300.07"/>
      <point x="119.82" y="1292.36" type="curve" smooth="yes"/>
      <point x="114.39" y="1284.42"/>
      <point x="112.35" y="1269.51"/>
      <point x="113.72" y="1247.64" type="curve" smooth="yes"/>
      <point x="115.86" y="1225.74"/>
      <point x="121.95" y="1204.23"/>
      <point x="132.01" y="1183.1" type="curve" smooth="yes"/>
      <point x="142.31" y="1161.3"/>
      <point x="154" y="1141.98"/>
      <point x="167.08" y="1125.17" type="curve" smooth="yes"/>
      <point x="175.19" y="1113.81"/>
      <point x="215.34" y="1063.84"/>
      <point x="287.52" y="975.26" type="curve" smooth="yes"/>
      <point x="347.57" y="901.56"/>
      <point x="392.97" y="846.85"/>
      <point x="423.71" y="811.11" type="curve" smooth="yes"/>
      <point x="447.32" y="782.91"/>
      <point x="462.06" y="762.41"/>
      <point x="467.92" y="749.62" type="curve" smooth="yes"/>
      <point x="475.03" y="735.98"/>
      <point x="478.59" y="722.77"/>
      <point x="478.59" y="709.98" type="curve" smooth="yes"/>
      <point x="478.59" y="698.26"/>
      <point x="474.02" y="683.86"/>
      <point x="464.87" y="666.78" type="curve" smooth="yes"/>
      <point x="453.97" y="648.38"/>
      <point x="398.57" y="572.49"/>
      <point x="298.69" y="439.11" type="curve" smooth="yes"/>
      <point x="195.16" y="301.07"/>
      <point x="137.39" y="221.96"/>
      <point x="125.4" y="201.79" type="curve" smooth="yes"/>
      <point x="111.52" y="179.46"/>
      <point x="101.35" y="158.62"/>
      <point x="94.91" y="139.28" type="curve" smooth="yes"/>
      <point x="88.96" y="119.82"/>
      <point x="86.76" y="101.86"/>
      <point x="88.3" y="85.41" type="curve" smooth="yes"/>
      <point x="90.38" y="68.24"/>
      <point x="95.13" y="55.7"/>
      <point x="102.53" y="47.8" type="curve" smooth="yes"/>
      <point x="111.39" y="38.94"/>
      <point x="121.38" y="32.84"/>
      <point x="132.51" y="29.51" type="curve" smooth="yes"/>
      <point x="145.09" y="25.11"/>
      <point x="164.74" y="22.9"/>
      <point x="191.46" y="22.9" type="curve" smooth="yes"/>
      <point x="205.45" y="22.58"/>
      <point x="315.9" y="22.75"/>
      <point x="522.8" y="23.41" type="curve" smooth="yes"/>
      <point x="651.55" y="24.18"/>
      <point x="732.57" y="25.09"/>
      <point x="765.86" y="26.16" type="curve" smooth="yes"/>
      <point x="799.15" y="27.23"/>
      <point x="817.57" y="29.53"/>
      <point x="821.11" y="33.07" type="curve" smooth="yes"/>
      <point x="826.53" y="37.89"/>
      <point x="829.24" y="43.65"/>
      <point x="829.24" y="50.35" type="curve" smooth="yes"/>
      <point x="829.24" y="56.79"/>
      <point x="826.53" y="62.72"/>
      <point x="821.11" y="68.14" type="curve" smooth="yes"/>
      <point x="817.32" y="71.93"/>
      <point x="797.65" y="74.19"/>
      <point x="762.1" y="74.92" type="curve" smooth="yes"/>
      <point x="726.55" y="75.65"/>
      <point x="632.9" y="75.76"/>
      <point x="481.13" y="75.25" type="curve" smooth="yes"/>
      <point x="259.98" y="74.63"/>
      <point x="147.67" y="75.48"/>
      <point x="144.2" y="77.79" type="curve" smooth="yes"/>
      <point x="140.13" y="80.11"/>
      <point x="138.1" y="86.21"/>
      <point x="138.1" y="96.08" type="curve" smooth="yes"/>
      <point x="138.1" y="105.75"/>
      <point x="140.98" y="117.95"/>
      <point x="146.74" y="132.67" type="curve" smooth="yes"/>
      <point x="151.89" y="146.41"/>
      <point x="160.19" y="162.5"/>
      <point x="171.64" y="180.95" type="curve" smooth="yes"/>
      <point x="186.12" y="203.48"/>
      <point x="242.87" y="280.55"/>
      <point x="341.88" y="412.18" type="curve" smooth="yes"/>
      <point x="444.73" y="549.11"/>
      <point x="500.97" y="627.2"/>
      <point x="510.6" y="646.46" type="curve" smooth="yes"/>
      <point x="520.98" y="666.23"/>
      <point x="526.91" y="686.22"/>
      <point x="528.39" y="706.43" type="curve" smooth="yes"/>
      <point x="529.4" y="719.29"/>
      <point x="529.11" y="729.39"/>
      <point x="527.53" y="736.71" type="curve" smooth="yes"/>
      <point x="525.95" y="744.03"/>
      <point x="521.83" y="754.6"/>
      <point x="515.17" y="768.43" type="curve" smooth="yes"/>
      <point x="504.5" y="789.77"/>
      <point x="487.05" y="814.67"/>
      <point x="462.83" y="843.13" type="curve" smooth="yes"/>
      <point x="412.21" y="904.13"/>
      <point x="366.81" y="959.19"/>
      <point x="326.64" y="1008.29" type="curve" smooth="yes"/>
      <point x="310.55" y="1027.96"/>
      <point x="293.54" y="1048.79"/>
      <point x="275.63" y="1070.78" type="curve" smooth="yes"/>
      <point x="257.71" y="1092.77"/>
      <point x="242.77" y="1111.14"/>
      <point x="230.79" y="1125.87" type="curve" smooth="yes"/>
      <point x="218.81" y="1140.61"/>
      <point x="211.97" y="1149.01"/>
      <point x="210.27" y="1151.09" type="curve" smooth="yes"/>
      <point x="199.4" y="1165.8"/>
      <point x="188.9" y="1183.58"/>
      <point x="178.76" y="1204.45" type="curve" smooth="yes"/>
      <point x="168.6" y="1226.68"/>
      <point x="163.51" y="1243.12"/>
      <point x="163.51" y="1253.74" type="curve" smooth="yes"/>
      <point x="163.51" y="1261.11"/>
      <point x="164.4" y="1265.68"/>
      <point x="166.18" y="1267.46" type="curve" smooth="yes"/>
      <point x="167.96" y="1269.24"/>
      <point x="172.66" y="1270.26"/>
      <point x="180.28" y="1270.51" type="curve" smooth="yes"/>
      <point x="275.82" y="1270.51"/>
      <point x="375.42" y="1270.34"/>
      <point x="479.09" y="1270" type="curve" smooth="yes"/>
      <point x="608.14" y="1269.74"/>
      <point x="687.99" y="1270.01"/>
      <point x="718.64" y="1270.79" type="curve" smooth="yes"/>
      <point x="749.29" y="1271.57"/>
      <point x="766.51" y="1273.85"/>
      <point x="770.28" y="1277.63" type="curve" smooth="yes"/>
      <point x="775.7" y="1283.05"/>
      <point x="778.41" y="1288.98"/>
      <point x="778.41" y="1295.42" type="curve" smooth="yes"/>
      <point x="778.41" y="1302.12"/>
      <point x="775.7" y="1307.88"/>
      <point x="770.28" y="1312.7" type="curve" smooth="yes"/>
      <point x="766.71" y="1316.27"/>
      <point x="750.18" y="1318.51"/>
      <point x="720.68" y="1319.44" type="curve" smooth="yes"/>
      <point x="691.18" y="1320.37"/>
      <point x="620.81" y="1320.83"/>
      <point x="509.58" y="1320.83" type="curve" smooth="yes"/>
      <point x="342.54" y="1320.83"/>
      <point x="248.19" y="1321.51"/>
    </contour>
  </outline>
</glyph>
<glyph name="Upsilon" format="2">
  <advance width="1120"/>
  <unicode hex="03A5"/>
  <note>
Upsilon
</note>
  <anchor x="560" y="1292" name="top"/>
  <anchor x="20" y="1292" name="topleft"/>
  <outline>
    <contour>
      <point x="61.39" y="1337.37" type="curve" smooth="yes"/>
      <point x="61.39" y="1337.35" type="line" smooth="yes"/>
      <point x="55.37" y="1337.35"/>
      <point x="49.95" y="1334.64"/>
      <point x="45.13" y="1329.22" type="curve" smooth="yes"/>
      <point x="39.71" y="1324.4"/>
      <point x="37" y="1319.15"/>
      <point x="37" y="1313.47" type="curve" smooth="yes"/>
      <point x="37" y="1309.01"/>
      <point x="53.77" y="1274.79"/>
      <point x="87.31" y="1210.82" type="curve" smooth="yes"/>
      <point x="145.2" y="1101.48"/>
      <point x="189.07" y="1018.31"/>
      <point x="218.93" y="961.3" type="curve" smooth="yes"/>
      <point x="283.75" y="836.13"/>
      <point x="320.51" y="764.98"/>
      <point x="329.21" y="747.86" type="curve" smooth="yes"/>
      <point x="347.09" y="711.52"/>
      <point x="362.68" y="683.9"/>
      <point x="375.96" y="665.03" type="curve" smooth="yes"/>
      <point x="387.57" y="649.14"/>
      <point x="400.96" y="636.77"/>
      <point x="416.11" y="627.93" type="curve" smooth="yes"/>
      <point x="438.47" y="614.72" type="line"/>
      <point x="438.47" y="328.61" type="line" smooth="yes"/>
      <point x="438.47" y="202.3"/>
      <point x="438.93" y="122.57"/>
      <point x="439.86" y="89.43" type="curve" smooth="yes"/>
      <point x="440.78" y="56.29"/>
      <point x="443.03" y="37.94"/>
      <point x="446.6" y="34.37" type="curve" smooth="yes"/>
      <point x="451.42" y="28.95"/>
      <point x="457.18" y="26.24"/>
      <point x="463.88" y="26.24" type="curve" smooth="yes"/>
      <point x="470.58" y="26.24"/>
      <point x="476.34" y="28.95"/>
      <point x="481.16" y="34.37" type="curve" smooth="yes"/>
      <point x="484.73" y="37.94"/>
      <point x="486.98" y="56.42"/>
      <point x="487.9" y="89.79" type="curve" smooth="yes"/>
      <point x="488.82" y="123.16"/>
      <point x="489.29" y="203.62"/>
      <point x="489.29" y="331.15" type="curve" smooth="yes"/>
      <point x="489.29" y="619.8" type="line"/>
      <point x="504.54" y="625.9" type="line" smooth="yes"/>
      <point x="515.16" y="630.27"/>
      <point x="527.52" y="640.44"/>
      <point x="541.64" y="656.39" type="curve" smooth="yes"/>
      <point x="556.35" y="673.02"/>
      <point x="571.77" y="697.75"/>
      <point x="587.89" y="730.59" type="curve" smooth="yes"/>
      <point x="601.81" y="759.5"/>
      <point x="639.59" y="833.02"/>
      <point x="701.22" y="951.14" type="curve" smooth="yes"/>
      <point x="753.61" y="1050.52"/>
      <point x="800.19" y="1137.59"/>
      <point x="840.97" y="1212.35" type="curve" smooth="yes"/>
      <point x="874.61" y="1272.81"/>
      <point x="890.54" y="1306.86"/>
      <point x="888.74" y="1314.5" type="curve" smooth="yes"/>
      <point x="886.83" y="1322.78"/>
      <point x="882.42" y="1327.86"/>
      <point x="875.53" y="1329.75" type="curve" smooth="yes"/>
      <point x="868.08" y="1331.78"/>
      <point x="861.81" y="1331.95"/>
      <point x="856.73" y="1330.26" type="curve" smooth="yes"/>
      <point x="851.04" y="1328.55"/>
      <point x="836.64" y="1307.72"/>
      <point x="813.53" y="1267.75" type="curve" smooth="yes"/>
      <point x="789.05" y="1224.74"/>
      <point x="759.74" y="1170.88"/>
      <point x="725.61" y="1106.15" type="curve" smooth="yes"/>
      <point x="688.61" y="1037.17"/>
      <point x="644.23" y="952.13"/>
      <point x="592.46" y="851.04" type="curve" smooth="yes"/>
      <point x="540.35" y="749.15"/>
      <point x="508.34" y="692.75"/>
      <point x="496.41" y="681.81" type="curve" smooth="yes"/>
      <point x="484.21" y="671.65"/>
      <point x="472.69" y="666.56"/>
      <point x="461.85" y="666.56" type="curve" smooth="yes"/>
      <point x="450.56" y="666.56"/>
      <point x="439.04" y="672.66"/>
      <point x="427.29" y="684.85" type="curve" smooth="yes"/>
      <point x="415.67" y="695.88"/>
      <point x="403.14" y="714.86"/>
      <point x="389.68" y="741.77" type="curve" smooth="yes"/>
      <point x="374.68" y="771.78"/>
      <point x="341.98" y="834.8"/>
      <point x="291.6" y="930.82" type="curve" smooth="yes"/>
      <point x="267.94" y="976.45"/>
      <point x="220" y="1067.93"/>
      <point x="147.78" y="1205.24" type="curve" smooth="yes"/>
      <point x="103.48" y="1288.3"/>
      <point x="79.6" y="1330.99"/>
      <point x="76.13" y="1333.3" type="curve" smooth="yes"/>
      <point x="71.39" y="1336.01"/>
      <point x="66.47" y="1337.37"/>
    </contour>
  </outline>
</glyph>
<glyph name="Phi" format="2">
  <advance width="1357"/>
  <unicode hex="03A6"/>
  <note>
Phi
</note>
  <outline>
    <contour>
      <point x="622.46" y="1326.77" type="curve" smooth="yes"/>
      <point x="615.77" y="1326.77"/>
      <point x="610.01" y="1324.06"/>
      <point x="605.19" y="1318.64" type="curve" smooth="yes"/>
      <point x="599.77" y="1313.22"/>
      <point x="597.06" y="1285.44"/>
      <point x="597.06" y="1235.3" type="curve" smooth="yes"/>
      <point x="597.06" y="1160.09" type="line"/>
      <point x="565.55" y="1157.04" type="line" smooth="yes"/>
      <point x="524.15" y="1153.49"/>
      <point x="493.15" y="1150.78"/>
      <point x="472.55" y="1148.91" type="curve" smooth="yes"/>
      <point x="434.06" y="1145.41"/>
      <point x="401.87" y="1141.01"/>
      <point x="375.99" y="1135.7" type="curve" smooth="yes"/>
      <point x="351.74" y="1129.96"/>
      <point x="325.48" y="1120.47"/>
      <point x="297.22" y="1107.24" type="curve" smooth="yes"/>
      <point x="280.09" y="1099.18"/>
      <point x="266.08" y="1091.14"/>
      <point x="255.19" y="1083.13" type="curve" smooth="yes"/>
      <point x="244.3" y="1075.12"/>
      <point x="231.04" y="1063.17"/>
      <point x="215.4" y="1047.27" type="curve" smooth="yes"/>
      <point x="199.47" y="1031.34"/>
      <point x="187.33" y="1017.46"/>
      <point x="178.98" y="1005.62" type="curve" smooth="yes"/>
      <point x="170.62" y="993.78"/>
      <point x="161.08" y="977"/>
      <point x="150.35" y="955.29" type="curve" smooth="yes"/>
      <point x="133.32" y="920.62"/>
      <point x="120.1" y="886.06"/>
      <point x="110.71" y="851.62" type="curve" smooth="yes"/>
      <point x="104.51" y="827.85"/>
      <point x="100.67" y="808.01"/>
      <point x="99.2" y="792.1" type="curve" smooth="yes"/>
      <point x="97.73" y="776.19"/>
      <point x="96.99" y="745.21"/>
      <point x="96.99" y="699.17" type="curve" smooth="yes"/>
      <point x="96.99" y="654.21"/>
      <point x="97.58" y="623.42"/>
      <point x="98.76" y="606.79" type="curve" smooth="yes"/>
      <point x="99.94" y="590.16"/>
      <point x="102.91" y="572.34"/>
      <point x="107.66" y="553.32" type="curve" smooth="yes"/>
      <point x="117.43" y="517.23"/>
      <point x="126.58" y="488.77"/>
      <point x="135.1" y="467.95" type="curve" smooth="yes"/>
      <point x="145.16" y="441.32"/>
      <point x="158.71" y="415.06"/>
      <point x="175.76" y="389.18" type="curve" smooth="yes"/>
      <point x="192.83" y="363.89"/>
      <point x="210.28" y="343.22"/>
      <point x="228.1" y="327.18" type="curve" smooth="yes"/>
      <point x="246.25" y="310.91"/>
      <point x="264.71" y="297.02"/>
      <point x="283.49" y="285.51" type="curve" smooth="yes"/>
      <point x="302.42" y="274.52"/>
      <point x="325.96" y="264.02"/>
      <point x="354.13" y="254" type="curve" smooth="yes"/>
      <point x="384.84" y="243.99"/>
      <point x="414.14" y="236.7"/>
      <point x="442.05" y="232.15" type="curve" smooth="yes"/>
      <point x="476.24" y="226.68"/>
      <point x="509.78" y="223.12"/>
      <point x="542.67" y="221.48" type="curve" smooth="yes"/>
      <point x="597.05" y="217.92" type="line"/>
      <point x="597.05" y="124.92" type="line" smooth="yes"/>
      <point x="597.05" y="86.17"/>
      <point x="597.57" y="60.46"/>
      <point x="598.61" y="47.79" type="curve" smooth="yes"/>
      <point x="599.65" y="35.12"/>
      <point x="601.84" y="27.12"/>
      <point x="605.18" y="23.79" type="curve" smooth="yes"/>
      <point x="610" y="18.37"/>
      <point x="615.76" y="15.66"/>
      <point x="622.46" y="15.66" type="curve" smooth="yes"/>
      <point x="629.16" y="15.66"/>
      <point x="634.92" y="18.37"/>
      <point x="639.74" y="23.79" type="curve" smooth="yes"/>
      <point x="643.08" y="27.13"/>
      <point x="645.27" y="35.32"/>
      <point x="646.31" y="48.37" type="curve" smooth="yes"/>
      <point x="647.35" y="61.42"/>
      <point x="647.87" y="87.95"/>
      <point x="647.87" y="127.97" type="curve" smooth="yes"/>
      <point x="647.87" y="224.02" type="line"/>
      <point x="674.8" y="224.02" type="line" smooth="yes"/>
      <point x="689.02" y="224.02"/>
      <point x="716.46" y="225.71"/>
      <point x="757.13" y="229.1" type="curve" smooth="yes"/>
      <point x="792.4" y="232.57"/>
      <point x="822.04" y="236.98"/>
      <point x="846.06" y="242.31" type="curve" smooth="yes"/>
      <point x="868.02" y="247.19"/>
      <point x="892.75" y="256.51"/>
      <point x="920.26" y="270.26" type="curve" smooth="yes"/>
      <point x="948.5" y="283.77"/>
      <point x="972.73" y="300.03"/>
      <point x="992.93" y="319.05" type="curve" smooth="yes"/>
      <point x="1013.32" y="337.04"/>
      <point x="1031.28" y="357.03"/>
      <point x="1046.8" y="379.01" type="curve" smooth="yes"/>
      <point x="1062.62" y="401.16"/>
      <point x="1076.17" y="424.71"/>
      <point x="1087.45" y="449.65" type="curve" smooth="yes"/>
      <point x="1098.2" y="471.7"/>
      <point x="1108.37" y="500.15"/>
      <point x="1117.94" y="535.02" type="curve" smooth="yes"/>
      <point x="1126.18" y="567.34"/>
      <point x="1132.11" y="601.9"/>
      <point x="1135.73" y="638.69" type="curve" smooth="yes"/>
      <point x="1139.49" y="675.38"/>
      <point x="1139.66" y="714.51"/>
      <point x="1136.24" y="756.08" type="curve" smooth="yes"/>
      <point x="1132.48" y="798.09"/>
      <point x="1128.24" y="830.27"/>
      <point x="1123.54" y="852.64" type="curve" smooth="yes"/>
      <point x="1119.09" y="873.77"/>
      <point x="1112.49" y="896.81"/>
      <point x="1103.72" y="921.75" type="curve" smooth="yes"/>
      <point x="1095.21" y="944.23"/>
      <point x="1085.39" y="965.06"/>
      <point x="1074.24" y="984.26" type="curve" smooth="yes"/>
      <point x="1061.37" y="1004.59"/>
      <point x="1046.63" y="1023.05"/>
      <point x="1030.03" y="1039.65" type="curve" smooth="yes"/>
      <point x="1010.9" y="1058.78"/>
      <point x="992.27" y="1074.19"/>
      <point x="974.13" y="1085.89" type="curve" smooth="yes"/>
      <point x="955.4" y="1098.58"/>
      <point x="933.21" y="1109.93"/>
      <point x="907.56" y="1119.94" type="curve" smooth="yes"/>
      <point x="879.85" y="1130.5"/>
      <point x="851.73" y="1138.63"/>
      <point x="823.2" y="1144.33" type="curve" smooth="yes"/>
      <point x="790.21" y="1151.06"/>
      <point x="753.45" y="1155.3"/>
      <point x="712.92" y="1157.04" type="curve" smooth="yes"/>
      <point x="647.87" y="1160.6" type="line"/>
      <point x="647.87" y="1235.81" type="line" smooth="yes"/>
      <point x="647.87" y="1285.61"/>
      <point x="645.16" y="1313.22"/>
      <point x="639.74" y="1318.64" type="curve" smooth="yes"/>
      <point x="634.92" y="1324.06"/>
      <point x="629.16" y="1326.77"/>
    </contour>
    <contour>
      <point x="585.86" y="1107.72" type="curve" smooth="yes"/>
      <point x="585.87" y="1107.74" type="line"/>
      <point x="597.05" y="1108.25" type="line"/>
      <point x="597.05" y="688.99" type="line"/>
      <point x="597.05" y="269.73" type="line"/>
      <point x="583.33" y="269.73" type="line" smooth="yes"/>
      <point x="574.24" y="269.73"/>
      <point x="549.5" y="271.59"/>
      <point x="509.13" y="275.32" type="curve" smooth="yes"/>
      <point x="473.27" y="278.12"/>
      <point x="440.24" y="283.03"/>
      <point x="410.03" y="290.06" type="curve" smooth="yes"/>
      <point x="385.65" y="296.44"/>
      <point x="358.89" y="306.44"/>
      <point x="329.74" y="320.04" type="curve" smooth="yes"/>
      <point x="302.13" y="333.85"/>
      <point x="280.61" y="347.57"/>
      <point x="265.2" y="361.2" type="curve" smooth="yes"/>
      <point x="250.14" y="374.46"/>
      <point x="234.72" y="392.75"/>
      <point x="218.95" y="416.08" type="curve" smooth="yes"/>
      <point x="203.79" y="439.45"/>
      <point x="191.77" y="461.81"/>
      <point x="182.87" y="483.16" type="curve" smooth="yes"/>
      <point x="173.62" y="506.95"/>
      <point x="165.83" y="531.51"/>
      <point x="159.49" y="556.85" type="curve" smooth="yes"/>
      <point x="152.8" y="583.63"/>
      <point x="148.39" y="621.06"/>
      <point x="146.28" y="669.16" type="curve" smooth="yes"/>
      <point x="144.18" y="715.79"/>
      <point x="145.37" y="753.91"/>
      <point x="149.84" y="783.5" type="curve" smooth="yes"/>
      <point x="153.41" y="810.89"/>
      <point x="159.68" y="838.67"/>
      <point x="168.64" y="866.84" type="curve" smooth="yes"/>
      <point x="178.25" y="897.04"/>
      <point x="188.75" y="922.45"/>
      <point x="200.15" y="943.07" type="curve" smooth="yes"/>
      <point x="212.01" y="966.78"/>
      <point x="229.12" y="989.82"/>
      <point x="251.48" y="1012.18" type="curve" smooth="yes"/>
      <point x="273.01" y="1034.22"/>
      <point x="295.2" y="1050.82"/>
      <point x="318.05" y="1061.98" type="curve" smooth="yes"/>
      <point x="340.35" y="1072.51"/>
      <point x="367.45" y="1081.15"/>
      <point x="399.36" y="1087.9" type="curve" smooth="yes"/>
      <point x="432.61" y="1094.42"/>
      <point x="469.7" y="1099.16"/>
      <point x="510.65" y="1102.13" type="curve" smooth="yes"/>
      <point x="539.64" y="1104.23"/>
      <point x="564.71" y="1106.09"/>
    </contour>
    <contour>
      <point x="647.89" y="1108.21" type="line"/>
      <point x="682.42" y="1108.23" type="line" smooth="yes"/>
      <point x="705.17" y="1108.23"/>
      <point x="731.77" y="1106.37"/>
      <point x="762.21" y="1102.64" type="curve" smooth="yes"/>
      <point x="791.15" y="1099.17"/>
      <point x="820.46" y="1093.24"/>
      <point x="850.13" y="1084.85" type="curve" smooth="yes"/>
      <point x="877.4" y="1077.14"/>
      <point x="901.96" y="1067.83"/>
      <point x="923.82" y="1056.9" type="curve" smooth="yes"/>
      <point x="945.28" y="1045.61"/>
      <point x="967.81" y="1028.16"/>
      <point x="991.41" y="1004.56" type="curve" smooth="yes"/>
      <point x="1015.59" y="980.38"/>
      <point x="1032.87" y="957.17"/>
      <point x="1043.24" y="934.94" type="curve" smooth="yes"/>
      <point x="1053.99" y="912.85"/>
      <point x="1062.8" y="887.44"/>
      <point x="1069.67" y="858.71" type="curve" smooth="yes"/>
      <point x="1076.39" y="827.79"/>
      <point x="1081.47" y="793.4"/>
      <point x="1084.92" y="755.55" type="curve" smooth="yes"/>
      <point x="1088.79" y="717.74"/>
      <point x="1088.79" y="678.78"/>
      <point x="1084.92" y="638.67" type="curve" smooth="yes"/>
      <point x="1080.38" y="599.11"/>
      <point x="1074.11" y="565.91"/>
      <point x="1066.12" y="539.06" type="curve" smooth="yes"/>
      <point x="1058.33" y="510.89"/>
      <point x="1048.5" y="484.63"/>
      <point x="1036.65" y="460.29" type="curve" smooth="yes"/>
      <point x="1024.58" y="436.14"/>
      <point x="1011.36" y="414.8"/>
      <point x="997.01" y="396.26" type="curve" smooth="yes"/>
      <point x="980.89" y="376.27"/>
      <point x="965.98" y="360.85"/>
      <point x="952.29" y="350.01" type="curve" smooth="yes"/>
      <point x="937.55" y="337.73"/>
      <point x="919.77" y="326.38"/>
      <point x="898.93" y="315.96" type="curve" smooth="yes"/>
      <point x="880.38" y="306.4"/>
      <point x="860.05" y="298.61"/>
      <point x="837.95" y="292.58" type="curve" smooth="yes"/>
      <point x="819.23" y="287.9"/>
      <point x="790.6" y="283.66"/>
      <point x="752.07" y="279.87" type="curve" smooth="yes"/>
      <point x="711.42" y="276.48"/>
      <point x="684.82" y="274.79"/>
      <point x="672.28" y="274.79" type="curve" smooth="yes"/>
      <point x="647.89" y="274.79" type="line"/>
      <point x="647.89" y="691.5" type="line"/>
    </contour>
  </outline>
</glyph>
<glyph name="Psi" format="2">
  <advance width="1352"/>
  <unicode hex="03A8"/>
  <note>
Psi
</note>
  <outline>
    <contour>
      <point x="144.49" y="1324.63" type="curve" smooth="yes"/>
      <point x="144.48" y="1324.65" type="line" smooth="yes"/>
      <point x="138.72" y="1324.65"/>
      <point x="133.47" y="1322.28"/>
      <point x="128.73" y="1317.54" type="curve" smooth="yes"/>
      <point x="124.23" y="1312.59"/>
      <point x="120.84" y="1280.74"/>
      <point x="118.57" y="1222" type="curve" smooth="yes"/>
      <point x="116.2" y="1165.68"/>
      <point x="115.01" y="1097.92"/>
      <point x="115.01" y="1018.72" type="curve" smooth="yes"/>
      <point x="115.01" y="939.61"/>
      <point x="117.55" y="882.02"/>
      <point x="122.63" y="845.93" type="curve" smooth="yes"/>
      <point x="127.69" y="806.7"/>
      <point x="133.79" y="774.01"/>
      <point x="140.92" y="747.85" type="curve" smooth="yes"/>
      <point x="147.71" y="720.7"/>
      <point x="156.35" y="694.78"/>
      <point x="166.84" y="670.1" type="curve" smooth="yes"/>
      <point x="177.88" y="644.13"/>
      <point x="190.92" y="619.56"/>
      <point x="205.97" y="596.41" type="curve" smooth="yes"/>
      <point x="221.96" y="571.81"/>
      <point x="239.75" y="550.63"/>
      <point x="259.33" y="532.88" type="curve" smooth="yes"/>
      <point x="280.95" y="513.81"/>
      <point x="305" y="498.06"/>
      <point x="331.49" y="485.62" type="curve" smooth="yes"/>
      <point x="359.44" y="472.2"/>
      <point x="389.25" y="462.04"/>
      <point x="420.93" y="455.13" type="curve" smooth="yes"/>
      <point x="453.58" y="448.73"/>
      <point x="491.87" y="444.32"/>
      <point x="535.78" y="441.92" type="curve" smooth="yes"/>
      <point x="602.86" y="438.87" type="line"/>
      <point x="602.86" y="239.15" type="line" smooth="yes"/>
      <point x="602.86" y="151.74"/>
      <point x="603.33" y="96.16"/>
      <point x="604.26" y="72.4" type="curve" smooth="yes"/>
      <point x="605.19" y="48.64"/>
      <point x="607.44" y="35.11"/>
      <point x="610.99" y="31.81" type="curve" smooth="yes"/>
      <point x="615.81" y="26.39"/>
      <point x="621.57" y="23.68"/>
      <point x="628.27" y="23.68" type="curve" smooth="yes"/>
      <point x="634.97" y="23.68"/>
      <point x="640.73" y="26.39"/>
      <point x="645.55" y="31.81" type="curve" smooth="yes"/>
      <point x="649.11" y="35.11"/>
      <point x="651.35" y="48.73"/>
      <point x="652.28" y="72.67" type="curve" smooth="yes"/>
      <point x="653.21" y="96.61"/>
      <point x="653.68" y="152.44"/>
      <point x="653.68" y="240.17" type="curve" smooth="yes"/>
      <point x="653.68" y="440.39" type="line"/>
      <point x="698.4" y="440.39" type="line" smooth="yes"/>
      <point x="725.5" y="440.39"/>
      <point x="754.64" y="442.08"/>
      <point x="785.81" y="445.47" type="curve" smooth="yes"/>
      <point x="814.85" y="449.18"/>
      <point x="841.11" y="454.43"/>
      <point x="864.58" y="461.22" type="curve" smooth="yes"/>
      <point x="885.61" y="467.15"/>
      <point x="908.48" y="476.64"/>
      <point x="933.19" y="489.68" type="curve" smooth="yes"/>
      <point x="954.95" y="501.96"/>
      <point x="978.67" y="520.93"/>
      <point x="1004.34" y="546.6" type="curve" smooth="yes"/>
      <point x="1029.31" y="572.18"/>
      <point x="1048.45" y="596.06"/>
      <point x="1061.77" y="618.25" type="curve" smooth="yes"/>
      <point x="1076.09" y="644.03"/>
      <point x="1087.44" y="667.92"/>
      <point x="1095.82" y="689.9" type="curve" smooth="yes"/>
      <point x="1105.55" y="714.83"/>
      <point x="1113.85" y="744.48"/>
      <point x="1120.72" y="778.83" type="curve" smooth="yes"/>
      <point x="1127.01" y="809.68"/>
      <point x="1132.43" y="850.16"/>
      <point x="1136.98" y="900.29" type="curve" smooth="yes"/>
      <point x="1140.7" y="948.7"/>
      <point x="1140.53" y="1026.62"/>
      <point x="1136.47" y="1134.06" type="curve" smooth="yes"/>
      <point x="1132.81" y="1241.38"/>
      <point x="1130.27" y="1299.32"/>
      <point x="1128.85" y="1307.86" type="curve" smooth="yes"/>
      <point x="1126.92" y="1315.56"/>
      <point x="1122.69" y="1320.3"/>
      <point x="1116.15" y="1322.09" type="curve" smooth="yes"/>
      <point x="1109.37" y="1323.94"/>
      <point x="1102.6" y="1323.94"/>
      <point x="1095.82" y="1322.09" type="curve" smooth="yes"/>
      <point x="1088.86" y="1320.19"/>
      <point x="1084.45" y="1314.94"/>
      <point x="1082.61" y="1306.34" type="curve" smooth="yes"/>
      <point x="1080.32" y="1298.33"/>
      <point x="1081.34" y="1241.24"/>
      <point x="1085.66" y="1135.08" type="curve" smooth="yes"/>
      <point x="1089.45" y="1026.45"/>
      <point x="1089.62" y="949.88"/>
      <point x="1086.17" y="905.38" type="curve" smooth="yes"/>
      <point x="1082.71" y="860.98"/>
      <point x="1077.63" y="822.02"/>
      <point x="1070.92" y="788.5" type="curve" smooth="yes"/>
      <point x="1064.82" y="758.63"/>
      <point x="1056.35" y="729.67"/>
      <point x="1045.51" y="701.6" type="curve" smooth="yes"/>
      <point x="1035.77" y="675.82"/>
      <point x="1022.22" y="650.24"/>
      <point x="1004.86" y="624.86" type="curve" smooth="yes"/>
      <point x="987.96" y="601.07"/>
      <point x="971.7" y="582.27"/>
      <point x="956.07" y="568.45" type="curve" smooth="yes"/>
      <point x="941.55" y="555.6"/>
      <point x="926.47" y="544.42"/>
      <point x="910.84" y="534.91" type="curve" smooth="yes"/>
      <point x="895.06" y="525.99"/>
      <point x="877.11" y="518.37"/>
      <point x="856.97" y="512.04" type="curve" smooth="yes"/>
      <point x="834.4" y="505.14"/>
      <point x="809" y="499.89"/>
      <point x="780.74" y="496.29" type="curve" smooth="yes"/>
      <point x="749.57" y="492.9"/>
      <point x="721.28" y="491.21"/>
      <point x="695.87" y="491.21" type="curve" smooth="yes"/>
      <point x="653.69" y="491.21" type="line"/>
      <point x="653.69" y="899.79" type="line" smooth="yes"/>
      <point x="653.69" y="1081.14"/>
      <point x="653.23" y="1195.04"/>
      <point x="652.31" y="1241.48" type="curve" smooth="yes"/>
      <point x="651.39" y="1287.92"/>
      <point x="649.14" y="1312.93"/>
      <point x="645.56" y="1316.51" type="curve" smooth="yes"/>
      <point x="640.74" y="1321.93"/>
      <point x="634.98" y="1324.64"/>
      <point x="628.28" y="1324.64" type="curve" smooth="yes"/>
      <point x="621.58" y="1324.64"/>
      <point x="615.82" y="1321.93"/>
      <point x="611" y="1316.51" type="curve" smooth="yes"/>
      <point x="607.42" y="1312.93"/>
      <point x="605.17" y="1287.92"/>
      <point x="604.25" y="1241.48" type="curve" smooth="yes"/>
      <point x="603.33" y="1195.04"/>
      <point x="602.87" y="1081.14"/>
      <point x="602.87" y="899.8" type="curve" smooth="yes"/>
      <point x="602.87" y="491.22" type="line"/>
      <point x="566.28" y="491.22" type="line" smooth="yes"/>
      <point x="544.6" y="491.22"/>
      <point x="517.83" y="492.91"/>
      <point x="485.99" y="496.3" type="curve" smooth="yes"/>
      <point x="460.04" y="499.06"/>
      <point x="435.65" y="503.29"/>
      <point x="412.81" y="509" type="curve" smooth="yes"/>
      <point x="392.36" y="514.58"/>
      <point x="371.87" y="522.2"/>
      <point x="351.32" y="531.87" type="curve" smooth="yes"/>
      <point x="332.04" y="540.95"/>
      <point x="313.4" y="553.14"/>
      <point x="295.42" y="568.46" type="curve" smooth="yes"/>
      <point x="278.37" y="583.62"/>
      <point x="262.1" y="603.1"/>
      <point x="246.63" y="626.9" type="curve" smooth="yes"/>
      <point x="230.7" y="651.41"/>
      <point x="217.49" y="678.17"/>
      <point x="206.99" y="707.19" type="curve" smooth="yes"/>
      <point x="196.24" y="736.9"/>
      <point x="187.26" y="768.58"/>
      <point x="180.06" y="802.22" type="curve" smooth="yes"/>
      <point x="174.46" y="827.4"/>
      <point x="171.12" y="853.24"/>
      <point x="170.02" y="879.74" type="curve" smooth="yes"/>
      <point x="168.92" y="906.24"/>
      <point x="168.37" y="974.59"/>
      <point x="168.37" y="1084.77" type="curve" smooth="yes"/>
      <point x="168.37" y="1184.4"/>
      <point x="167.93" y="1247.93"/>
      <point x="167.04" y="1275.36" type="curve" smooth="yes"/>
      <point x="166.15" y="1302.79"/>
      <point x="164.05" y="1317.52"/>
      <point x="160.75" y="1319.55" type="curve" smooth="yes"/>
      <point x="155.33" y="1322.94"/>
      <point x="149.91" y="1324.63"/>
    </contour>
  </outline>
</glyph>
<glyph name="beta" format="2">
  <advance width="944"/>
  <unicode hex="03B2"/>
  <note>
beta
</note>
  <outline>
    <contour>
      <point x="454" y="1389.9" type="curve" smooth="yes"/>
      <point x="453.99" y="1389.88" type="line" smooth="yes"/>
      <point x="429.63" y="1391.66"/>
      <point x="405.24" y="1390.99"/>
      <point x="380.85" y="1387.86" type="curve" smooth="yes"/>
      <point x="357.52" y="1384.79"/>
      <point x="335.83" y="1379.92"/>
      <point x="315.78" y="1373.23" type="curve" smooth="yes"/>
      <point x="296.52" y="1366.61"/>
      <point x="278.53" y="1358.04"/>
      <point x="261.81" y="1347.5" type="curve" smooth="yes"/>
      <point x="246.49" y="1337.85"/>
      <point x="230.68" y="1324.23"/>
      <point x="214.39" y="1306.64" type="curve" smooth="yes"/>
      <point x="199.18" y="1289.6"/>
      <point x="184.89" y="1267.41"/>
      <point x="171.51" y="1240.06" type="curve" smooth="yes"/>
      <point x="157.63" y="1212.3"/>
      <point x="147.71" y="1185.9"/>
      <point x="141.75" y="1160.86" type="curve" smooth="yes"/>
      <point x="135.86" y="1138.38"/>
      <point x="129.64" y="1102.23"/>
      <point x="123.09" y="1052.41" type="curve" smooth="yes"/>
      <point x="117.04" y="1004.45"/>
      <point x="114.01" y="934"/>
      <point x="114.01" y="841.05" type="curve" smooth="yes"/>
      <point x="114.01" y="765.39"/>
      <point x="115.69" y="624.98"/>
      <point x="119.05" y="419.85" type="curve" smooth="yes"/>
      <point x="122.46" y="233.58"/>
      <point x="122.62" y="137.06"/>
      <point x="119.55" y="130.31" type="curve" smooth="yes"/>
      <point x="116.56" y="124.82"/>
      <point x="116.22" y="38.57"/>
      <point x="118.54" y="-128.46" type="curve" smooth="yes"/>
      <point x="120.04" y="-231.42"/>
      <point x="121.51" y="-299.19"/>
      <point x="122.93" y="-331.77" type="curve" smooth="yes"/>
      <point x="124.35" y="-364.35"/>
      <point x="126.59" y="-382.16"/>
      <point x="129.64" y="-385.21" type="curve" smooth="yes"/>
      <point x="135.02" y="-389.92"/>
      <point x="140.57" y="-392.27"/>
      <point x="146.29" y="-392.27" type="curve" smooth="yes"/>
      <point x="152.04" y="-392.27"/>
      <point x="158.1" y="-389.41"/>
      <point x="164.45" y="-383.69" type="curve" smooth="yes"/>
      <point x="168.26" y="-379.63"/>
      <point x="170.4" y="-365.44"/>
      <point x="170.88" y="-341.13" type="curve" smooth="yes"/>
      <point x="171.36" y="-316.82"/>
      <point x="170.73" y="-251.31"/>
      <point x="168.99" y="-144.59" type="curve" smooth="yes"/>
      <point x="165.46" y="86.44" type="line"/>
      <point x="217.92" y="69.29" type="line" smooth="yes"/>
      <point x="243.68" y="61.01"/>
      <point x="280.33" y="48.57"/>
      <point x="327.89" y="31.96" type="curve" smooth="yes"/>
      <point x="367.86" y="18"/>
      <point x="398.13" y="9.59"/>
      <point x="418.69" y="6.74" type="curve" smooth="yes"/>
      <point x="440.89" y="3.04"/>
      <point x="461.07" y="1.19"/>
      <point x="479.22" y="1.19" type="curve" smooth="yes"/>
      <point x="497.29" y="1.19"/>
      <point x="518.31" y="3.71"/>
      <point x="542.27" y="8.76" type="curve" smooth="yes"/>
      <point x="565.65" y="13.56"/>
      <point x="588.35" y="21.46"/>
      <point x="610.37" y="32.47" type="curve" smooth="yes"/>
      <point x="632.54" y="43.05"/>
      <point x="656.08" y="61.04"/>
      <point x="680.99" y="86.44" type="curve" smooth="yes"/>
      <point x="706.18" y="111.63"/>
      <point x="725.01" y="136.18"/>
      <point x="737.49" y="160.09" type="curve" smooth="yes"/>
      <point x="748.99" y="182.52"/>
      <point x="758.57" y="205.55"/>
      <point x="766.24" y="229.2" type="curve" smooth="yes"/>
      <point x="772.66" y="250.8"/>
      <point x="778.04" y="279.89"/>
      <point x="782.38" y="316.47" type="curve" smooth="yes"/>
      <point x="786.34" y="351.72"/>
      <point x="786.34" y="386.52"/>
      <point x="782.38" y="420.89" type="curve" smooth="yes"/>
      <point x="778.64" y="455.79"/>
      <point x="774.1" y="483.03"/>
      <point x="768.76" y="502.61" type="curve" smooth="yes"/>
      <point x="764.57" y="520.44"/>
      <point x="755.49" y="544.31"/>
      <point x="741.52" y="574.24" type="curve" smooth="yes"/>
      <point x="727.9" y="601.93"/>
      <point x="710.75" y="625.47"/>
      <point x="690.07" y="644.86" type="curve" smooth="yes"/>
      <point x="666.8" y="666.13"/>
      <point x="637.21" y="687.49"/>
      <point x="601.29" y="708.92" type="curve" smooth="yes"/>
      <point x="563.63" y="732"/>
      <point x="544.79" y="744.95"/>
      <point x="544.79" y="747.76" type="curve" smooth="yes"/>
      <point x="544.79" y="750.98"/>
      <point x="559.42" y="768.13"/>
      <point x="588.68" y="799.21" type="curve" smooth="yes"/>
      <point x="618.79" y="831.2"/>
      <point x="639.64" y="856.76"/>
      <point x="651.23" y="875.88" type="curve" smooth="yes"/>
      <point x="663.62" y="894.76"/>
      <point x="673.37" y="913.25"/>
      <point x="680.49" y="931.37" type="curve" smooth="yes"/>
      <point x="686.93" y="948.35"/>
      <point x="692.98" y="970.37"/>
      <point x="698.65" y="997.45" type="curve" smooth="yes"/>
      <point x="704.03" y="1025.55"/>
      <point x="706.72" y="1058.17"/>
      <point x="706.72" y="1095.31" type="curve" smooth="yes"/>
      <point x="706.72" y="1134.65"/>
      <point x="703.19" y="1167.27"/>
      <point x="696.13" y="1193.17" type="curve" smooth="yes"/>
      <point x="689.17" y="1220.36"/>
      <point x="680.43" y="1243.9"/>
      <point x="669.9" y="1263.79" type="curve" smooth="yes"/>
      <point x="658.63" y="1285.07"/>
      <point x="644.34" y="1304.07"/>
      <point x="627.02" y="1320.79" type="curve" smooth="yes"/>
      <point x="609.93" y="1338.45"/>
      <point x="590.59" y="1352.24"/>
      <point x="569.01" y="1362.15" type="curve" smooth="yes"/>
      <point x="547.2" y="1372.12"/>
      <point x="529.04" y="1378.84"/>
      <point x="514.53" y="1382.33" type="curve" smooth="yes"/>
      <point x="498.45" y="1386.19"/>
      <point x="478.27" y="1388.71"/>
    </contour>
    <contour>
      <point x="454.01" y="1339.95" type="curve" smooth="yes"/>
      <point x="454" y="1339.96" type="line" smooth="yes"/>
      <point x="476.02" y="1338.12"/>
      <point x="496.2" y="1334.76"/>
      <point x="514.53" y="1329.87" type="curve" smooth="yes"/>
      <point x="531.93" y="1325.23"/>
      <point x="549.92" y="1316.82"/>
      <point x="568.5" y="1304.65" type="curve" smooth="yes"/>
      <point x="586.75" y="1291.62"/>
      <point x="601.38" y="1276.99"/>
      <point x="612.39" y="1260.76" type="curve" smooth="yes"/>
      <point x="623.97" y="1243.97"/>
      <point x="633.55" y="1225.14"/>
      <point x="641.14" y="1204.26" type="curve" smooth="yes"/>
      <point x="648.52" y="1182.12"/>
      <point x="653.06" y="1157.74"/>
      <point x="654.76" y="1131.12" type="curve" smooth="yes"/>
      <point x="657.2" y="1102.46"/>
      <point x="657.2" y="1074.72"/>
      <point x="654.76" y="1047.89" type="curve" smooth="yes"/>
      <point x="651.54" y="1019.58"/>
      <point x="646.5" y="993.68"/>
      <point x="639.63" y="970.21" type="curve" smooth="yes"/>
      <point x="632.24" y="945.58"/>
      <point x="622.15" y="923.21"/>
      <point x="609.36" y="903.12" type="curve" smooth="yes"/>
      <point x="598.02" y="885.3"/>
      <point x="571.46" y="854.53"/>
      <point x="529.66" y="810.81" type="curve" smooth="yes"/>
      <point x="489.31" y="769.35"/>
      <point x="469.13" y="745.3"/>
      <point x="469.13" y="738.68" type="curve" smooth="yes"/>
      <point x="469.13" y="731.36"/>
      <point x="471.82" y="725.3"/>
      <point x="477.2" y="720.52" type="curve" smooth="yes"/>
      <point x="481.98" y="715.14"/>
      <point x="487.03" y="712.45"/>
      <point x="492.33" y="712.45" type="curve" smooth="yes"/>
      <point x="497.56" y="712.45"/>
      <point x="518.74" y="701.18"/>
      <point x="555.89" y="678.65" type="curve" smooth="yes"/>
      <point x="592.81" y="655.65"/>
      <point x="620.05" y="637.49"/>
      <point x="637.61" y="624.17" type="curve" smooth="yes"/>
      <point x="654.6" y="610.21"/>
      <point x="668.56" y="596.26"/>
      <point x="679.48" y="582.3" type="curve" smooth="yes"/>
      <point x="690.32" y="567.64"/>
      <point x="699.23" y="550.99"/>
      <point x="706.22" y="532.36" type="curve" smooth="yes"/>
      <point x="713.62" y="512.63"/>
      <point x="720.01" y="491.11"/>
      <point x="725.39" y="467.79" type="curve" smooth="yes"/>
      <point x="730.43" y="445.09"/>
      <point x="732.96" y="411.46"/>
      <point x="732.96" y="366.9" type="curve" smooth="yes"/>
      <point x="732.96" y="323.26"/>
      <point x="729.26" y="287.95"/>
      <point x="721.86" y="260.97" type="curve" smooth="yes"/>
      <point x="713.99" y="232.11"/>
      <point x="705.08" y="207.73"/>
      <point x="695.12" y="187.83" type="curve" smooth="yes"/>
      <point x="684.73" y="166"/>
      <point x="668.42" y="143.98"/>
      <point x="646.19" y="121.75" type="curve" smooth="yes"/>
      <point x="624.38" y="99.94"/>
      <point x="605.72" y="85.31"/>
      <point x="590.2" y="77.86" type="curve" smooth="yes"/>
      <point x="574.85" y="70.49"/>
      <point x="556.35" y="64.1"/>
      <point x="534.71" y="58.69" type="curve" smooth="yes"/>
      <point x="512.97" y="53.14"/>
      <point x="487.75" y="51.29"/>
      <point x="459.05" y="53.14" type="curve" smooth="yes"/>
      <point x="429.7" y="55.1"/>
      <point x="397.75" y="61.99"/>
      <point x="363.21" y="73.82" type="curve" smooth="yes"/>
      <point x="324.42" y="86.53"/>
      <point x="286.59" y="99.3"/>
      <point x="249.71" y="112.16" type="curve" smooth="yes"/>
      <point x="209.37" y="125.8"/>
      <point x="186.33" y="136.05"/>
      <point x="180.6" y="142.93" type="curve" smooth="yes"/>
      <point x="176.54" y="147.75"/>
      <point x="174.01" y="159.5"/>
      <point x="173.01" y="178.17" type="curve" smooth="yes"/>
      <point x="172.01" y="196.84"/>
      <point x="171.52" y="242.77"/>
      <point x="171.52" y="315.95" type="curve" smooth="yes"/>
      <point x="171.52" y="422.82"/>
      <point x="169.67" y="540.69"/>
      <point x="165.97" y="669.56" type="curve" smooth="yes"/>
      <point x="161.61" y="796.56"/>
      <point x="161.44" y="890.73"/>
      <point x="165.47" y="952.04" type="curve" smooth="yes"/>
      <point x="169.79" y="1013.19"/>
      <point x="174.33" y="1058.92"/>
      <point x="179.09" y="1089.25" type="curve" smooth="yes"/>
      <point x="184.1" y="1120.56"/>
      <point x="190.82" y="1149.48"/>
      <point x="199.27" y="1176.01" type="curve" smooth="yes"/>
      <point x="208.02" y="1203.51"/>
      <point x="219.46" y="1227.56"/>
      <point x="233.57" y="1248.14" type="curve" smooth="yes"/>
      <point x="248.62" y="1270.39"/>
      <point x="263.76" y="1286.87"/>
      <point x="278.97" y="1297.57" type="curve" smooth="yes"/>
      <point x="294.52" y="1309.53"/>
      <point x="310.66" y="1318.61"/>
      <point x="327.4" y="1324.81" type="curve" smooth="yes"/>
      <point x="342.15" y="1330.27"/>
      <point x="361.99" y="1334.64"/>
      <point x="386.92" y="1337.93" type="curve" smooth="yes"/>
      <point x="410.32" y="1340.46"/>
      <point x="432.69" y="1341.13"/>
    </contour>
  </outline>
</glyph>
<glyph name="gamma" format="2">
  <advance width="840"/>
  <unicode hex="03B3"/>
  <note>
gamma
</note>
  <outline>
    <contour>
      <point x="30.23" y="1008.15" type="curve" smooth="yes"/>
      <point x="30.21" y="1008.14" type="line" smooth="yes"/>
      <point x="24.23" y="1008.14"/>
      <point x="18.85" y="1005.45"/>
      <point x="14.07" y="1000.07" type="curve" smooth="yes"/>
      <point x="8.69" y="995.29"/>
      <point x="6" y="990.58"/>
      <point x="6" y="985.95" type="curve" smooth="yes"/>
      <point x="6" y="982.9"/>
      <point x="14.41" y="951.79"/>
      <point x="31.22" y="892.63" type="curve" smooth="yes"/>
      <point x="48.65" y="833.48"/>
      <point x="74.04" y="750.24"/>
      <point x="107.39" y="642.94" type="curve" smooth="yes"/>
      <point x="117.98" y="609.65"/>
      <point x="132.44" y="563.66"/>
      <point x="150.77" y="504.98" type="curve" smooth="yes"/>
      <point x="169.1" y="446.3"/>
      <point x="180.03" y="411.41"/>
      <point x="183.56" y="400.31" type="curve" smooth="yes"/>
      <point x="201.91" y="340.52"/>
      <point x="216.7" y="288.39"/>
      <point x="227.95" y="243.94" type="curve" smooth="yes"/>
      <point x="241.26" y="191.98"/>
      <point x="251.35" y="156.83"/>
      <point x="258.22" y="138.51" type="curve" smooth="yes"/>
      <point x="265.69" y="118.6"/>
      <point x="277.46" y="100.61"/>
      <point x="293.53" y="84.54" type="curve" smooth="yes"/>
      <point x="317.24" y="60.83" type="line"/>
      <point x="287.48" y="-153.05" type="line" smooth="yes"/>
      <point x="267.84" y="-295.43"/>
      <point x="258.93" y="-370.26"/>
      <point x="260.74" y="-377.52" type="curve" smooth="yes"/>
      <point x="262.65" y="-385.16"/>
      <point x="266.86" y="-389.87"/>
      <point x="273.35" y="-391.64" type="curve" smooth="yes"/>
      <point x="280.08" y="-393.47"/>
      <point x="286.8" y="-393.47"/>
      <point x="293.53" y="-391.64" type="curve" smooth="yes"/>
      <point x="300.03" y="-389.87"/>
      <point x="304.23" y="-385.16"/>
      <point x="306.14" y="-377.52" type="curve" smooth="yes"/>
      <point x="308.29" y="-368.9"/>
      <point x="319.05" y="-294.08"/>
      <point x="338.42" y="-153.05" type="curve" smooth="yes"/>
      <point x="368.18" y="59.82" type="line"/>
      <point x="390.38" y="80" type="line" smooth="yes"/>
      <point x="405.67" y="93.11"/>
      <point x="417.61" y="109.59"/>
      <point x="426.19" y="129.43" type="curve" smooth="yes"/>
      <point x="435.67" y="149.65"/>
      <point x="445.25" y="181.26"/>
      <point x="454.94" y="224.26" type="curve" smooth="yes"/>
      <point x="465.13" y="266.83"/>
      <point x="491.2" y="354.1"/>
      <point x="533.13" y="486.06" type="curve" smooth="yes"/>
      <point x="577.51" y="626.38"/>
      <point x="605.09" y="714.66"/>
      <point x="615.86" y="750.89" type="curve" smooth="yes"/>
      <point x="625.32" y="782.71"/>
      <point x="638.94" y="831.47"/>
      <point x="656.72" y="897.18" type="curve" smooth="yes"/>
      <point x="670.17" y="949.15"/>
      <point x="676.9" y="978.07"/>
      <point x="676.9" y="983.94" type="curve" smooth="yes"/>
      <point x="676.9" y="989.92"/>
      <point x="674.21" y="995.3"/>
      <point x="668.83" y="1000.08" type="curve" smooth="yes"/>
      <point x="664.05" y="1005.46"/>
      <point x="658.33" y="1008.15"/>
      <point x="651.68" y="1008.15" type="curve" smooth="yes"/>
      <point x="645.92" y="1008.15"/>
      <point x="640.2" y="1005.63"/>
      <point x="634.53" y="1000.58" type="curve" smooth="yes"/>
      <point x="629.98" y="996.03"/>
      <point x="624.6" y="980.4"/>
      <point x="618.39" y="953.67" type="curve" smooth="yes"/>
      <point x="612.71" y="927.16"/>
      <point x="599.26" y="877.22"/>
      <point x="578.04" y="803.85" type="curve" smooth="yes"/>
      <point x="558.12" y="732.95"/>
      <point x="527.18" y="632.07"/>
      <point x="485.22" y="501.19" type="curve" smooth="yes"/>
      <point x="443.95" y="372.44"/>
      <point x="418.56" y="287.87"/>
      <point x="409.05" y="247.46" type="curve" smooth="yes"/>
      <point x="399.33" y="206.15"/>
      <point x="391.09" y="176.89"/>
      <point x="384.33" y="159.69" type="curve" smooth="yes"/>
      <point x="378.54" y="143.46"/>
      <point x="371.64" y="131.02"/>
      <point x="363.65" y="122.36" type="curve" smooth="yes"/>
      <point x="355.58" y="114.29"/>
      <point x="349.02" y="110.25"/>
      <point x="343.98" y="110.25" type="curve" smooth="yes"/>
      <point x="338.06" y="110.25"/>
      <point x="332.68" y="113.28"/>
      <point x="327.84" y="119.33" type="curve" smooth="yes"/>
      <point x="323.47" y="123.7"/>
      <point x="317.25" y="133.62"/>
      <point x="309.18" y="149.09" type="curve" smooth="yes"/>
      <point x="301.56" y="165.01"/>
      <point x="290.64" y="201.16"/>
      <point x="276.39" y="257.54" type="curve" smooth="yes"/>
      <point x="259.27" y="322.6"/>
      <point x="228.83" y="424.83"/>
      <point x="185.09" y="564.24" type="curve" smooth="yes"/>
      <point x="139.06" y="710.93"/>
      <point x="105.43" y="820.05"/>
      <point x="84.2" y="891.62" type="curve" smooth="yes"/>
      <point x="62.16" y="963.86"/>
      <point x="49.21" y="1001.35"/>
      <point x="45.36" y="1004.11" type="curve" smooth="yes"/>
      <point x="40.65" y="1006.8"/>
      <point x="35.61" y="1008.15"/>
    </contour>
  </outline>
</glyph>
<glyph name="iota" format="2">
  <advance width="467"/>
  <unicode hex="03B9"/>
  <note>
iota
</note>
  <anchor x="234" y="1005" name="top"/>
  <outline>
    <contour>
      <point x="166.4" y="987.36" type="curve" smooth="yes"/>
      <point x="159.71" y="987.36"/>
      <point x="153.95" y="984.65"/>
      <point x="149.13" y="979.23" type="curve" smooth="yes"/>
      <point x="145.55" y="975.65"/>
      <point x="143.3" y="952.51"/>
      <point x="142.38" y="909.8" type="curve" smooth="yes"/>
      <point x="141.46" y="867.09"/>
      <point x="141" y="762.85"/>
      <point x="141" y="597.07" type="curve" smooth="yes"/>
      <point x="141" y="346.26"/>
      <point x="142.86" y="207.02"/>
      <point x="146.59" y="179.34" type="curve" smooth="yes"/>
      <point x="149.28" y="154.06"/>
      <point x="153.51" y="129.5"/>
      <point x="159.3" y="105.65" type="curve" smooth="yes"/>
      <point x="165" y="84.76"/>
      <point x="171.09" y="66.64"/>
      <point x="177.59" y="51.27" type="curve" smooth="yes"/>
      <point x="184.37" y="35.24"/>
      <point x="190.98" y="26.27"/>
      <point x="197.41" y="24.34" type="curve" smooth="yes"/>
      <point x="203.85" y="21.77"/>
      <point x="210.28" y="21.77"/>
      <point x="216.72" y="24.34" type="curve" smooth="yes"/>
      <point x="223.66" y="26.23"/>
      <point x="228.06" y="30.3"/>
      <point x="229.93" y="36.54" type="curve" smooth="yes"/>
      <point x="231.7" y="42.46"/>
      <point x="227.64" y="60.58"/>
      <point x="217.73" y="90.92" type="curve" smooth="yes"/>
      <point x="207.23" y="121.19"/>
      <point x="200.45" y="150.66"/>
      <point x="197.4" y="179.34" type="curve" smooth="yes"/>
      <point x="193.67" y="207.03"/>
      <point x="191.81" y="346.27"/>
      <point x="191.81" y="597.07" type="curve" smooth="yes"/>
      <point x="191.81" y="762.86"/>
      <point x="191.35" y="867.1"/>
      <point x="190.43" y="909.81" type="curve" smooth="yes"/>
      <point x="189.51" y="952.51"/>
      <point x="187.26" y="975.65"/>
      <point x="183.68" y="979.23" type="curve" smooth="yes"/>
      <point x="178.86" y="984.65"/>
      <point x="173.1" y="987.36"/>
    </contour>
  </outline>
</glyph>
<glyph name="kappa" format="2">
  <advance width="836"/>
  <unicode hex="03BA"/>
  <note>
kappa
</note>
  <outline>
    <contour>
      <point x="642.62" y="1029.89" type="curve" smooth="yes"/>
      <point x="637.2" y="1029.9"/>
      <point x="632.45" y="1028.54"/>
      <point x="628.39" y="1025.83" type="curve" smooth="yes"/>
      <point x="624.03" y="1022.34"/>
      <point x="595.57" y="986.77"/>
      <point x="543.01" y="919.11" type="curve" smooth="yes"/>
      <point x="482.44" y="840.94"/>
      <point x="439.08" y="783.68"/>
      <point x="412.91" y="747.34" type="curve" smooth="yes"/>
      <point x="378.91" y="700.42"/>
      <point x="355.2" y="660.61"/>
      <point x="341.76" y="627.92" type="curve" smooth="yes"/>
      <point x="327.27" y="593.81"/>
      <point x="314.4" y="572.3"/>
      <point x="303.14" y="563.38" type="curve" smooth="yes"/>
      <point x="291.37" y="554.09"/>
      <point x="266.97" y="541.55"/>
      <point x="229.96" y="525.77" type="curve" smooth="yes"/>
      <point x="192.77" y="510.49"/>
      <point x="172.95" y="504.56"/>
      <point x="170.5" y="507.98" type="curve" smooth="yes"/>
      <point x="167.99" y="512.99"/>
      <point x="166.13" y="595.15"/>
      <point x="164.91" y="754.45" type="curve" smooth="yes"/>
      <point x="163.89" y="854.9"/>
      <point x="162.78" y="920.59"/>
      <point x="161.59" y="951.51" type="curve" smooth="yes"/>
      <point x="160.4" y="982.43"/>
      <point x="158.29" y="999.41"/>
      <point x="155.26" y="1002.44" type="curve" smooth="yes"/>
      <point x="150.52" y="1007.18"/>
      <point x="144.93" y="1009.55"/>
      <point x="138.49" y="1009.55" type="curve" smooth="yes"/>
      <point x="132.69" y="1009.55"/>
      <point x="126.59" y="1006.67"/>
      <point x="120.2" y="1000.91" type="curve" smooth="yes"/>
      <point x="116.36" y="996.81"/>
      <point x="114.2" y="982.06"/>
      <point x="113.72" y="956.63" type="curve" smooth="yes"/>
      <point x="113.24" y="931.21"/>
      <point x="113.87" y="862.45"/>
      <point x="115.63" y="750.37" type="curve" smooth="yes"/>
      <point x="118.16" y="585.31"/>
      <point x="119.18" y="493.84"/>
      <point x="118.68" y="475.95" type="curve" smooth="yes"/>
      <point x="118.25" y="460.58"/>
      <point x="117.07" y="384.19"/>
      <point x="115.12" y="246.76" type="curve" smooth="yes"/>
      <point x="114.09" y="158.86"/>
      <point x="113.88" y="103.63"/>
      <point x="114.48" y="81.09" type="curve" smooth="yes"/>
      <point x="115.09" y="58.55"/>
      <point x="117.16" y="45.5"/>
      <point x="120.71" y="41.96" type="curve" smooth="yes"/>
      <point x="126.13" y="36.54"/>
      <point x="131.72" y="33.83"/>
      <point x="137.48" y="33.83" type="curve" smooth="yes"/>
      <point x="142.9" y="33.83"/>
      <point x="148.32" y="35.52"/>
      <point x="153.74" y="38.91" type="curve" smooth="yes"/>
      <point x="157.05" y="40.95"/>
      <point x="159.31" y="53.94"/>
      <point x="160.54" y="77.9" type="curve" smooth="yes"/>
      <point x="161.77" y="101.86"/>
      <point x="162.89" y="155.1"/>
      <point x="163.91" y="237.61" type="curve" smooth="yes"/>
      <point x="166.45" y="431.23" type="line"/>
      <point x="182.71" y="444.95" type="line" smooth="yes"/>
      <point x="192.96" y="453.49"/>
      <point x="212.44" y="463.83"/>
      <point x="241.15" y="475.95" type="curve" smooth="yes"/>
      <point x="269.97" y="487.23"/>
      <point x="291.49" y="496.72"/>
      <point x="305.69" y="504.41" type="curve" smooth="yes"/>
      <point x="320.01" y="512.17"/>
      <point x="328.82" y="515.38"/>
      <point x="332.12" y="514.07" type="curve"/>
      <point x="335.34" y="511.65"/>
      <point x="355.16" y="484.04"/>
      <point x="391.58" y="431.23" type="curve" smooth="yes"/>
      <point x="428.28" y="379.49"/>
      <point x="480.29" y="297.84"/>
      <point x="547.59" y="186.28" type="curve" smooth="yes"/>
      <point x="614.5" y="76.4"/>
      <point x="649.9" y="20.16"/>
      <point x="653.8" y="17.56" type="curve" smooth="yes"/>
      <point x="657.87" y="14.85"/>
      <point x="662.61" y="13.5"/>
      <point x="668.03" y="13.5" type="curve" smooth="yes"/>
      <point x="674.03" y="13.5"/>
      <point x="679.62" y="16.38"/>
      <point x="684.8" y="22.14" type="curve" smooth="yes"/>
      <point x="690.46" y="27.79"/>
      <point x="692.66" y="34.06"/>
      <point x="691.41" y="40.94" type="curve" smooth="yes"/>
      <point x="689.38" y="49.08"/>
      <point x="656.85" y="105.15"/>
      <point x="593.84" y="209.15" type="curve" smooth="yes"/>
      <point x="528.87" y="315.98"/>
      <point x="478.22" y="395.59"/>
      <point x="441.89" y="448" type="curve" smooth="yes"/>
      <point x="406.93" y="498.44"/>
      <point x="385.08" y="529.78"/>
      <point x="376.33" y="542.02" type="curve" smooth="yes"/>
      <point x="371.71" y="548.25"/>
      <point x="369.86" y="554.14"/>
      <point x="370.8" y="559.68" type="curve" smooth="yes"/>
      <point x="371.74" y="565.22"/>
      <point x="377.14" y="580"/>
      <point x="387" y="604.02" type="curve" smooth="yes"/>
      <point x="400.17" y="636.52"/>
      <point x="425.24" y="677.85"/>
      <point x="462.21" y="728.02" type="curve" smooth="yes"/>
      <point x="500.34" y="780.14"/>
      <point x="543.71" y="837.39"/>
      <point x="592.31" y="899.79" type="curve" smooth="yes"/>
      <point x="642.11" y="963.12"/>
      <point x="667.01" y="998.01"/>
      <point x="667.01" y="1004.48" type="curve" smooth="yes"/>
      <point x="667.01" y="1011.18"/>
      <point x="664.3" y="1016.94"/>
      <point x="658.88" y="1021.76" type="curve" smooth="yes"/>
      <point x="654.06" y="1027.18"/>
      <point x="648.64" y="1029.89"/>
    </contour>
  </outline>
</glyph>
<glyph name="lambda" format="2">
  <advance width="840"/>
  <unicode hex="03BB"/>
  <note>
lambda
</note>
  <outline>
    <contour>
      <point x="130.15" y="1399.66" type="curve" smooth="yes"/>
      <point x="130.18" y="1399.69" type="line" smooth="yes"/>
      <point x="113.25" y="1401.47"/>
      <point x="102.07" y="1399.44"/>
      <point x="96.64" y="1393.59" type="curve" smooth="yes"/>
      <point x="90.88" y="1387.83"/>
      <point x="88" y="1381.9"/>
      <point x="88" y="1375.8" type="curve" smooth="yes"/>
      <point x="88" y="1369.1"/>
      <point x="90.71" y="1363.34"/>
      <point x="96.13" y="1358.52" type="curve" smooth="yes"/>
      <point x="100.95" y="1353.1"/>
      <point x="107.39" y="1350.39"/>
      <point x="115.44" y="1350.39" type="curve" smooth="yes"/>
      <point x="123.15" y="1350.39"/>
      <point x="134.84" y="1347.68"/>
      <point x="150.5" y="1342.26" type="curve" smooth="yes"/>
      <point x="167.34" y="1336.43"/>
      <point x="183.77" y="1326.1"/>
      <point x="199.79" y="1311.26" type="curve" smooth="yes"/>
      <point x="217.28" y="1295.56"/>
      <point x="234.22" y="1270.66"/>
      <point x="250.61" y="1236.56" type="curve" smooth="yes"/>
      <point x="267.45" y="1202.27"/>
      <point x="283.2" y="1159.75"/>
      <point x="297.87" y="1109" type="curve" smooth="yes"/>
      <point x="312.73" y="1059.06"/>
      <point x="324.76" y="1006.21"/>
      <point x="333.95" y="950.45" type="curve" smooth="yes"/>
      <point x="342.29" y="897.46"/>
      <point x="347.03" y="868.66"/>
      <point x="348.18" y="864.06" type="curve" smooth="yes"/>
      <point x="349.42" y="860.96"/>
      <point x="341.12" y="850.79"/>
      <point x="323.28" y="833.57" type="curve" smooth="yes"/>
      <point x="306.55" y="817.44"/>
      <point x="292.49" y="798.3"/>
      <point x="281.1" y="776.15" type="curve" smooth="yes"/>
      <point x="270" y="753.95"/>
      <point x="257.3" y="721.09"/>
      <point x="242.99" y="677.56" type="curve" smooth="yes"/>
      <point x="229.63" y="635.74"/>
      <point x="197.78" y="550.03"/>
      <point x="147.45" y="420.42" type="curve" smooth="yes"/>
      <point x="97.23" y="291.11"/>
      <point x="62.34" y="197.1"/>
      <point x="42.76" y="138.38" type="curve" smooth="yes"/>
      <point x="21.58" y="77.12"/>
      <point x="12.09" y="42.91"/>
      <point x="14.3" y="35.73" type="curve" smooth="yes"/>
      <point x="16.23" y="28.03"/>
      <point x="20.46" y="23.29"/>
      <point x="27.01" y="21.5" type="curve" smooth="yes"/>
      <point x="34.56" y="19.44"/>
      <point x="41.17" y="19.44"/>
      <point x="46.83" y="21.5" type="curve" smooth="yes"/>
      <point x="53.15" y="23.44"/>
      <point x="67.55" y="56.99"/>
      <point x="90.03" y="122.12" type="curve" smooth="yes"/>
      <point x="114.94" y="192.81"/>
      <point x="151.53" y="290.55"/>
      <point x="199.8" y="415.34" type="curve" smooth="yes"/>
      <point x="253.17" y="555.03"/>
      <point x="283.66" y="637.19"/>
      <point x="291.27" y="661.81" type="curve" smooth="yes"/>
      <point x="302.01" y="694.62"/>
      <point x="312.17" y="721.89"/>
      <point x="321.76" y="743.63" type="curve" smooth="yes"/>
      <point x="331.56" y="765.19"/>
      <point x="342.57" y="781.79"/>
      <point x="354.79" y="793.43" type="curve" smooth="yes"/>
      <point x="374.1" y="812.74" type="line"/>
      <point x="390.36" y="787.33" type="line" smooth="yes"/>
      <point x="400.97" y="770.25"/>
      <point x="418.42" y="718.76"/>
      <point x="442.7" y="632.84" type="curve" smooth="yes"/>
      <point x="449.67" y="607.99"/>
      <point x="462.17" y="563.57"/>
      <point x="480.19" y="499.56" type="curve" smooth="yes"/>
      <point x="498.21" y="435.56"/>
      <point x="510.45" y="392.06"/>
      <point x="516.9" y="369.09" type="curve" smooth="yes"/>
      <point x="540.64" y="283.99"/>
      <point x="561.64" y="213.69"/>
      <point x="579.92" y="158.19" type="curve" smooth="yes"/>
      <point x="598.07" y="105.05"/>
      <point x="610.09" y="70.15"/>
      <point x="616" y="53.5" type="curve" smooth="yes"/>
      <point x="623.74" y="34.15"/>
      <point x="630.85" y="23.48"/>
      <point x="637.34" y="21.48" type="curve" smooth="yes"/>
      <point x="642.7" y="19.34"/>
      <point x="649.3" y="19.34"/>
      <point x="657.16" y="21.48" type="curve" smooth="yes"/>
      <point x="663.7" y="23.26"/>
      <point x="667.94" y="28.01"/>
      <point x="669.87" y="35.71" type="curve" smooth="yes"/>
      <point x="671.54" y="42.96"/>
      <point x="665.61" y="66"/>
      <point x="652.08" y="104.82" type="curve" smooth="yes"/>
      <point x="636.77" y="148.65"/>
      <point x="622.21" y="192.69"/>
      <point x="608.37" y="236.95" type="curve" smooth="yes"/>
      <point x="594.82" y="280.32"/>
      <point x="570.25" y="366.04"/>
      <point x="534.68" y="494.09" type="curve" smooth="yes"/>
      <point x="501" y="615.32"/>
      <point x="478.14" y="695.61"/>
      <point x="466.07" y="734.97" type="curve" smooth="yes"/>
      <point x="453.82" y="774.26"/>
      <point x="440.95" y="803.9"/>
      <point x="427.45" y="823.9" type="curve" smooth="yes"/>
      <point x="414.38" y="842.08"/>
      <point x="405.07" y="859.87"/>
      <point x="399.5" y="877.26" type="curve" smooth="yes"/>
      <point x="394.27" y="895.94"/>
      <point x="388.51" y="926.43"/>
      <point x="382.22" y="968.73" type="curve" smooth="yes"/>
      <point x="375.68" y="1012.74"/>
      <point x="366.36" y="1055.42"/>
      <point x="354.27" y="1096.79" type="curve" smooth="yes"/>
      <point x="343.12" y="1135.54"/>
      <point x="331.43" y="1171.96"/>
      <point x="319.2" y="1206.05" type="curve" smooth="yes"/>
      <point x="308.86" y="1236.5"/>
      <point x="296.32" y="1264.11"/>
      <point x="281.59" y="1288.88" type="curve" smooth="yes"/>
      <point x="269.61" y="1309.99"/>
      <point x="254.36" y="1329.47"/>
      <point x="235.85" y="1347.32" type="curve" smooth="yes"/>
      <point x="216.79" y="1364.41"/>
      <point x="198.83" y="1376.61"/>
      <point x="181.98" y="1383.91" type="curve" smooth="yes"/>
      <point x="165.89" y="1391.68"/>
      <point x="148.61" y="1396.93"/>
    </contour>
  </outline>
</glyph>
<glyph name="nu" format="2">
  <advance width="840"/>
  <unicode hex="03BD"/>
  <note>
nu
</note>
  <outline>
    <contour>
      <point x="24.39" y="999.4" type="curve" smooth="yes"/>
      <point x="18.37" y="999.41"/>
      <point x="12.95" y="996.7"/>
      <point x="8.13" y="991.28" type="curve" smooth="yes"/>
      <point x="2.71" y="986.46"/>
      <point x="0" y="981.72"/>
      <point x="0" y="977.05" type="curve" smooth="yes"/>
      <point x="0" y="973.38"/>
      <point x="7.45" y="947.63"/>
      <point x="22.36" y="899.8" type="curve" smooth="yes"/>
      <point x="39.38" y="845.9"/>
      <point x="52.76" y="802.03"/>
      <point x="62.51" y="768.18" type="curve" smooth="yes"/>
      <point x="76.98" y="720.44"/>
      <point x="103.57" y="625.58"/>
      <point x="142.3" y="483.6" type="curve" smooth="yes"/>
      <point x="169.15" y="385.14"/>
      <point x="198.12" y="281.81"/>
      <point x="229.2" y="173.6" type="curve" smooth="yes"/>
      <point x="246.49" y="116.17"/>
      <point x="258.52" y="81.62"/>
      <point x="265.28" y="69.93" type="curve" smooth="yes"/>
      <point x="273.24" y="58"/>
      <point x="282.05" y="49.19"/>
      <point x="291.71" y="43.5" type="curve" smooth="yes"/>
      <point x="302.65" y="37.06"/>
      <point x="314.34" y="33.84"/>
      <point x="326.78" y="33.84" type="curve" smooth="yes"/>
      <point x="339.57" y="33.84"/>
      <point x="351.6" y="36.21"/>
      <point x="362.86" y="40.95" type="curve" smooth="yes"/>
      <point x="373.59" y="45.12"/>
      <point x="385.44" y="53.08"/>
      <point x="398.43" y="64.83" type="curve" smooth="yes"/>
      <point x="411.08" y="75.67"/>
      <point x="424.29" y="91.42"/>
      <point x="438.07" y="112.09" type="curve" smooth="yes"/>
      <point x="451.03" y="130.69"/>
      <point x="471.19" y="168.3"/>
      <point x="498.54" y="224.91" type="curve" smooth="yes"/>
      <point x="526.25" y="282.27"/>
      <point x="546.41" y="326.99"/>
      <point x="559.01" y="359.07" type="curve" smooth="yes"/>
      <point x="572.91" y="393.83"/>
      <point x="585.62" y="430.59"/>
      <point x="597.12" y="469.35" type="curve" smooth="yes"/>
      <point x="607.5" y="502.06"/>
      <point x="617.67" y="542.2"/>
      <point x="627.61" y="589.79" type="curve" smooth="yes"/>
      <point x="635.79" y="631.3"/>
      <point x="641.71" y="675.68"/>
      <point x="645.4" y="722.94" type="curve" smooth="yes"/>
      <point x="649.1" y="773.12"/>
      <point x="649.27" y="817.16"/>
      <point x="645.91" y="855.07" type="curve" smooth="yes"/>
      <point x="643.14" y="891.64"/>
      <point x="639.58" y="923.32"/>
      <point x="635.24" y="950.1" type="curve" smooth="yes"/>
      <point x="630.89" y="973.08"/>
      <point x="626.32" y="986.97"/>
      <point x="621.52" y="991.77" type="curve" smooth="yes"/>
      <point x="616.44" y="996.85"/>
      <point x="610.85" y="999.39"/>
      <point x="604.75" y="999.39" type="curve" smooth="yes"/>
      <point x="598.05" y="999.39"/>
      <point x="592.29" y="996.68"/>
      <point x="587.47" y="991.26" type="curve" smooth="yes"/>
      <point x="582.05" y="986.44"/>
      <point x="579.34" y="981.7"/>
      <point x="579.34" y="977.03" type="curve" smooth="yes"/>
      <point x="579.34" y="974.66"/>
      <point x="581.03" y="963.31"/>
      <point x="584.42" y="942.98" type="curve" smooth="yes"/>
      <point x="587.64" y="926.86"/>
      <point x="591.2" y="897.72"/>
      <point x="595.09" y="855.57" type="curve" smooth="yes"/>
      <point x="598.56" y="814.42"/>
      <point x="598.39" y="771.22"/>
      <point x="594.58" y="725.98" type="curve" smooth="yes"/>
      <point x="590.84" y="678.65"/>
      <point x="584.75" y="634.43"/>
      <point x="576.29" y="593.34" type="curve" smooth="yes"/>
      <point x="568.83" y="554.31"/>
      <point x="557.82" y="511.96"/>
      <point x="543.26" y="466.29" type="curve" smooth="yes"/>
      <point x="527.99" y="420.48"/>
      <point x="514.61" y="383.89"/>
      <point x="503.11" y="356.52" type="curve" smooth="yes"/>
      <point x="489.04" y="323.7"/>
      <point x="472.1" y="286.6"/>
      <point x="452.29" y="245.23" type="curve" smooth="yes"/>
      <point x="432.47" y="202.6"/>
      <point x="414.86" y="169.4"/>
      <point x="399.44" y="145.63" type="curve" smooth="yes"/>
      <point x="384.84" y="123.12"/>
      <point x="371.62" y="107.19"/>
      <point x="359.8" y="97.86" type="curve" smooth="yes"/>
      <point x="347.85" y="89.05"/>
      <point x="337.51" y="84.65"/>
      <point x="328.8" y="84.65" type="curve" smooth="yes"/>
      <point x="319.65" y="84.65"/>
      <point x="312.71" y="89.39"/>
      <point x="307.96" y="98.88" type="curve" smooth="yes"/>
      <point x="301.86" y="111.96"/>
      <point x="291.01" y="145.34"/>
      <point x="275.44" y="198.99" type="curve" smooth="yes"/>
      <point x="252.83" y="274.91"/>
      <point x="223.69" y="378.24"/>
      <point x="188.03" y="508.99" type="curve" smooth="yes"/>
      <point x="141.88" y="675.7"/>
      <point x="112.23" y="780.73"/>
      <point x="99.1" y="824.07" type="curve" smooth="yes"/>
      <point x="79.64" y="888.29"/>
      <point x="66.09" y="931.31"/>
      <point x="58.44" y="953.15" type="curve" smooth="yes"/>
      <point x="49.89" y="978.18"/>
      <point x="43.46" y="992.24"/>
      <point x="39.13" y="995.33" type="curve" smooth="yes"/>
      <point x="35.06" y="998.04"/>
      <point x="30.15" y="999.4"/>
    </contour>
  </outline>
</glyph>
<glyph name="sigma" format="2">
  <advance width="1117"/>
  <unicode hex="03C3"/>
  <note>
sigma
</note>
  <outline>
    <contour>
      <point x="729.16" y="1007.72" type="curve" smooth="yes"/>
      <point x="729.16" y="1007.7" type="line" smooth="yes"/>
      <point x="574.02" y="1007.1"/>
      <point x="483.23" y="1005.4"/>
      <point x="456.77" y="1002.62" type="curve" smooth="yes"/>
      <point x="434.35" y="999.67"/>
      <point x="411.48" y="995.6"/>
      <point x="388.16" y="990.42" type="curve" smooth="yes"/>
      <point x="364.27" y="984.45"/>
      <point x="337.33" y="974.11"/>
      <point x="307.36" y="959.42" type="curve" smooth="yes"/>
      <point x="275.65" y="944.01"/>
      <point x="246.35" y="923.51"/>
      <point x="219.44" y="897.93" type="curve" smooth="yes"/>
      <point x="192.72" y="872.43"/>
      <point x="171.89" y="847.53"/>
      <point x="156.93" y="823.23" type="curve" smooth="yes"/>
      <point x="141.64" y="799.38"/>
      <point x="129.95" y="777.19"/>
      <point x="121.86" y="756.66" type="curve" smooth="yes"/>
      <point x="112.59" y="734.14"/>
      <point x="104.8" y="710.26"/>
      <point x="98.48" y="685.01" type="curve" smooth="yes"/>
      <point x="90.98" y="655.03"/>
      <point x="85.56" y="624.71"/>
      <point x="82.22" y="594.04" type="curve" smooth="yes"/>
      <point x="78.07" y="557.83"/>
      <point x="77.05" y="512.94"/>
      <point x="79.17" y="459.37" type="curve" smooth="yes"/>
      <point x="80.92" y="406.17"/>
      <point x="84.48" y="363.82"/>
      <point x="89.84" y="332.32" type="curve" smooth="yes"/>
      <point x="94.57" y="304.52"/>
      <point x="100.84" y="278.26"/>
      <point x="108.64" y="253.55" type="curve" smooth="yes"/>
      <point x="115.73" y="230.52"/>
      <point x="125.55" y="206.12"/>
      <point x="138.12" y="180.37" type="curve" smooth="yes"/>
      <point x="150.26" y="155.49"/>
      <point x="166.35" y="132.11"/>
      <point x="186.4" y="110.24" type="curve" smooth="yes"/>
      <point x="205.52" y="89.33"/>
      <point x="222.8" y="73.4"/>
      <point x="238.24" y="62.47" type="curve" smooth="yes"/>
      <point x="253.3" y="52.23"/>
      <point x="270.57" y="42.24"/>
      <point x="290.07" y="32.49" type="curve" smooth="yes"/>
      <point x="309.12" y="23.27"/>
      <point x="329.79" y="15.48"/>
      <point x="352.07" y="9.11" type="curve" smooth="yes"/>
      <point x="373.92" y="3.01"/>
      <point x="402.72" y="-0.04"/>
      <point x="438.46" y="-0.04" type="curve" smooth="yes"/>
      <point x="472.77" y="-0.04"/>
      <point x="501.57" y="3.01"/>
      <point x="524.85" y="9.11" type="curve" smooth="yes"/>
      <point x="544.53" y="14.03"/>
      <point x="569.1" y="23.52"/>
      <point x="598.54" y="37.57" type="curve" smooth="yes"/>
      <point x="625.05" y="50.22"/>
      <point x="649.27" y="65.63"/>
      <point x="671.21" y="83.82" type="curve" smooth="yes"/>
      <point x="693.19" y="101.92"/>
      <point x="712.16" y="121.91"/>
      <point x="728.13" y="143.79" type="curve" smooth="yes"/>
      <point x="744.39" y="165.47"/>
      <point x="757.94" y="187.16"/>
      <point x="768.79" y="208.84" type="curve" smooth="yes"/>
      <point x="779.73" y="231.37"/>
      <point x="789.39" y="258.48"/>
      <point x="797.76" y="290.15" type="curve" smooth="yes"/>
      <point x="804.15" y="313.66"/>
      <point x="808.03" y="333.45"/>
      <point x="809.41" y="349.53" type="curve" smooth="yes"/>
      <point x="810.79" y="365.61"/>
      <point x="811.48" y="399.69"/>
      <point x="811.48" y="451.75" type="curve" smooth="yes"/>
      <point x="811.48" y="503.26"/>
      <point x="810.78" y="538.12"/>
      <point x="809.37" y="556.33" type="curve" smooth="yes"/>
      <point x="807.96" y="574.54"/>
      <point x="804.09" y="598.46"/>
      <point x="797.76" y="628.09" type="curve" smooth="yes"/>
      <point x="788.21" y="672.67"/>
      <point x="771.61" y="736.19"/>
      <point x="747.96" y="818.66" type="curve" smooth="yes"/>
      <point x="744.27" y="831.55"/>
      <point x="740.45" y="844.78"/>
      <point x="736.5" y="858.35" type="curve" smooth="yes"/>
      <point x="732.56" y="871.93"/>
      <point x="729.06" y="883.89"/>
      <point x="726.02" y="894.25" type="curve" smooth="yes"/>
      <point x="722.98" y="904.6"/>
      <point x="720.22" y="913.99"/>
      <point x="717.73" y="922.4" type="curve" smooth="yes"/>
      <point x="715.24" y="930.82"/>
      <point x="713.26" y="937.54"/>
      <point x="711.77" y="942.56" type="curve" smooth="yes"/>
      <point x="710.28" y="947.58"/>
      <point x="709.47" y="950.33"/>
      <point x="709.34" y="950.79" type="curve" smooth="yes"/>
      <point x="708.81" y="952.1"/>
      <point x="710.26" y="953.17"/>
      <point x="713.68" y="953.98" type="curve" smooth="yes"/>
      <point x="717.1" y="954.79"/>
      <point x="723.73" y="955.46"/>
      <point x="733.55" y="955.99" type="curve" smooth="yes"/>
      <point x="743.38" y="956.52"/>
      <point x="756.39" y="956.89"/>
      <point x="772.58" y="957.09" type="curve" smooth="yes"/>
      <point x="788.77" y="957.29"/>
      <point x="810.04" y="957.4"/>
      <point x="836.38" y="957.4" type="curve" smooth="yes"/>
      <point x="892.41" y="957.4"/>
      <point x="928.55" y="957.87"/>
      <point x="944.8" y="958.82" type="curve" smooth="yes"/>
      <point x="961.05" y="959.76"/>
      <point x="970.81" y="962"/>
      <point x="974.1" y="965.54" type="curve" smooth="yes"/>
      <point x="979.52" y="970.36"/>
      <point x="982.23" y="976.12"/>
      <point x="982.23" y="982.82" type="curve" smooth="yes"/>
      <point x="982.23" y="989.52"/>
      <point x="979.52" y="995.28"/>
      <point x="974.1" y="1000.1" type="curve" smooth="yes"/>
      <point x="970.52" y="1003.68"/>
      <point x="954.83" y="1005.91"/>
      <point x="927.03" y="1006.78" type="curve" smooth="yes"/>
      <point x="899.23" y="1007.66"/>
      <point x="833.27" y="1007.97"/>
    </contour>
    <contour>
      <point x="576.21" y="956.9" type="curve" smooth="yes"/>
      <point x="654.97" y="957.41" type="line"/>
      <point x="697.15" y="811.56" type="line" smooth="yes"/>
      <point x="725.33" y="712"/>
      <point x="742.61" y="646.27"/>
      <point x="748.99" y="614.38" type="curve" smooth="yes"/>
      <point x="755.83" y="580.69"/>
      <point x="760.23" y="533.26"/>
      <point x="762.2" y="472.09" type="curve" smooth="yes"/>
      <point x="763.21" y="431.93"/>
      <point x="763.26" y="403.62"/>
      <point x="762.33" y="387.16" type="curve" smooth="yes"/>
      <point x="761.4" y="370.7"/>
      <point x="758.65" y="350.9"/>
      <point x="754.07" y="327.77" type="curve" smooth="yes"/>
      <point x="746.74" y="292.96"/>
      <point x="738.1" y="264.67"/>
      <point x="728.15" y="242.9" type="curve" smooth="yes"/>
      <point x="719.53" y="223.37"/>
      <point x="709.2" y="204.57"/>
      <point x="697.15" y="186.49" type="curve" smooth="yes"/>
      <point x="685.33" y="169.41"/>
      <point x="671.1" y="153.15"/>
      <point x="654.46" y="137.7" type="curve" smooth="yes"/>
      <point x="638.27" y="121.51"/>
      <point x="618.79" y="106.77"/>
      <point x="596.02" y="93.49" type="curve" smooth="yes"/>
      <point x="572.68" y="79.87"/>
      <point x="548.96" y="69.54"/>
      <point x="524.87" y="62.49" type="curve" smooth="yes"/>
      <point x="499.2" y="54.7"/>
      <point x="470.4" y="50.8"/>
      <point x="438.48" y="50.8" type="curve" smooth="yes"/>
      <point x="406.34" y="50.8"/>
      <point x="378.39" y="54.53"/>
      <point x="354.63" y="61.98" type="curve" smooth="yes"/>
      <point x="329.12" y="70.03"/>
      <point x="306.42" y="80.03"/>
      <point x="286.53" y="91.96" type="curve" smooth="yes"/>
      <point x="264.25" y="105.33"/>
      <point x="244.43" y="121.59"/>
      <point x="227.07" y="140.75" type="curve" smooth="yes"/>
      <point x="208.72" y="160.77"/>
      <point x="192.97" y="184.48"/>
      <point x="179.81" y="211.9" type="curve" smooth="yes"/>
      <point x="166.6" y="240.22"/>
      <point x="157.28" y="264.61"/>
      <point x="151.86" y="285.08" type="curve" smooth="yes"/>
      <point x="146.16" y="307.24"/>
      <point x="140.91" y="336.04"/>
      <point x="136.11" y="371.47" type="curve" smooth="yes"/>
      <point x="131.03" y="409.59"/>
      <point x="128.49" y="450.24"/>
      <point x="128.49" y="493.44" type="curve" smooth="yes"/>
      <point x="128.49" y="537.82"/>
      <point x="130.35" y="573.06"/>
      <point x="134.08" y="599.14" type="curve" smooth="yes"/>
      <point x="138.07" y="627.75"/>
      <point x="143.15" y="653.83"/>
      <point x="149.33" y="677.4" type="curve" smooth="yes"/>
      <point x="155.05" y="701.43"/>
      <point x="166.06" y="730.39"/>
      <point x="182.36" y="764.3" type="curve" smooth="yes"/>
      <point x="192.38" y="784.33"/>
      <point x="201.51" y="800.01"/>
      <point x="209.76" y="811.34" type="curve" smooth="yes"/>
      <point x="218.01" y="822.67"/>
      <point x="230.56" y="836.63"/>
      <point x="247.41" y="853.23" type="curve" smooth="yes"/>
      <point x="274.97" y="880.79"/>
      <point x="301.4" y="900.78"/>
      <point x="326.69" y="913.2" type="curve" smooth="yes"/>
      <point x="352.04" y="925.56"/>
      <point x="375.58" y="934.54"/>
      <point x="397.33" y="940.13" type="curve" smooth="yes"/>
      <point x="414.36" y="944.51"/>
      <point x="436.38" y="948.58"/>
      <point x="463.39" y="952.33" type="curve" smooth="yes"/>
      <point x="485.26" y="954.76"/>
      <point x="522.86" y="956.28"/>
    </contour>
  </outline>
</glyph>
<glyph name="tau" format="2">
  <advance width="641"/>
  <unicode hex="03C4"/>
  <note>
tau
</note>
  <outline>
    <contour>
      <point x="263.6" y="1006.67" type="curve" smooth="yes"/>
      <point x="263.59" y="1006.69" type="line" smooth="yes"/>
      <point x="198.91" y="1006.06"/>
      <point x="151.31" y="1003.68"/>
      <point x="120.79" y="999.57" type="curve" smooth="yes"/>
      <point x="88.6" y="995.32"/>
      <point x="65.39" y="991.25"/>
      <point x="51.17" y="987.37" type="curve" smooth="yes"/>
      <point x="37.2" y="983.75"/>
      <point x="29.07" y="978.5"/>
      <point x="26.78" y="971.62" type="curve" smooth="yes"/>
      <point x="24.26" y="964.7"/>
      <point x="24.26" y="958.09"/>
      <point x="26.78" y="951.8" type="curve" smooth="yes"/>
      <point x="28.64" y="944.97"/>
      <point x="32.88" y="940.57"/>
      <point x="39.49" y="938.59" type="curve" smooth="yes"/>
      <point x="46.3" y="936.55"/>
      <point x="63.57" y="938.24"/>
      <point x="91.32" y="943.67" type="curve" smooth="yes"/>
      <point x="120.19" y="949.32"/>
      <point x="155.09" y="953.05"/>
      <point x="196.01" y="954.85" type="curve" smooth="yes"/>
      <point x="258.01" y="957.9" type="line"/>
      <point x="258.01" y="581.33" type="line" smooth="yes"/>
      <point x="258.01" y="330.81"/>
      <point x="259.87" y="192.25"/>
      <point x="263.6" y="165.63" type="curve" smooth="yes"/>
      <point x="267.16" y="140.15"/>
      <point x="272.41" y="117.62"/>
      <point x="279.35" y="98.04" type="curve" smooth="yes"/>
      <point x="286.16" y="79.71"/>
      <point x="297.68" y="62.43"/>
      <point x="313.91" y="46.2" type="curve" smooth="yes"/>
      <point x="330.01" y="30.1"/>
      <point x="347.12" y="19.43"/>
      <point x="365.24" y="14.18" type="curve" smooth="yes"/>
      <point x="382.71" y="8.76"/>
      <point x="400.49" y="6.05"/>
      <point x="418.6" y="6.05" type="curve" smooth="yes"/>
      <point x="436.71" y="6.05"/>
      <point x="448.23" y="8.76"/>
      <point x="453.16" y="14.18" type="curve" smooth="yes"/>
      <point x="458.58" y="19"/>
      <point x="461.29" y="24.76"/>
      <point x="461.29" y="31.46" type="curve" smooth="yes"/>
      <point x="461.29" y="38.16"/>
      <point x="458.58" y="43.92"/>
      <point x="453.16" y="48.74" type="curve" smooth="yes"/>
      <point x="448.23" y="54.16"/>
      <point x="436.71" y="56.87"/>
      <point x="418.6" y="56.87" type="curve" smooth="yes"/>
      <point x="401.14" y="56.87"/>
      <point x="384.88" y="60.77"/>
      <point x="369.81" y="68.56" type="curve" smooth="yes"/>
      <point x="360.66" y="72.88"/>
      <point x="353.6" y="77.69"/>
      <point x="348.65" y="82.99" type="curve" smooth="yes"/>
      <point x="343.7" y="88.29"/>
      <point x="338.55" y="96.52"/>
      <point x="333.22" y="107.69" type="curve" smooth="yes"/>
      <point x="324.07" y="125.99"/>
      <point x="317.63" y="146.31"/>
      <point x="313.91" y="168.67" type="curve" smooth="yes"/>
      <point x="310.52" y="191.26"/>
      <point x="308.83" y="328.3"/>
      <point x="308.83" y="579.8" type="curve" smooth="yes"/>
      <point x="308.83" y="957.38" type="line"/>
      <point x="424.7" y="953.82" type="line" smooth="yes"/>
      <point x="477.3" y="952.05"/>
      <point x="510.25" y="951.43"/>
      <point x="523.54" y="951.98" type="curve" smooth="yes"/>
      <point x="536.83" y="952.53"/>
      <point x="545.39" y="954.83"/>
      <point x="549.2" y="958.9" type="curve" smooth="yes"/>
      <point x="554.96" y="964.66"/>
      <point x="557.84" y="970.59"/>
      <point x="557.84" y="976.69" type="curve" smooth="yes"/>
      <point x="557.84" y="983.13"/>
      <point x="555.47" y="988.72"/>
      <point x="550.72" y="993.46" type="curve" smooth="yes"/>
      <point x="545.75" y="997.98"/>
      <point x="512.37" y="1001.37"/>
      <point x="450.61" y="1003.62" type="curve" smooth="yes"/>
      <point x="385.25" y="1006.23"/>
      <point x="322.92" y="1007.25"/>
    </contour>
  </outline>
</glyph>
<glyph name="chi" format="2">
  <advance width="877"/>
  <unicode hex="03C7"/>
  <note>
chi
</note>
  <outline>
    <contour>
      <point x="49.82" y="1019.4" type="curve" smooth="yes"/>
      <point x="49.79" y="1019.39" type="line" smooth="yes"/>
      <point x="38.73" y="1020.9"/>
      <point x="30.66" y="1018.88"/>
      <point x="25.58" y="1013.34" type="curve" smooth="yes"/>
      <point x="19.86" y="1007.62"/>
      <point x="17" y="1002.07"/>
      <point x="17" y="996.69" type="curve" smooth="yes"/>
      <point x="17" y="991.65"/>
      <point x="18.35" y="986.77"/>
      <point x="21.04" y="982.06" type="curve" smooth="yes"/>
      <point x="23.79" y="977.94"/>
      <point x="34.21" y="972.56"/>
      <point x="52.31" y="965.92" type="curve" smooth="yes"/>
      <point x="70.5" y="959.16"/>
      <point x="86.81" y="948.57"/>
      <point x="101.24" y="934.14" type="curve" smooth="yes"/>
      <point x="116.3" y="917.71"/>
      <point x="128.24" y="901.23"/>
      <point x="137.06" y="884.71" type="curve" smooth="yes"/>
      <point x="146.21" y="868.56"/>
      <point x="157.31" y="844.18"/>
      <point x="170.35" y="811.57" type="curve" smooth="yes"/>
      <point x="181.13" y="783.78"/>
      <point x="196.43" y="741.75"/>
      <point x="216.25" y="685.46" type="curve" smooth="yes"/>
      <point x="235.7" y="630.26"/>
      <point x="253.35" y="586.2"/>
      <point x="269.22" y="553.3" type="curve" smooth="yes"/>
      <point x="285.44" y="518.37"/>
      <point x="298.89" y="493.49"/>
      <point x="309.57" y="478.64" type="curve" smooth="yes"/>
      <point x="320.73" y="463.14"/>
      <point x="330.31" y="453.39"/>
      <point x="338.32" y="449.38" type="curve" smooth="yes"/>
      <point x="350.43" y="443.83" type="line"/>
      <point x="346.9" y="380.78" type="line"/>
      <point x="343.37" y="317.22" type="line"/>
      <point x="321.18" y="292" type="line" smooth="yes"/>
      <point x="306.52" y="276.17"/>
      <point x="291.55" y="253.3"/>
      <point x="276.29" y="223.4" type="curve" smooth="yes"/>
      <point x="263.2" y="197.22"/>
      <point x="217.13" y="90.44"/>
      <point x="138.08" y="-96.92" type="curve" smooth="yes"/>
      <point x="60.06" y="-280.54"/>
      <point x="22.06" y="-376.39"/>
      <point x="24.08" y="-384.45" type="curve" smooth="yes"/>
      <point x="26.06" y="-392.36"/>
      <point x="30.43" y="-397.23"/>
      <point x="37.2" y="-399.08" type="curve" smooth="yes"/>
      <point x="44.69" y="-401.12"/>
      <point x="51.25" y="-401.12"/>
      <point x="56.87" y="-399.08" type="curve" smooth="yes"/>
      <point x="62.9" y="-397.22"/>
      <point x="105.11" y="-303.4"/>
      <point x="183.48" y="-117.61" type="curve" smooth="yes"/>
      <point x="262.85" y="70.28"/>
      <point x="308.42" y="175.71"/>
      <point x="320.18" y="198.67" type="curve" smooth="yes"/>
      <point x="331.97" y="221.7"/>
      <point x="342.57" y="239.35"/>
      <point x="351.96" y="251.64" type="curve" smooth="yes"/>
      <point x="364.57" y="266.77" type="line"/>
      <point x="382.23" y="249.62" type="line" smooth="yes"/>
      <point x="394.8" y="237.05"/>
      <point x="404.89" y="223.43"/>
      <point x="412.5" y="208.76" type="curve" smooth="yes"/>
      <point x="421.04" y="192.91"/>
      <point x="431.46" y="168.36"/>
      <point x="443.78" y="135.11" type="curve" smooth="yes"/>
      <point x="453.44" y="107.14"/>
      <point x="481.36" y="37.69"/>
      <point x="527.52" y="-73.22" type="curve" smooth="yes"/>
      <point x="574.21" y="-186.98"/>
      <point x="603.46" y="-260.12"/>
      <point x="615.29" y="-292.65" type="curve" smooth="yes"/>
      <point x="634.52" y="-344.2"/>
      <point x="644.61" y="-371.27"/>
      <point x="645.56" y="-373.86" type="curve" smooth="yes"/>
      <point x="651.05" y="-387.27"/>
      <point x="655.59" y="-395.17"/>
      <point x="659.18" y="-397.57" type="curve" smooth="yes"/>
      <point x="663.89" y="-400.26"/>
      <point x="668.77" y="-401.61"/>
      <point x="673.81" y="-401.61" type="curve" smooth="yes"/>
      <point x="679.76" y="-401.61"/>
      <point x="685.31" y="-398.75"/>
      <point x="690.46" y="-393.03" type="curve" smooth="yes"/>
      <point x="696.06" y="-387.43"/>
      <point x="697.91" y="-379.86"/>
      <point x="696.01" y="-370.33" type="curve" smooth="yes"/>
      <point x="694.56" y="-362.6"/>
      <point x="684.98" y="-334.69"/>
      <point x="667.26" y="-286.59" type="curve" smooth="yes"/>
      <point x="650.74" y="-242.33"/>
      <point x="620.64" y="-167.17"/>
      <point x="576.97" y="-61.11" type="curve" smooth="yes"/>
      <point x="534.88" y="40.26"/>
      <point x="507.47" y="108.36"/>
      <point x="494.75" y="143.18" type="curve" smooth="yes"/>
      <point x="482.92" y="176.18"/>
      <point x="471.66" y="203.08"/>
      <point x="460.95" y="223.89" type="curve" smooth="yes"/>
      <point x="451.76" y="242.81"/>
      <point x="437.98" y="262.48"/>
      <point x="419.59" y="282.91" type="curve" smooth="yes"/>
      <point x="393.86" y="309.65" type="line"/>
      <point x="397.39" y="376.74" type="line" smooth="yes"/>
      <point x="399.57" y="420.81"/>
      <point x="402.59" y="443.68"/>
      <point x="406.47" y="445.34" type="curve" smooth="yes"/>
      <point x="409.13" y="446.23"/>
      <point x="417.2" y="452.45"/>
      <point x="430.68" y="464" type="curve" smooth="yes"/>
      <point x="442.68" y="474.8"/>
      <point x="453.1" y="488.42"/>
      <point x="461.95" y="504.86" type="curve" smooth="yes"/>
      <point x="470.02" y="518.84"/>
      <point x="496.58" y="579.04"/>
      <point x="541.65" y="685.45" type="curve" smooth="yes"/>
      <point x="584.4" y="785.59"/>
      <point x="616.68" y="862.77"/>
      <point x="638.5" y="916.99" type="curve" smooth="yes"/>
      <point x="658.18" y="967.23"/>
      <point x="667.26" y="996.15"/>
      <point x="665.74" y="1003.75" type="curve" smooth="yes"/>
      <point x="663.93" y="1011.61"/>
      <point x="659.55" y="1016.49"/>
      <point x="652.62" y="1018.38" type="curve" smooth="yes"/>
      <point x="644.82" y="1020.51"/>
      <point x="638.27" y="1020.51"/>
      <point x="632.95" y="1018.38" type="curve" smooth="yes"/>
      <point x="626.4" y="1016.36"/>
      <point x="615.97" y="997.36"/>
      <point x="601.68" y="961.38" type="curve" smooth="yes"/>
      <point x="595.01" y="944.26"/>
      <point x="569.11" y="881.71"/>
      <point x="524" y="773.73" type="curve" smooth="yes"/>
      <point x="481.18" y="672.9"/>
      <point x="454.28" y="609.18"/>
      <point x="443.29" y="582.55" type="curve" smooth="yes"/>
      <point x="426.89" y="544.1"/>
      <point x="412.59" y="518.54"/>
      <point x="400.41" y="505.88" type="curve" smooth="yes"/>
      <point x="387.92" y="492.76"/>
      <point x="379.68" y="486.21"/>
      <point x="375.69" y="486.21" type="curve" smooth="yes"/>
      <point x="371.74" y="486.21"/>
      <point x="365.35" y="490.92"/>
      <point x="356.52" y="500.33" type="curve" smooth="yes"/>
      <point x="348.3" y="509.14"/>
      <point x="335.19" y="532.17"/>
      <point x="317.17" y="569.44" type="curve" smooth="yes"/>
      <point x="298.51" y="608.69"/>
      <point x="279.17" y="657.45"/>
      <point x="259.16" y="715.73" type="curve" smooth="yes"/>
      <point x="235.17" y="783.6"/>
      <point x="219.19" y="826.81"/>
      <point x="211.24" y="845.37" type="curve" smooth="yes"/>
      <point x="200.02" y="871.56"/>
      <point x="188.41" y="895.44"/>
      <point x="176.43" y="917" type="curve" smooth="yes"/>
      <point x="163.13" y="940.27"/>
      <point x="149.51" y="958.6"/>
      <point x="135.57" y="971.98" type="curve" smooth="yes"/>
      <point x="121.11" y="986.44"/>
      <point x="105.81" y="997.71"/>
      <point x="89.67" y="1005.78" type="curve" smooth="yes"/>
      <point x="74.26" y="1012.89"/>
      <point x="60.98" y="1017.43"/>
    </contour>
  </outline>
</glyph>
